<?xml version="1.0" encoding="UTF-8"?>
<!DOCTYPE svg PUBLIC "-//W3C//DTD SVG 1.1//EN" "http://www.w3.org/Graphics/SVG/1.1/DTD/svg11.dtd">
<svg xmlns="http://www.w3.org/2000/svg" version="1.1" width="700px" height="700px" style="shape-rendering:geometricPrecision; text-rendering:geometricPrecision; image-rendering:optimizeQuality; fill-rule:evenodd; clip-rule:evenodd" xmlns:xlink="http://www.w3.org/1999/xlink">
<g><path style="opacity:0.965" fill="#e5aa63" d="M 350.5,37.5 C 335.428,55.8985 320.762,74.5651 306.5,93.5C 303.322,96.2583 299.655,98.2583 295.5,99.5C 310.158,80.8636 324.825,62.1969 339.5,43.5C 342.433,41.3548 345.433,39.1882 348.5,37C 349.437,36.3083 350.103,36.475 350.5,37.5 Z"/></g>
<g><path style="opacity:0.974" fill="#ebae66" d="M 350.5,37.5 C 352.537,38.8465 354.537,40.1798 356.5,41.5C 345.408,56.0152 334.074,70.3485 322.5,84.5C 317.498,88.0031 312.165,91.0031 306.5,93.5C 320.762,74.5651 335.428,55.8985 350.5,37.5 Z"/></g>
<g><path style="opacity:0.963" fill="#f0b269" d="M 356.5,41.5 C 359.634,42.9009 362.634,44.5675 365.5,46.5C 359.575,55.0988 353.241,63.4321 346.5,71.5C 338.827,76.3382 330.827,80.6715 322.5,84.5C 334.074,70.3485 345.408,56.0152 356.5,41.5 Z"/></g>
<g><path style="opacity:0.977" fill="#e1a761" d="M 339.5,43.5 C 324.825,62.1969 310.158,80.8636 295.5,99.5C 293.664,101.588 291.331,102.921 288.5,103.5C 303.158,84.8636 317.825,66.1969 332.5,47.5C 334.336,45.412 336.669,44.0787 339.5,43.5 Z"/></g>
<g><path style="opacity:0.966" fill="#f7b76b" d="M 365.5,46.5 C 383.866,56.6776 401.866,67.3443 419.5,78.5C 414.167,85.5 408.833,92.5 403.5,99.5C 385.554,89.8584 367.554,80.1917 349.5,70.5C 348.583,71.1272 347.583,71.4606 346.5,71.5C 353.241,63.4321 359.575,55.0988 365.5,46.5 Z"/></g>
<g><path style="opacity:0.969" fill="#dda35f" d="M 332.5,47.5 C 317.825,66.1969 303.158,84.8636 288.5,103.5C 283.033,107.071 277.367,110.404 271.5,113.5C 285.762,94.5651 300.428,75.8985 315.5,57.5C 320.665,53.4137 326.332,50.0804 332.5,47.5 Z"/></g>
<g><path style="opacity:0.97" fill="#d69e5c" d="M 315.5,57.5 C 300.428,75.8985 285.762,94.5651 271.5,113.5C 267.096,116.559 262.429,119.225 257.5,121.5C 272.833,102.5 288.167,83.5 303.5,64.5C 307.164,61.6654 311.164,59.332 315.5,57.5 Z"/></g>
<g><path style="opacity:0.967" fill="#d19a59" d="M 303.5,64.5 C 288.167,83.5 272.833,102.5 257.5,121.5C 253.836,124.335 249.836,126.668 245.5,128.5C 260.833,109.5 276.167,90.5 291.5,71.5C 295.164,68.6654 299.164,66.332 303.5,64.5 Z"/></g>
<g><path style="opacity:0.968" fill="#cc9656" d="M 291.5,71.5 C 276.167,90.5 260.833,109.5 245.5,128.5C 243.337,130.083 241.004,131.416 238.5,132.5C 253.864,113.476 269.197,94.4755 284.5,75.5C 286.663,73.9172 288.996,72.5839 291.5,71.5 Z"/></g>
<g><path style="opacity:0.966" fill="#c99354" d="M 284.5,75.5 C 269.197,94.4755 253.864,113.476 238.5,132.5C 236.664,134.588 234.331,135.921 231.5,136.5C 246.803,117.524 262.136,98.5245 277.5,79.5C 279.663,77.9172 281.996,76.5839 284.5,75.5 Z"/></g>
<g><path style="opacity:0.965" fill="#f0b166" d="M 419.5,78.5 C 425.165,80.9969 430.498,83.9969 435.5,87.5C 429.594,94.3168 423.927,101.317 418.5,108.5C 413.299,105.737 408.299,102.737 403.5,99.5C 408.833,92.5 414.167,85.5 419.5,78.5 Z"/></g>
<g><path style="opacity:0.961" fill="#c49052" d="M 277.5,79.5 C 262.136,98.5245 246.803,117.524 231.5,136.5C 228.024,139.623 224.024,141.957 219.5,143.5C 234.5,124.833 249.5,106.167 264.5,87.5C 268.323,84.0843 272.657,81.4176 277.5,79.5 Z"/></g>
<g><path style="opacity:0.951" fill="#24fb23" d="M 347.5,82.5 C 348.873,82.3433 350.207,82.51 351.5,83C 401.158,110.494 450.491,138.494 499.5,167C 506.741,173.308 511.574,181.141 514,190.5C 515.589,209.795 515.922,229.129 515,248.5C 507.418,252.707 499.918,257.04 492.5,261.5C 491.667,241.508 491.167,221.508 491,201.5C 489.084,193.829 485.25,187.329 479.5,182C 436.33,156.914 392.996,132.08 349.5,107.5C 307.167,131.667 264.833,155.833 222.5,180C 214.453,186.261 209.619,194.427 208,204.5C 207.833,223.509 207.333,242.509 206.5,261.5C 199.25,257.292 192.084,252.959 185,248.5C 184.333,230.167 184.333,211.833 185,193.5C 187.851,178.651 196.017,167.817 209.5,161C 255.725,135.059 301.725,108.892 347.5,82.5 Z"/></g>
<g><path style="opacity:0.967" fill="#be8b4f" d="M 264.5,87.5 C 249.5,106.167 234.5,124.833 219.5,143.5C 215.677,146.916 211.343,149.582 206.5,151.5C 222.167,132.167 237.833,112.833 253.5,93.5C 256.678,90.7417 260.345,88.7417 264.5,87.5 Z"/></g>
<g><path style="opacity:0.963" fill="#eaac62" d="M 435.5,87.5 C 439.864,89.3437 443.864,91.677 447.5,94.5C 442.903,102.009 437.57,109.009 431.5,115.5C 427.034,113.434 422.701,111.1 418.5,108.5C 423.927,101.317 429.594,94.3168 435.5,87.5 Z"/></g>
<g><path style="opacity:0.967" fill="#b8864b" d="M 253.5,93.5 C 237.833,112.833 222.167,132.167 206.5,151.5C 201.511,155.331 196.178,158.664 190.5,161.5C 205.811,142.245 221.145,122.912 236.5,103.5C 241.994,99.9179 247.661,96.5845 253.5,93.5 Z"/></g>
<g><path style="opacity:0.96" fill="#e5a75e" d="M 447.5,94.5 C 450.14,95.8201 452.807,97.1534 455.5,98.5C 449.594,105.317 443.927,112.317 438.5,119.5C 435.669,118.921 433.336,117.588 431.5,115.5C 437.57,109.009 442.903,102.009 447.5,94.5 Z"/></g>
<g><path style="opacity:0.964" fill="#e1a45c" d="M 455.5,98.5 C 458.167,100.167 460.833,101.833 463.5,103.5C 458.073,110.683 452.406,117.683 446.5,124.5C 443.797,122.819 441.131,121.153 438.5,119.5C 443.927,112.317 449.594,105.317 455.5,98.5 Z"/></g>
<g><path style="opacity:0.955" fill="#b18147" d="M 236.5,103.5 C 221.145,122.912 205.811,142.245 190.5,161.5C 181.069,168.354 174.569,177.354 171,188.5C 170.258,182.923 170.758,177.59 172.5,172.5C 172.775,174.842 173.608,174.842 175,172.5C 191.714,151.959 208.214,131.292 224.5,110.5C 228.164,107.665 232.164,105.332 236.5,103.5 Z"/></g>
<g><path style="opacity:0.964" fill="#dca058" d="M 463.5,103.5 C 466.54,104.68 469.206,106.347 471.5,108.5C 468.566,111.937 465.4,115.27 462,118.5C 459.996,122.508 457.496,126.175 454.5,129.5C 451.833,127.833 449.167,126.167 446.5,124.5C 452.406,117.683 458.073,110.683 463.5,103.5 Z"/></g>
<g><path style="opacity:0.968" fill="#d79b55" d="M 471.5,108.5 C 475.173,110 478.506,112 481.5,114.5C 475.833,121.167 470.167,127.833 464.5,134.5C 461.183,132.863 457.85,131.196 454.5,129.5C 457.496,126.175 459.996,122.508 462,118.5C 465.4,115.27 468.566,111.937 471.5,108.5 Z"/></g>
<g><path style="opacity:0.959" fill="#a97b43" d="M 224.5,110.5 C 208.214,131.292 191.714,151.959 175,172.5C 173.608,174.842 172.775,174.842 172.5,172.5C 175.844,158.477 182.344,146.144 192,135.5C 196.729,130.603 201.562,125.936 206.5,121.5C 212.166,117.331 218.166,113.665 224.5,110.5 Z"/></g>
<g><path style="opacity:0.961" fill="#d19651" d="M 481.5,114.5 C 485.221,116.354 488.554,118.687 491.5,121.5C 489.983,121.511 488.816,122.177 488,123.5C 483.667,129.33 479.167,134.996 474.5,140.5C 470.827,139 467.494,137 464.5,134.5C 470.167,127.833 475.833,121.167 481.5,114.5 Z"/></g>
<g><path style="opacity:0.967" fill="#5d0a65" d="M 206.5,121.5 C 188.194,131.971 176.028,147.305 170,167.5C 168.414,186.128 168.081,204.795 169,223.5C 170.43,238.199 176.93,250.032 188.5,259C 235.833,286.333 283.167,313.667 330.5,341C 343.167,345.667 355.833,345.667 368.5,341C 415.833,313.667 463.167,286.333 510.5,259C 521.501,250.505 528.001,239.338 530,225.5C 530.937,205.79 530.604,186.123 529,166.5C 522.751,147.586 511.251,132.753 494.5,122C 493.5,121 492.5,120 491.5,119C 506.976,127.081 522.309,135.747 537.5,145C 548.043,153.9 555.21,165.067 559,178.5C 559.667,199.833 559.667,221.167 559,242.5C 555.598,255.812 548.764,266.979 538.5,276C 483.833,307.667 429.167,339.333 374.5,371C 357.833,378.333 341.167,378.333 324.5,371C 272.421,341.212 220.587,311.045 169,280.5C 168.059,309.198 168.393,337.864 170,366.5C 172.741,376.484 177.908,384.984 185.5,392C 233.167,419.667 280.833,447.333 328.5,475C 342.5,481 356.5,481 370.5,475C 418.167,447.333 465.833,419.667 513.5,392C 521.092,384.984 526.259,376.484 529,366.5C 529.812,359.099 530.812,351.766 532,344.5C 537.544,338.965 543.711,334.132 550.5,330C 553.85,329.07 556.683,329.903 559,332.5C 559.667,347.5 559.667,362.5 559,377.5C 555.127,392.024 547.294,403.858 535.5,413C 482.336,443.414 429.336,474.081 376.5,505C 364.543,511.155 351.876,513.155 338.5,511C 333.617,509.928 328.95,508.261 324.5,506C 269.833,474.333 215.167,442.667 160.5,411C 149.958,401.755 143.124,390.255 140,376.5C 139.333,310.833 139.333,245.167 140,179.5C 143.402,166.188 150.236,155.021 160.5,146C 175.666,137.252 190.666,128.252 205.5,119C 207.761,118.793 208.095,119.626 206.5,121.5 Z"/></g>
<g><path style="opacity:0.976" fill="#cb924d" d="M 491.5,121.5 C 494.06,123.273 496.393,125.273 498.5,127.5C 493.912,134.096 488.912,140.43 483.5,146.5C 480.291,144.735 477.291,142.735 474.5,140.5C 479.167,134.996 483.667,129.33 488,123.5C 488.816,122.177 489.983,121.511 491.5,121.5 Z"/></g>
<g><path style="opacity:0.97" fill="#c58c49" d="M 498.5,127.5 C 501.833,130.167 504.833,133.167 507.5,136.5C 507.649,137.552 507.483,138.552 507,139.5C 502.954,144.04 499.121,148.707 495.5,153.5C 491.5,151.167 487.5,148.833 483.5,146.5C 488.912,140.43 493.912,134.096 498.5,127.5 Z"/></g>
<g><path style="opacity:0.949" fill="#bd8644" d="M 507.5,136.5 C 511.238,139.91 514.238,143.91 516.5,148.5C 516.291,149.922 515.791,151.255 515,152.5C 512.715,155.432 510.215,158.098 507.5,160.5C 503.164,158.668 499.164,156.335 495.5,153.5C 499.121,148.707 502.954,144.04 507,139.5C 507.483,138.552 507.649,137.552 507.5,136.5 Z"/></g>
<g><path style="opacity:0.931" fill="#b88140" d="M 516.5,148.5 C 519.258,151.678 521.258,155.345 522.5,159.5C 520.984,162.533 518.984,165.2 516.5,167.5C 513.19,165.518 510.19,163.185 507.5,160.5C 510.215,158.098 512.715,155.432 515,152.5C 515.791,151.255 516.291,149.922 516.5,148.5 Z"/></g>
<g><path style="opacity:0.968" fill="#c49052" d="M 340.5,157.5 C 329.539,171.795 318.206,185.795 306.5,199.5C 306.5,198.167 306.5,196.833 306.5,195.5C 317.474,183.846 327.807,171.513 337.5,158.5C 338.391,157.89 339.391,157.557 340.5,157.5 Z"/></g>
<g><path style="opacity:0.967" fill="#ca9555" d="M 340.5,157.5 C 341.833,157.5 343.167,157.5 344.5,157.5C 332.282,173.312 319.615,188.645 306.5,203.5C 306.5,202.167 306.5,200.833 306.5,199.5C 318.206,185.795 329.539,171.795 340.5,157.5 Z"/></g>
<g><path style="opacity:0.973" fill="#d19a59" d="M 344.5,157.5 C 345.5,157.5 346.5,157.5 347.5,157.5C 334.301,174.574 320.634,191.241 306.5,207.5C 306.5,206.167 306.5,204.833 306.5,203.5C 319.615,188.645 332.282,173.312 344.5,157.5 Z"/></g>
<g><path style="opacity:0.806" fill="#e7ab64" d="M 360.5,158.5 C 357.514,162.817 354.18,166.817 350.5,170.5C 350.5,165.833 350.5,161.167 350.5,156.5C 354.011,156.899 357.344,157.566 360.5,158.5 Z"/></g>
<g><path style="opacity:0.953" fill="#bc8a4e" d="M 337.5,158.5 C 327.807,171.513 317.474,183.846 306.5,195.5C 307.043,192.782 307.709,190.115 308.5,187.5C 315.148,179.169 321.815,170.836 328.5,162.5C 331.088,160.408 334.088,159.075 337.5,158.5 Z"/></g>
<g><path style="opacity:0.978" fill="#d69e5c" d="M 347.5,157.5 C 348.404,158.209 348.737,159.209 348.5,160.5C 336.664,174.842 324.831,189.176 313,203.5C 311.991,205.025 311.491,206.692 311.5,208.5C 309.585,208.784 307.919,208.451 306.5,207.5C 320.634,191.241 334.301,174.574 347.5,157.5 Z"/></g>
<g><path style="opacity:0.907" fill="#f0b269" d="M 360.5,158.5 C 362.898,158.259 364.898,158.926 366.5,160.5C 365.25,162.932 363.75,165.266 362,167.5C 358.365,171.841 354.532,175.841 350.5,179.5C 350.5,176.5 350.5,173.5 350.5,170.5C 354.18,166.817 357.514,162.817 360.5,158.5 Z"/></g>
<g><path style="opacity:0.951" fill="#f7b76b" d="M 366.5,160.5 C 376.338,163.67 383.338,170.003 387.5,179.5C 380.167,189.167 372.833,198.833 365.5,208.5C 360.5,208.5 355.5,208.5 350.5,208.5C 350.5,198.833 350.5,189.167 350.5,179.5C 354.532,175.841 358.365,171.841 362,167.5C 363.75,165.266 365.25,162.932 366.5,160.5 Z"/></g>
<g><path style="opacity:0.972" fill="#dda35f" d="M 348.5,160.5 C 348.5,162.167 348.5,163.833 348.5,165.5C 336.412,179.253 325.078,193.586 314.5,208.5C 313.5,208.5 312.5,208.5 311.5,208.5C 311.491,206.692 311.991,205.025 313,203.5C 324.831,189.176 336.664,174.842 348.5,160.5 Z"/></g>
<g><path style="opacity:0.857" fill="#b28148" d="M 328.5,162.5 C 321.815,170.836 315.148,179.169 308.5,187.5C 311.482,176.188 318.149,167.854 328.5,162.5 Z"/></g>
<g><path style="opacity:0.84" fill="#b27c3b" d="M 522.5,159.5 C 526.758,168.281 528.925,177.614 529,187.5C 528.667,187.833 528.333,188.167 528,188.5C 525.707,180.574 521.873,173.574 516.5,167.5C 518.984,165.2 520.984,162.533 522.5,159.5 Z"/></g>
<g><path style="opacity:0.959" fill="#eaad66" d="M 348.5,171.5 C 348.5,173.5 348.5,175.5 348.5,177.5C 341.8,184.5 335.3,191.834 329,199.5C 326.642,202.222 324.809,205.222 323.5,208.5C 321.833,208.5 320.167,208.5 318.5,208.5C 328.128,195.871 338.128,183.538 348.5,171.5 Z"/></g>
<g><path style="opacity:0.952" fill="#f0b269" d="M 348.5,177.5 C 348.5,179.833 348.5,182.167 348.5,184.5C 345.22,187.043 342.387,190.043 340,193.5C 335.988,198.208 332.488,203.208 329.5,208.5C 327.5,208.5 325.5,208.5 323.5,208.5C 324.809,205.222 326.642,202.222 329,199.5C 335.3,191.834 341.8,184.5 348.5,177.5 Z"/></g>
<g><path style="opacity:0.976" fill="#e4a963" d="M 348.5,165.5 C 348.5,167.5 348.5,169.5 348.5,171.5C 338.128,183.538 328.128,195.871 318.5,208.5C 317.167,208.5 315.833,208.5 314.5,208.5C 325.078,193.586 336.412,179.253 348.5,165.5 Z"/></g>
<g><path style="opacity:0.955" fill="#f0b166" d="M 387.5,179.5 C 389.205,182.261 390.538,185.261 391.5,188.5C 385.708,194.723 380.374,201.39 375.5,208.5C 372.167,208.5 368.833,208.5 365.5,208.5C 372.833,198.833 380.167,189.167 387.5,179.5 Z"/></g>
<g><path style="opacity:0.882" fill="#f7b86c" d="M 348.5,184.5 C 348.5,192.5 348.5,200.5 348.5,208.5C 342.167,208.5 335.833,208.5 329.5,208.5C 332.488,203.208 335.988,198.208 340,193.5C 342.387,190.043 345.22,187.043 348.5,184.5 Z"/></g>
<g><path style="opacity:0.916" fill="#e9ab61" d="M 391.5,188.5 C 392.331,195.131 392.664,201.798 392.5,208.5C 386.833,208.5 381.167,208.5 375.5,208.5C 380.374,201.39 385.708,194.723 391.5,188.5 Z"/></g>
<g><path style="opacity:0.979" fill="#e3a862" d="M 315.5,210.5 C 312.818,214.507 309.818,218.173 306.5,221.5C 306.5,217.833 306.5,214.167 306.5,210.5C 309.5,210.5 312.5,210.5 315.5,210.5 Z"/></g>
<g><path style="opacity:0.931" fill="#efb269" d="M 315.5,210.5 C 319.167,210.5 322.833,210.5 326.5,210.5C 320.151,218.842 313.484,226.842 306.5,234.5C 306.5,230.167 306.5,225.833 306.5,221.5C 309.818,218.173 312.818,214.507 315.5,210.5 Z"/></g>
<g><path style="opacity:0.962" fill="#f8b86c" d="M 326.5,210.5 C 333.833,210.5 341.167,210.5 348.5,210.5C 348.5,214.167 348.5,217.833 348.5,221.5C 337.127,233.909 326.46,246.909 316.5,260.5C 313.167,260.5 309.833,260.5 306.5,260.5C 306.5,251.833 306.5,243.167 306.5,234.5C 313.484,226.842 320.151,218.842 326.5,210.5 Z"/></g>
<g><path style="opacity:0.934" fill="#f1b266" d="M 372.5,210.5 C 366.856,217.655 361.356,224.988 356,232.5C 354.25,234.424 352.417,236.091 350.5,237.5C 350.5,228.5 350.5,219.5 350.5,210.5C 357.833,210.5 365.167,210.5 372.5,210.5 Z"/></g>
<g><path style="opacity:0.96" fill="#eaac62" d="M 372.5,210.5 C 375.5,210.5 378.5,210.5 381.5,210.5C 372.524,221.814 363.524,233.148 354.5,244.5C 353.412,245.934 352.078,246.934 350.5,247.5C 350.5,244.167 350.5,240.833 350.5,237.5C 352.417,236.091 354.25,234.424 356,232.5C 361.356,224.988 366.856,217.655 372.5,210.5 Z"/></g>
<g><path style="opacity:0.963" fill="#e5a75e" d="M 381.5,210.5 C 383.167,210.5 384.833,210.5 386.5,210.5C 375.17,225.487 363.17,239.821 350.5,253.5C 350.5,251.5 350.5,249.5 350.5,247.5C 352.078,246.934 353.412,245.934 354.5,244.5C 363.524,233.148 372.524,221.814 381.5,210.5 Z"/></g>
<g><path style="opacity:0.969" fill="#e1a45b" d="M 386.5,210.5 C 388.167,210.5 389.833,210.5 391.5,210.5C 378.5,227.167 365.5,243.833 352.5,260.5C 351.883,260.389 351.383,260.056 351,259.5C 350.505,257.527 350.338,255.527 350.5,253.5C 363.17,239.821 375.17,225.487 386.5,210.5 Z"/></g>
<g><path style="opacity:0.961" fill="#dda058" d="M 391.5,210.5 C 392.468,212.607 392.802,214.941 392.5,217.5C 380.083,231.248 368.416,245.581 357.5,260.5C 355.833,260.5 354.167,260.5 352.5,260.5C 365.5,243.833 378.5,227.167 391.5,210.5 Z"/></g>
<g><path style="opacity:0.952" fill="#d79b55" d="M 392.5,217.5 C 392.5,220.167 392.5,222.833 392.5,225.5C 382.448,236.61 373.115,248.277 364.5,260.5C 362.167,260.5 359.833,260.5 357.5,260.5C 368.416,245.581 380.083,231.248 392.5,217.5 Z"/></g>
<g><path style="opacity:0.942" fill="#f4b569" d="M 348.5,221.5 C 348.5,224.167 348.5,226.833 348.5,229.5C 339.449,239.276 331.116,249.609 323.5,260.5C 321.167,260.5 318.833,260.5 316.5,260.5C 326.46,246.909 337.127,233.909 348.5,221.5 Z"/></g>
<g><path style="opacity:0.924" fill="#f0b166" d="M 348.5,229.5 C 348.5,233.833 348.5,238.167 348.5,242.5C 343.034,248.091 338.034,254.091 333.5,260.5C 330.167,260.5 326.833,260.5 323.5,260.5C 331.116,249.609 339.449,239.276 348.5,229.5 Z"/></g>
<g><path style="opacity:0.947" fill="#d19651" d="M 392.5,225.5 C 392.5,228.167 392.5,230.833 392.5,233.5C 386.198,240.643 380.031,247.976 374,255.5C 372.906,257.078 372.072,258.745 371.5,260.5C 369.167,260.5 366.833,260.5 364.5,260.5C 373.115,248.277 382.448,236.61 392.5,225.5 Z"/></g>
<g><path style="opacity:0.922" fill="#cb924d" d="M 392.5,233.5 C 392.5,236.167 392.5,238.833 392.5,241.5C 386.78,247.279 381.78,253.613 377.5,260.5C 375.5,260.5 373.5,260.5 371.5,260.5C 372.072,258.745 372.906,257.078 374,255.5C 380.031,247.976 386.198,240.643 392.5,233.5 Z"/></g>
<g><path style="opacity:0.857" fill="#c48b48" d="M 392.5,241.5 C 392.5,247.833 392.5,254.167 392.5,260.5C 387.5,260.5 382.5,260.5 377.5,260.5C 381.78,253.613 386.78,247.279 392.5,241.5 Z"/></g>
<g><path style="opacity:0.85" fill="#e9ab61" d="M 348.5,242.5 C 348.5,248.5 348.5,254.5 348.5,260.5C 343.5,260.5 338.5,260.5 333.5,260.5C 338.034,254.091 343.034,248.091 348.5,242.5 Z"/></g>
<g><path style="opacity:0.926" fill="#f5ba70" d="M 342.5,535.5 C 347.167,535.5 351.833,535.5 356.5,535.5C 356.5,539.833 356.5,544.167 356.5,548.5C 351.833,548.5 347.167,548.5 342.5,548.5C 342.5,544.167 342.5,539.833 342.5,535.5 Z"/></g>
<g><path style="opacity:0.942" fill="#d19345" d="M 212.5,551.5 C 210.218,556.624 208.551,561.957 207.5,567.5C 206.167,567.833 204.833,568.167 203.5,568.5C 199.697,565.107 198.031,560.773 198.5,555.5C 202.802,553.297 207.469,551.964 212.5,551.5 Z"/></g>
<g><path style="opacity:0.938" fill="#d49949" d="M 212.5,551.5 C 214.167,551.5 215.833,551.5 217.5,551.5C 214.445,555.998 212.778,560.998 212.5,566.5C 210.784,566.629 209.117,566.962 207.5,567.5C 208.551,561.957 210.218,556.624 212.5,551.5 Z"/></g>
<g><path style="opacity:0.939" fill="#d8a04f" d="M 217.5,551.5 C 229.867,552.841 239.534,558.507 246.5,568.5C 244.409,568.682 242.409,568.348 240.5,567.5C 237.972,568.498 237.972,569.331 240.5,570C 239.137,572.129 239.471,572.629 241.5,571.5C 241.109,572.718 241.776,573.552 243.5,574C 240.724,575.779 241.057,576.779 244.5,577C 243.667,577.833 242.833,578.667 242,579.5C 241,578.5 240,577.5 239,576.5C 237.855,577.684 236.688,577.684 235.5,576.5C 229.416,569.627 221.749,566.293 212.5,566.5C 212.778,560.998 214.445,555.998 217.5,551.5 Z"/></g>
<g><path style="opacity:0.907" fill="#e5ad60" d="M 292.5,551.5 C 285.65,554.32 282.65,559.32 283.5,566.5C 275.721,568.71 273.388,573.71 276.5,581.5C 271.808,583.578 267.475,585.578 263.5,587.5C 262.833,586.167 262.167,584.833 261.5,583.5C 263.473,582.205 265.473,580.872 267.5,579.5C 269.192,575.283 271.526,571.45 274.5,568C 274.745,563.871 274.078,559.704 272.5,555.5C 278.654,552.269 285.321,550.936 292.5,551.5 Z"/></g>
<g><path style="opacity:0.93" fill="#eab267" d="M 292.5,551.5 C 295.833,551.5 299.167,551.5 302.5,551.5C 301.284,553.451 299.618,554.951 297.5,556C 297.5,557.667 297.5,559.333 297.5,561C 298.167,561.333 298.833,561.667 299.5,562C 299.836,563.629 299.17,565.129 297.5,566.5C 292.833,566.5 288.167,566.5 283.5,566.5C 282.65,559.32 285.65,554.32 292.5,551.5 Z"/></g>
<g><path style="opacity:0.903" fill="#eeb76d" d="M 302.5,551.5 C 308.167,551.5 313.833,551.5 319.5,551.5C 316.803,553.249 313.97,554.916 311,556.5C 311.148,557.825 310.982,558.992 310.5,560C 313.851,561.825 314.184,563.992 311.5,566.5C 306.833,566.5 302.167,566.5 297.5,566.5C 299.17,565.129 299.836,563.629 299.5,562C 298.833,561.667 298.167,561.333 297.5,561C 297.5,559.333 297.5,557.667 297.5,556C 299.618,554.951 301.284,553.451 302.5,551.5 Z"/></g>
<g><path style="opacity:0.928" fill="#f7c27d" d="M 408.5,552.5 C 408.701,557.907 409.368,563.24 410.5,568.5C 404.262,566.376 397.929,566.043 391.5,567.5C 392.498,565.55 392.332,563.55 391,561.5C 390.667,561.833 390.333,562.167 390,562.5C 387.81,558.828 384.643,556.828 380.5,556.5C 389.333,551.918 398.666,550.584 408.5,552.5 Z"/></g>
<g><path style="opacity:0.935" fill="#e5af67" d="M 490.5,552.5 C 490.291,557.409 489.957,562.075 489.5,566.5C 478.093,565.375 469.093,569.375 462.5,578.5C 459.833,577.166 457.166,575.832 454.5,574.5C 452.803,574.899 451.137,575.399 449.5,576C 448.512,578.167 447.179,580 445.5,581.5C 445.846,577.148 447.512,573.481 450.5,570.5C 452.713,567.789 455.546,566.123 459,565.5C 460.217,566.386 461.551,567.386 463,568.5C 464.425,567.788 465.925,567.621 467.5,568C 469.647,564.885 472.147,562.052 475,559.5C 477.091,560.5 478.757,559.833 480,557.5C 482.081,555.443 481.914,553.777 479.5,552.5C 483.065,551.213 486.732,551.213 490.5,552.5 Z"/></g>
<g><path style="opacity:0.93" fill="#e8b36c" d="M 479.5,552.5 C 481.914,553.777 482.081,555.443 480,557.5C 478.757,559.833 477.091,560.5 475,559.5C 472.147,562.052 469.647,564.885 467.5,568C 465.925,567.621 464.425,567.788 463,568.5C 461.551,567.386 460.217,566.386 459,565.5C 455.546,566.123 452.713,567.789 450.5,570.5C 457.135,559.679 466.802,553.679 479.5,552.5 Z"/></g>
<g><path style="opacity:0.914" fill="#dea55c" d="M 490.5,552.5 C 492.099,552.232 493.432,552.566 494.5,553.5C 494.05,558.202 493.383,562.868 492.5,567.5C 491.209,567.737 490.209,567.404 489.5,566.5C 489.957,562.075 490.291,557.409 490.5,552.5 Z"/></g>
<g><path style="opacity:0.936" fill="#f8c27c" d="M 356.5,565.5 C 353.374,564.762 352.04,563.095 352.5,560.5C 350.067,561.73 347.567,562.73 345,563.5C 344.583,562.244 343.75,561.577 342.5,561.5C 342.5,558.167 342.5,554.833 342.5,551.5C 350.892,552.559 355.559,557.225 356.5,565.5 Z"/></g>
<g><path style="opacity:0.911" fill="#d89d55" d="M 494.5,553.5 C 504.018,555.361 511.352,560.361 516.5,568.5C 513.74,567.256 511.073,565.756 508.5,564C 509.696,563.346 509.696,562.846 508.5,562.5C 506.19,564.899 503.69,566.233 501,566.5C 500.333,567.167 500.333,567.833 501,568.5C 501.654,567.304 502.154,567.304 502.5,568.5C 501.807,569.518 501.141,570.518 500.5,571.5C 497.86,570.18 495.193,568.847 492.5,567.5C 493.383,562.868 494.05,558.202 494.5,553.5 Z"/></g>
<g><path style="opacity:0.944" fill="#f1b66e" d="M 408.5,552.5 C 419.736,555.789 428.403,562.456 434.5,572.5C 433.038,573.458 431.705,574.624 430.5,576C 431.549,576.492 432.549,576.326 433.5,575.5C 434.696,575.846 434.696,576.346 433.5,577C 429.265,577.357 425.265,577.857 421.5,578.5C 418.442,574.475 414.775,571.142 410.5,568.5C 409.368,563.24 408.701,557.907 408.5,552.5 Z"/></g>
<g><path style="opacity:0.92" fill="#f4bc75" d="M 319.5,551.5 C 324.833,551.5 330.167,551.5 335.5,551.5C 335.512,558.643 332.179,563.476 325.5,566C 320.845,566.499 316.179,566.666 311.5,566.5C 314.184,563.992 313.851,561.825 310.5,560C 310.982,558.992 311.148,557.825 311,556.5C 313.97,554.916 316.803,553.249 319.5,551.5 Z"/></g>
<g><path style="opacity:0.965" fill="#f8c17b" d="M 380.5,556.5 C 384.643,556.828 387.81,558.828 390,562.5C 390.333,562.167 390.667,561.833 391,561.5C 392.332,563.55 392.498,565.55 391.5,567.5C 384.584,570.42 379.25,575.087 375.5,581.5C 371.091,579.797 366.757,577.797 362.5,575.5C 366.446,567.221 372.446,560.887 380.5,556.5 Z"/></g>
<g><path style="opacity:0.93" fill="#d79f4d" d="M 192.5,558.5 C 193.162,563.488 195.162,567.821 198.5,571.5C 197.167,573.167 195.833,574.833 194.5,576.5C 190.728,573.377 186.728,570.711 182.5,568.5C 184.833,564.167 188.167,560.833 192.5,558.5 Z"/></g>
<g><path style="opacity:0.986" fill="#d49949" d="M 198.5,555.5 C 198.031,560.773 199.697,565.107 203.5,568.5C 202.101,569.89 200.434,570.89 198.5,571.5C 195.162,567.821 193.162,563.488 192.5,558.5C 194.216,556.975 196.216,555.975 198.5,555.5 Z"/></g>
<g><path style="opacity:0.918" fill="#e2a85a" d="M 272.5,555.5 C 274.078,559.704 274.745,563.871 274.5,568C 271.526,571.45 269.192,575.283 267.5,579.5C 265.473,580.872 263.473,582.205 261.5,583.5C 259.409,575.331 260.576,567.665 265,560.5C 267.128,558.192 269.628,556.526 272.5,555.5 Z"/></g>
<g><path style="opacity:0.936" fill="#d59e55" d="M 516.5,568.5 C 517.5,568.833 518.167,569.5 518.5,570.5C 517.022,570.238 515.689,570.571 514.5,571.5C 517.028,572.517 517.028,573.684 514.5,575C 516.957,576.154 516.957,577.488 514.5,579C 515.308,579.308 515.975,579.808 516.5,580.5C 515.52,581.981 514.353,583.315 513,584.5C 514.07,587.222 513.237,589.388 510.5,591C 512.912,592.836 512.578,594.336 509.5,595.5C 510.402,585.981 507.402,577.981 500.5,571.5C 501.141,570.518 501.807,569.518 502.5,568.5C 502.154,567.304 501.654,567.304 501,568.5C 500.333,567.833 500.333,567.167 501,566.5C 503.69,566.233 506.19,564.899 508.5,562.5C 509.696,562.846 509.696,563.346 508.5,564C 511.073,565.756 513.74,567.256 516.5,568.5 Z"/></g>
<g><path style="opacity:0.987" fill="#f9c079" d="M 356.5,565.5 C 356.5,567.833 356.5,570.167 356.5,572.5C 352.828,569.997 349.161,569.997 345.5,572.5C 344.707,571.645 345.04,570.811 346.5,570C 345.072,569.421 343.738,569.588 342.5,570.5C 342.5,567.5 342.5,564.5 342.5,561.5C 343.75,561.577 344.583,562.244 345,563.5C 347.567,562.73 350.067,561.73 352.5,560.5C 352.04,563.095 353.374,564.762 356.5,565.5 Z"/></g>
<g><path style="opacity:0.932" fill="#db9f51" d="M 246.5,568.5 C 250.749,572.887 253.082,578.22 253.5,584.5C 251.938,584.733 250.605,585.4 249.5,586.5C 249.265,585.903 248.765,585.57 248,585.5C 244.749,586.982 241.415,588.316 238,589.5C 234.062,589.432 230.062,589.432 226,589.5C 222.814,587.678 219.98,586.011 217.5,584.5C 224.532,584.83 231.532,584.497 238.5,583.5C 237.68,581.026 236.68,578.693 235.5,576.5C 236.688,577.684 237.855,577.684 239,576.5C 240,577.5 241,578.5 242,579.5C 242.833,578.667 243.667,577.833 244.5,577C 241.057,576.779 240.724,575.779 243.5,574C 241.776,573.552 241.109,572.718 241.5,571.5C 239.471,572.629 239.137,572.129 240.5,570C 237.972,569.331 237.972,568.498 240.5,567.5C 242.409,568.348 244.409,568.682 246.5,568.5 Z"/></g>
<g><path style="opacity:0.954" fill="#d29e53" d="M 518.5,570.5 C 523.165,578.161 525.165,586.494 524.5,595.5C 522.847,593.161 521.513,593.661 520.5,597C 521.308,597.308 521.975,597.808 522.5,598.5C 521.876,600.754 520.543,602.421 518.5,603.5C 520.798,605.485 520.632,607.485 518,609.5C 517.333,608.833 516.667,608.167 516,607.5C 514.981,608.687 513.814,609.687 512.5,610.5C 511.787,608.565 510.787,608.232 509.5,609.5C 509.5,604.833 509.5,600.167 509.5,595.5C 512.578,594.336 512.912,592.836 510.5,591C 513.237,589.388 514.07,587.222 513,584.5C 514.353,583.315 515.52,581.981 516.5,580.5C 515.975,579.808 515.308,579.308 514.5,579C 516.957,577.488 516.957,576.154 514.5,575C 517.028,573.684 517.028,572.517 514.5,571.5C 515.689,570.571 517.022,570.238 518.5,570.5 Z"/></g>
<g><path style="opacity:0.98" fill="#f9bc73" d="M 356.5,572.5 C 356.5,580.833 356.5,589.167 356.5,597.5C 351.566,596.031 346.9,594.031 342.5,591.5C 342.5,584.5 342.5,577.5 342.5,570.5C 343.738,569.588 345.072,569.421 346.5,570C 345.04,570.811 344.707,571.645 345.5,572.5C 349.161,569.997 352.828,569.997 356.5,572.5 Z"/></g>
<g><path style="opacity:0.929" fill="#d29446" d="M 182.5,568.5 C 186.728,570.711 190.728,573.377 194.5,576.5C 192.783,578.766 191.449,581.266 190.5,584C 193.146,584.497 195.813,584.664 198.5,584.5C 198.376,586.582 197.376,588.082 195.5,589C 188.413,589.25 181.413,590.083 174.5,591.5C 174.409,582.768 177.076,575.101 182.5,568.5 Z"/></g>
<g><path style="opacity:0.962" fill="#edb771" d="M 434.5,572.5 C 436.226,576.009 437.559,579.675 438.5,583.5C 434.09,585.773 429.423,587.44 424.5,588.5C 423.503,585.183 422.503,581.85 421.5,578.5C 425.265,577.857 429.265,577.357 433.5,577C 434.696,576.346 434.696,575.846 433.5,575.5C 432.549,576.326 431.549,576.492 430.5,576C 431.705,574.624 433.038,573.458 434.5,572.5 Z"/></g>
<g><path style="opacity:0.953" fill="#e2a75e" d="M 462.5,578.5 C 459.85,585.209 458.85,592.209 459.5,599.5C 456.458,600.681 453.458,602.015 450.5,603.5C 449.914,603.291 449.414,602.957 449,602.5C 447.951,604.618 446.451,606.284 444.5,607.5C 444.197,598.749 444.53,590.082 445.5,581.5C 447.179,580 448.512,578.167 449.5,576C 451.137,575.399 452.803,574.899 454.5,574.5C 457.166,575.832 459.833,577.166 462.5,578.5 Z"/></g>
<g><path style="opacity:0.944" fill="#f7ba70" d="M 362.5,575.5 C 366.757,577.797 371.091,579.797 375.5,581.5C 373.464,587.412 373.131,593.412 374.5,599.5C 371.864,598.881 369.364,597.881 367,596.5C 364.712,596.737 362.212,596.737 359.5,596.5C 358.85,589.204 359.85,582.204 362.5,575.5 Z"/></g>
<g><path style="opacity:0.906" fill="#eab267" d="M 276.5,581.5 C 278.913,583.051 281.579,583.717 284.5,583.5C 279.841,586.292 274.841,588.459 269.5,590C 271.719,591.763 273.719,593.763 275.5,596C 275.272,596.399 274.938,596.565 274.5,596.5C 269.458,595.15 265.792,592.15 263.5,587.5C 267.475,585.578 271.808,583.578 276.5,581.5 Z"/></g>
<g><path style="opacity:0.912" fill="#efb76d" d="M 284.5,583.5 C 287.833,583.5 291.167,583.5 294.5,583.5C 294.047,584.458 293.381,585.292 292.5,586C 290.559,586.304 288.893,587.137 287.5,588.5C 286.914,588.291 286.414,587.957 286,587.5C 284.786,589.049 283.286,590.215 281.5,591C 284.203,592.288 286.869,594.288 289.5,597C 288.944,597.383 288.611,597.883 288.5,598.5C 283.547,598.877 278.881,598.211 274.5,596.5C 274.938,596.565 275.272,596.399 275.5,596C 273.719,593.763 271.719,591.763 269.5,590C 274.841,588.459 279.841,586.292 284.5,583.5 Z"/></g>
<g><path style="opacity:0.938" fill="#f7c07a" d="M 311.5,583.5 C 323.996,582.574 332.996,587.574 338.5,598.5C 331.666,598.166 325.166,596.499 319,593.5C 313.927,594.052 308.927,594.718 304,595.5C 300.78,594.659 298.28,592.992 296.5,590.5C 301.503,588.801 306.503,586.467 311.5,583.5 Z"/></g>
<g><path style="opacity:0.94" fill="#d79f4d" d="M 198.5,584.5 C 201.833,584.5 205.167,584.5 208.5,584.5C 208.804,585.15 209.137,585.817 209.5,586.5C 206.559,590.727 203.892,595.06 201.5,599.5C 197.818,599.335 194.152,599.501 190.5,600C 191.406,602.221 192.406,604.388 193.5,606.5C 191.736,607.712 190.07,607.379 188.5,605.5C 185.735,608.042 183.735,611.042 182.5,614.5C 177.087,607.933 174.42,600.267 174.5,591.5C 181.413,590.083 188.413,589.25 195.5,589C 197.376,588.082 198.376,586.582 198.5,584.5 Z"/></g>
<g><path style="opacity:0.967" fill="#dba353" d="M 208.5,584.5 C 211.5,584.5 214.5,584.5 217.5,584.5C 219.98,586.011 222.814,587.678 226,589.5C 230.062,589.432 234.062,589.432 238,589.5C 241.415,588.316 244.749,586.982 248,585.5C 248.765,585.57 249.265,585.903 249.5,586.5C 242.471,590.336 234.805,592.502 226.5,593C 228.081,593.707 229.581,594.54 231,595.5C 231.333,595.167 231.667,594.833 232,594.5C 234.824,595.818 237.324,597.485 239.5,599.5C 226.833,599.5 214.167,599.5 201.5,599.5C 203.892,595.06 206.559,590.727 209.5,586.5C 209.137,585.817 208.804,585.15 208.5,584.5 Z"/></g>
<g><path style="opacity:1" fill="#f2bb73" d="M 294.5,583.5 C 300.167,583.5 305.833,583.5 311.5,583.5C 306.503,586.467 301.503,588.801 296.5,590.5C 293.539,589.796 293.206,590.463 295.5,592.5C 295.023,593.478 294.357,594.311 293.5,595C 295.432,596.459 297.432,597.625 299.5,598.5C 295.833,598.5 292.167,598.5 288.5,598.5C 288.611,597.883 288.944,597.383 289.5,597C 286.869,594.288 284.203,592.288 281.5,591C 283.286,590.215 284.786,589.049 286,587.5C 286.414,587.957 286.914,588.291 287.5,588.5C 288.893,587.137 290.559,586.304 292.5,586C 293.381,585.292 294.047,584.458 294.5,583.5 Z"/></g>
<g><path style="opacity:0.951" fill="#e2a95b" d="M 253.5,584.5 C 254.487,589.305 254.821,594.305 254.5,599.5C 249.5,599.5 244.5,599.5 239.5,599.5C 237.324,597.485 234.824,595.818 232,594.5C 231.667,594.833 231.333,595.167 231,595.5C 229.581,594.54 228.081,593.707 226.5,593C 234.805,592.502 242.471,590.336 249.5,586.5C 250.605,585.4 251.938,584.733 253.5,584.5 Z"/></g>
<g><path style="opacity:0.956" fill="#e6ab62" d="M 438.5,583.5 C 438.833,586.167 439.167,588.833 439.5,591.5C 436.845,592.467 436.178,594.133 437.5,596.5C 436.167,598.167 434.833,599.833 433.5,601.5C 434.101,603.725 434.434,605.891 434.5,608C 433.833,610.333 433.167,612.667 432.5,615C 433.167,615.333 433.833,615.667 434.5,616C 434.165,617.503 434.165,618.836 434.5,620C 436.154,620.608 437.821,621.108 439.5,621.5C 440.091,622.151 440.757,622.818 441.5,623.5C 438.673,625.641 436.007,625.641 433.5,623.5C 430.975,617.426 429.975,611.259 430.5,605C 428.494,602.952 427.494,603.452 427.5,606.5C 427.672,607.492 427.338,608.158 426.5,608.5C 425,606.692 423.333,605.026 421.5,603.5C 423.88,598.819 424.88,593.819 424.5,588.5C 429.423,587.44 434.09,585.773 438.5,583.5 Z"/></g>
<g><path style="opacity:0.936" fill="#f8bd74" d="M 296.5,590.5 C 298.28,592.992 300.78,594.659 304,595.5C 308.927,594.718 313.927,594.052 319,593.5C 325.166,596.499 331.666,598.166 338.5,598.5C 340.423,603.561 340.923,608.895 340,614.5C 339.576,617.025 338.41,619.025 336.5,620.5C 332.505,618.835 328.505,617.168 324.5,615.5C 325.219,613.236 325.552,610.903 325.5,608.5C 329.308,608.837 332.974,608.337 336.5,607C 337.833,605.333 337.833,603.667 336.5,602C 329.293,600.24 322.127,598.407 315,596.5C 312.97,596.954 311.137,597.62 309.5,598.5C 306.167,598.5 302.833,598.5 299.5,598.5C 297.432,597.625 295.432,596.459 293.5,595C 294.357,594.311 295.023,593.478 295.5,592.5C 293.206,590.463 293.539,589.796 296.5,590.5 Z"/></g>
<g><path style="opacity:0.969" fill="#f8c27d" d="M 342.5,591.5 C 346.9,594.031 351.566,596.031 356.5,597.5C 356.5,603.5 356.5,609.5 356.5,615.5C 354.689,615.572 353.356,616.405 352.5,618C 350.366,621.901 349.366,626.068 349.5,630.5C 345.512,628.888 343.179,625.888 342.5,621.5C 344.65,615.251 347.317,609.085 350.5,603C 348.69,599.928 346.024,598.095 342.5,597.5C 342.5,595.5 342.5,593.5 342.5,591.5 Z"/></g>
<g><path style="opacity:0.92" fill="#f8ba6f" d="M 325.5,608.5 C 326.178,604.727 324.844,601.894 321.5,600C 317.605,598.734 313.605,598.234 309.5,598.5C 311.137,597.62 312.97,596.954 315,596.5C 322.127,598.407 329.293,600.24 336.5,602C 337.833,603.667 337.833,605.333 336.5,607C 332.974,608.337 329.308,608.837 325.5,608.5 Z"/></g>
<g><path style="opacity:0.97" fill="#f9bf79" d="M 342.5,597.5 C 346.024,598.095 348.69,599.928 350.5,603C 347.317,609.085 344.65,615.251 342.5,621.5C 342.5,613.5 342.5,605.5 342.5,597.5 Z"/></g>
<g><path style="opacity:0.95" fill="#f6c17c" d="M 359.5,596.5 C 362.212,596.737 364.712,596.737 367,596.5C 369.364,597.881 371.864,598.881 374.5,599.5C 376.047,603.576 378.38,607.243 381.5,610.5C 376.159,611.489 370.493,611.655 364.5,611C 361.381,606.705 359.715,601.871 359.5,596.5 Z"/></g>
<g><path style="opacity:0.954" fill="#dca058" d="M 459.5,599.5 C 459.5,603.833 459.5,608.167 459.5,612.5C 455.651,613.108 451.817,613.441 448,613.5C 447.5,612.333 446.667,611.5 445.5,611C 446.712,609.893 446.379,609.393 444.5,609.5C 444.5,608.833 444.5,608.167 444.5,607.5C 446.451,606.284 447.951,604.618 449,602.5C 449.414,602.957 449.914,603.291 450.5,603.5C 453.458,602.015 456.458,600.681 459.5,599.5 Z"/></g>
<g><path style="opacity:0.938" fill="#e9b36c" d="M 421.5,603.5 C 423.333,605.026 425,606.692 426.5,608.5C 426.793,612.736 427.293,617.069 428,621.5C 426.226,618.556 423.726,616.556 420.5,615.5C 420.607,613.621 420.107,613.288 419,614.5C 418.333,613.833 417.667,613.167 417,612.5C 416.023,613.774 415.189,613.774 414.5,612.5C 417.185,609.81 419.518,606.81 421.5,603.5 Z"/></g>
<g><path style="opacity:0.956" fill="#e4b068" d="M 427.5,606.5 C 428.619,612.244 429.953,618.077 431.5,624C 432.901,628.325 435.234,629.159 438.5,626.5C 439.308,626.808 439.975,627.308 440.5,628C 439.025,630.309 437.358,632.476 435.5,634.5C 434.808,633.975 434.308,633.308 434,632.5C 428.979,638.02 424.146,643.686 419.5,649.5C 414.28,653.407 409.613,657.741 405.5,662.5C 398.043,663.3 391.043,661.967 384.5,658.5C 386.424,656.91 386.757,655.076 385.5,653C 387.389,650.618 389.055,648.118 390.5,645.5C 400.033,648.846 409.033,647.846 417.5,642.5C 417.897,643.525 418.563,643.692 419.5,643C 421.571,640.588 423.904,638.588 426.5,637C 430.972,633.252 431.472,629.085 428,624.5C 426.31,621.976 424.143,619.976 421.5,618.5C 420.873,617.583 420.539,616.583 420.5,615.5C 423.726,616.556 426.226,618.556 428,621.5C 427.293,617.069 426.793,612.736 426.5,608.5C 427.338,608.158 427.672,607.492 427.5,606.5 Z"/></g>
<g><path style="opacity:0.899" fill="#dfa55d" d="M 439.5,591.5 C 439.334,600.506 439.5,609.506 440,618.5C 441.333,617.833 442.667,617.167 444,616.5C 444.497,614.19 444.663,611.857 444.5,609.5C 446.379,609.393 446.712,609.893 445.5,611C 446.667,611.5 447.5,612.333 448,613.5C 451.817,613.441 455.651,613.108 459.5,612.5C 459.5,613.5 459.5,614.5 459.5,615.5C 453.182,618.112 446.516,620.112 439.5,621.5C 437.821,621.108 436.154,620.608 434.5,620C 434.165,618.836 434.165,617.503 434.5,616C 433.833,615.667 433.167,615.333 432.5,615C 433.167,612.667 433.833,610.333 434.5,608C 434.434,605.891 434.101,603.725 433.5,601.5C 434.833,599.833 436.167,598.167 437.5,596.5C 436.178,594.133 436.845,592.467 439.5,591.5 Z"/></g>
<g><path style="opacity:0.922" fill="#dba553" d="M 193.5,606.5 C 197.502,611.811 202.835,615.144 209.5,616.5C 207.137,619.854 204.137,622.52 200.5,624.5C 201.025,625.192 201.692,625.692 202.5,626C 201.044,626.423 200.544,627.256 201,628.5C 201.333,628.167 201.667,627.833 202,627.5C 202.5,628.667 203.333,629.5 204.5,630C 203.944,630.383 203.611,630.883 203.5,631.5C 194.398,628.396 187.398,622.729 182.5,614.5C 183.735,611.042 185.735,608.042 188.5,605.5C 190.07,607.379 191.736,607.712 193.5,606.5 Z"/></g>
<g><path style="opacity:0.889" fill="#cd9b4d" d="M 524.5,595.5 C 524.5,607.833 524.5,620.167 524.5,632.5C 516.598,632.141 511.765,628.141 510,620.5C 509.501,616.848 509.335,613.182 509.5,609.5C 510.787,608.232 511.787,608.565 512.5,610.5C 513.814,609.687 514.981,608.687 516,607.5C 516.667,608.167 517.333,608.833 518,609.5C 520.632,607.485 520.798,605.485 518.5,603.5C 520.543,602.421 521.876,600.754 522.5,598.5C 521.975,597.808 521.308,597.308 520.5,597C 521.513,593.661 522.847,593.161 524.5,595.5 Z"/></g>
<g><path style="opacity:0.924" fill="#f9c37e" d="M 324.5,615.5 C 328.505,617.168 332.505,618.835 336.5,620.5C 334.906,623.764 332.573,626.431 329.5,628.5C 326.457,621.481 321.124,618.981 313.5,621C 308.767,623.557 305.767,627.39 304.5,632.5C 296.167,632.5 287.833,632.5 279.5,632.5C 280.166,630.66 280.166,628.993 279.5,627.5C 281.386,627.928 283.219,628.261 285,628.5C 290.893,627.476 295.727,624.809 299.5,620.5C 302.447,619.92 305.114,618.92 307.5,617.5C 313.353,617.949 319.02,617.283 324.5,615.5 Z"/></g>
<g><path style="opacity:0.974" fill="#e8ac63" d="M 410.5,614.5 C 412.214,615.738 414.214,616.405 416.5,616.5C 416.5,617.5 416.5,618.5 416.5,619.5C 419.881,619.54 422.548,620.873 424.5,623.5C 418.734,628.313 412.067,630.98 404.5,631.5C 401.073,629.223 397.406,627.223 393.5,625.5C 392.705,622.856 392.038,620.189 391.5,617.5C 398.129,617.992 404.463,616.992 410.5,614.5 Z"/></g>
<g><path style="opacity:0.908" fill="#dfaa61" d="M 439.5,621.5 C 446.516,620.112 453.182,618.112 459.5,615.5C 459.045,628.469 452.545,633.802 440,631.5C 439.092,635.193 437.592,638.527 435.5,641.5C 434.469,640.751 433.302,640.085 432,639.5C 426.633,643.575 422.3,648.575 419,654.5C 415.791,655.679 413.291,657.679 411.5,660.5C 409.898,662.074 407.898,662.741 405.5,662.5C 409.613,657.741 414.28,653.407 419.5,649.5C 424.146,643.686 428.979,638.02 434,632.5C 434.308,633.308 434.808,633.975 435.5,634.5C 437.358,632.476 439.025,630.309 440.5,628C 439.975,627.308 439.308,626.808 438.5,626.5C 435.234,629.159 432.901,628.325 431.5,624C 429.953,618.077 428.619,612.244 427.5,606.5C 427.494,603.452 428.494,602.952 430.5,605C 429.975,611.259 430.975,617.426 433.5,623.5C 436.007,625.641 438.673,625.641 441.5,623.5C 440.757,622.818 440.091,622.151 439.5,621.5 Z"/></g>
<g><path style="opacity:0.913" fill="#e1aa5a" d="M 209.5,616.5 C 213.768,617.373 218.102,617.706 222.5,617.5C 220.905,620.26 218.572,622.093 215.5,623C 217.891,623.691 217.891,624.691 215.5,626C 217.333,626.5 218.5,627.667 219,629.5C 220.016,628.366 220.683,628.699 221,630.5C 222.073,629.72 223.24,629.887 224.5,631C 223.944,631.383 223.611,631.883 223.5,632.5C 216.745,632.793 210.078,632.46 203.5,631.5C 203.611,630.883 203.944,630.383 204.5,630C 203.333,629.5 202.5,628.667 202,627.5C 201.667,627.833 201.333,628.167 201,628.5C 200.544,627.256 201.044,626.423 202.5,626C 201.692,625.692 201.025,625.192 200.5,624.5C 204.137,622.52 207.137,619.854 209.5,616.5 Z"/></g>
<g><path style="opacity:0.927" fill="#e5ad60" d="M 222.5,617.5 C 228.167,617.5 233.833,617.5 239.5,617.5C 238.922,619.443 237.922,619.777 236.5,618.5C 234.833,620.5 233.167,622.5 231.5,624.5C 233.506,627.006 235.84,629.173 238.5,631C 237.944,631.383 237.611,631.883 237.5,632.5C 232.833,632.5 228.167,632.5 223.5,632.5C 223.611,631.883 223.944,631.383 224.5,631C 223.24,629.887 222.073,629.72 221,630.5C 220.683,628.699 220.016,628.366 219,629.5C 218.5,627.667 217.333,626.5 215.5,626C 217.891,624.691 217.891,623.691 215.5,623C 218.572,622.093 220.905,620.26 222.5,617.5 Z"/></g>
<g><path style="opacity:0.931" fill="#eab267" d="M 239.5,617.5 C 244.833,617.5 250.167,617.5 255.5,617.5C 255.607,619.379 255.107,619.712 254,618.5C 250.341,620.387 246.508,621.887 242.5,623C 244.888,624.861 247.554,626.194 250.5,627C 252.625,628.813 254.625,630.647 256.5,632.5C 250.167,632.5 243.833,632.5 237.5,632.5C 237.611,631.883 237.944,631.383 238.5,631C 235.84,629.173 233.506,627.006 231.5,624.5C 233.167,622.5 234.833,620.5 236.5,618.5C 237.922,619.777 238.922,619.443 239.5,617.5 Z"/></g>
<g><path style="opacity:0.929" fill="#efb76d" d="M 255.5,617.5 C 261.167,617.5 266.833,617.5 272.5,617.5C 272.047,618.458 271.381,619.292 270.5,620C 265.762,621.337 261.095,622.671 256.5,624C 259.912,626.19 262.578,629.023 264.5,632.5C 261.833,632.5 259.167,632.5 256.5,632.5C 254.625,630.647 252.625,628.813 250.5,627C 247.554,626.194 244.888,624.861 242.5,623C 246.508,621.887 250.341,620.387 254,618.5C 255.107,619.712 255.607,619.379 255.5,617.5 Z"/></g>
<g><path style="opacity:0.961" fill="#f7bf79" d="M 296.5,617.5 C 300.167,617.5 303.833,617.5 307.5,617.5C 305.114,618.92 302.447,619.92 299.5,620.5C 295.727,624.809 290.893,627.476 285,628.5C 283.219,628.261 281.386,627.928 279.5,627.5C 280.166,628.993 280.166,630.66 279.5,632.5C 277.5,632.5 275.5,632.5 273.5,632.5C 273.423,631.25 272.756,630.417 271.5,630C 271.833,629.667 272.167,629.333 272.5,629C 270.377,628.185 268.377,627.185 266.5,626C 276.306,623.13 285.973,620.796 295.5,619C 296.056,618.617 296.389,618.117 296.5,617.5 Z"/></g>
<g><path style="opacity:0.925" fill="#efb871" d="M 369.5,617.5 C 376.833,617.5 384.167,617.5 391.5,617.5C 392.038,620.189 392.705,622.856 393.5,625.5C 397.406,627.223 401.073,629.223 404.5,631.5C 397.922,632.46 391.255,632.793 384.5,632.5C 385.046,629.922 384.379,627.422 382.5,625C 382.833,624.667 383.167,624.333 383.5,624C 382,623.167 380.833,622 380,620.5C 379.667,620.833 379.333,621.167 379,621.5C 376.219,618.848 373.053,618.181 369.5,619.5C 368.537,619.03 368.537,618.363 369.5,617.5 Z"/></g>
<g><path style="opacity:0.957" fill="#f2b66d" d="M 356.5,615.5 C 356.611,616.117 356.944,616.617 357.5,617C 361.486,617.499 365.486,617.666 369.5,617.5C 368.537,618.363 368.537,619.03 369.5,619.5C 373.053,618.181 376.219,618.848 379,621.5C 379.333,621.167 379.667,620.833 380,620.5C 380.833,622 382,623.167 383.5,624C 383.167,624.333 382.833,624.667 382.5,625C 384.379,627.422 385.046,629.922 384.5,632.5C 373.495,632.667 362.495,632.5 351.5,632C 350.584,631.722 349.918,631.222 349.5,630.5C 349.366,626.068 350.366,621.901 352.5,618C 353.356,616.405 354.689,615.572 356.5,615.5 Z"/></g>
<g><path style="opacity:0.941" fill="#f9c078" d="M 329.5,628.5 C 321.602,632.034 313.269,633.367 304.5,632.5C 305.767,627.39 308.767,623.557 313.5,621C 321.124,618.981 326.457,621.481 329.5,628.5 Z"/></g>
<g><path style="opacity:1" fill="#f3bc73" d="M 272.5,617.5 C 280.5,617.5 288.5,617.5 296.5,617.5C 296.389,618.117 296.056,618.617 295.5,619C 285.973,620.796 276.306,623.13 266.5,626C 268.377,627.185 270.377,628.185 272.5,629C 272.167,629.333 271.833,629.667 271.5,630C 272.756,630.417 273.423,631.25 273.5,632.5C 270.5,632.5 267.5,632.5 264.5,632.5C 262.578,629.023 259.912,626.19 256.5,624C 261.095,622.671 265.762,621.337 270.5,620C 271.381,619.292 272.047,618.458 272.5,617.5 Z"/></g>
<g><path style="opacity:0.885" fill="#e2ab62" d="M 414.5,612.5 C 415.189,613.774 416.023,613.774 417,612.5C 417.667,613.167 418.333,613.833 419,614.5C 420.107,613.288 420.607,613.621 420.5,615.5C 420.539,616.583 420.873,617.583 421.5,618.5C 424.143,619.976 426.31,621.976 428,624.5C 431.472,629.085 430.972,633.252 426.5,637C 423.904,638.588 421.571,640.588 419.5,643C 418.563,643.692 417.897,643.525 417.5,642.5C 422.386,637.183 424.719,630.85 424.5,623.5C 422.548,620.873 419.881,619.54 416.5,619.5C 416.5,618.5 416.5,617.5 416.5,616.5C 414.214,616.405 412.214,615.738 410.5,614.5C 411.833,613.833 413.167,613.167 414.5,612.5 Z"/></g>
<g><path style="opacity:0.94" fill="#ecb771" d="M 390.5,645.5 C 389.055,648.118 387.389,650.618 385.5,653C 386.757,655.076 386.424,656.91 384.5,658.5C 376.33,653.829 369.996,647.329 365.5,639C 375.3,636.806 383.633,638.973 390.5,645.5 Z"/></g>
<g><path style="opacity:0.935" fill="#dca45b" d="M 435.5,641.5 C 430.446,651.553 422.446,657.887 411.5,660.5C 413.291,657.679 415.791,655.679 419,654.5C 422.3,648.575 426.633,643.575 432,639.5C 433.302,640.085 434.469,640.751 435.5,641.5 Z"/></g>
</svg>
