<?xml version="1.0" encoding="UTF-8"?>
<!DOCTYPE svg PUBLIC "-//W3C//DTD SVG 1.1//EN" "http://www.w3.org/Graphics/SVG/1.1/DTD/svg11.dtd">
<svg xmlns="http://www.w3.org/2000/svg" version="1.1" width="250px" height="250px" style="shape-rendering:geometricPrecision; text-rendering:geometricPrecision; image-rendering:optimizeQuality; fill-rule:evenodd; clip-rule:evenodd" xmlns:xlink="http://www.w3.org/1999/xlink">
<g><path style="opacity:0.376" fill="#253237" d="M 53.5,49.5 C 53.56,48.9569 53.8933,48.6236 54.5,48.5C 55.6139,49.723 55.7805,51.0563 55,52.5C 54.7679,51.2625 54.2679,50.2625 53.5,49.5 Z"/></g>
<g><path style="opacity:0.324" fill="#253237" d="M 75.5,48.5 C 76.5,48.5 77.5,48.5 78.5,48.5C 78.5,49.8333 78.5,51.1667 78.5,52.5C 77.5,52.5 76.5,52.5 75.5,52.5C 75.5,51.1667 75.5,49.8333 75.5,48.5 Z"/></g>
<g><path style="opacity:0.348" fill="#253237" d="M 95.5,49.5 C 96.209,48.596 97.209,48.2627 98.5,48.5C 98.5,49.8333 98.5,51.1667 98.5,52.5C 97.325,52.719 96.325,52.3857 95.5,51.5C 96.5498,50.5712 96.5498,49.9046 95.5,49.5 Z"/></g>
<g><path style="opacity:0.397" fill="#253237" d="M 117.5,48.5 C 120.087,49.3074 120.587,50.6407 119,52.5C 118.25,51.8742 117.416,51.3742 116.5,51C 117.252,50.3292 117.586,49.4959 117.5,48.5 Z"/></g>
<g><path style="opacity:0.371" fill="#253237" d="M 137.5,48.5 C 139.687,49.0485 140.354,50.2152 139.5,52C 138.365,52.7494 137.365,52.5827 136.5,51.5C 137.127,50.5832 137.461,49.5832 137.5,48.5 Z"/></g>
<g><path style="opacity:0.46" fill="#253237" d="M 159.5,48.5 C 160.239,48.369 160.906,48.5357 161.5,49C 161.943,50.5185 161.276,51.6852 159.5,52.5C 158.374,51.1916 158.374,49.8583 159.5,48.5 Z"/></g>
<g><path style="opacity:0.376" fill="#253237" d="M 179.5,48.5 C 180.5,48.5 181.5,48.5 182.5,48.5C 181.562,53.7668 180.562,53.7668 179.5,48.5 Z"/></g>
<g><path style="opacity:0.317" fill="#253237" d="M 207.5,55.5 C 214.771,55.0357 217.604,58.3691 216,65.5C 212,69.5 208,69.5 204,65.5C 202.756,61.191 203.923,57.8577 207.5,55.5 Z M 209.5,56.5 C 215.158,57.9731 216.491,61.1397 213.5,66C 209.258,68.2168 206.258,67.0502 204.5,62.5C 205.497,59.845 207.164,57.845 209.5,56.5 Z"/></g>
<g><path style="opacity:0.324" fill="#253237" d="M 20.5,56.5 C 29.5226,56.0616 32.1893,59.8949 28.5,68C 20.2463,71.0813 16.7463,68.2479 18,59.5C 19.045,58.6266 19.8783,57.6266 20.5,56.5 Z M 22.5,57.5 C 26.1395,57.6366 28.4728,59.4699 29.5,63C 25.779,70.3092 22.1123,70.3092 18.5,63C 19.0074,60.4547 20.3407,58.6214 22.5,57.5 Z"/></g>
<g><path style="opacity:0.935" fill="#ea626b" d="M 97.5,56.5 C 105.5,56.5 113.5,56.5 121.5,56.5C 120.89,57.391 120.557,58.391 120.5,59.5C 119.732,60.2625 119.232,61.2625 119,62.5C 118.586,62.0426 118.086,61.7093 117.5,61.5C 116.831,63.6309 116.165,65.6309 115.5,67.5C 109.5,67.5 103.5,67.5 97.5,67.5C 97.5,63.8333 97.5,60.1667 97.5,56.5 Z"/></g>
<g><path style="opacity:1" fill="#41535b" d="M 134.5,56.5 C 134.557,57.609 134.89,58.609 135.5,59.5C 134.193,60.8016 134.193,62.135 135.5,63.5C 134.975,64.1924 134.308,64.6924 133.5,65C 134.252,65.6708 134.586,66.5041 134.5,67.5C 130.419,69.7395 126.085,70.0728 121.5,68.5C 121.511,66.9826 122.177,65.8159 123.5,65C 121.852,63.5381 120.852,61.7047 120.5,59.5C 120.557,58.391 120.89,57.391 121.5,56.5C 125.833,53.8333 130.167,53.8333 134.5,56.5 Z"/></g>
<g><path style="opacity:1" fill="#f7c7cb" d="M 39.5,57.5 C 44.8333,57.5 50.1667,57.5 55.5,57.5C 55.5,60.8333 55.5,64.1667 55.5,67.5C 49.1579,67.6662 42.8246,67.4995 36.5,67C 33.8333,64 33.8333,61 36.5,58C 37.448,57.5172 38.448,57.3505 39.5,57.5 Z"/></g>
<g><path style="opacity:1" fill="#f3a7ac" d="M 55.5,57.5 C 62.5,57.5 69.5,57.5 76.5,57.5C 76.5,60.8333 76.5,64.1667 76.5,67.5C 69.5,67.5 62.5,67.5 55.5,67.5C 55.5,64.1667 55.5,60.8333 55.5,57.5 Z"/></g>
<g><path style="opacity:0.997" fill="#ef868d" d="M 39.5,57.5 C 58.6595,56.503 77.9928,56.1697 97.5,56.5C 97.5,60.1667 97.5,63.8333 97.5,67.5C 90.5,67.5 83.5,67.5 76.5,67.5C 76.5,64.1667 76.5,60.8333 76.5,57.5C 69.5,57.5 62.5,57.5 55.5,57.5C 50.1667,57.5 44.8333,57.5 39.5,57.5 Z"/></g>
<g><path style="opacity:1" fill="#bc414a" d="M 134.5,56.5 C 142.833,56.5 151.167,56.5 159.5,56.5C 159.5,60.1667 159.5,63.8333 159.5,67.5C 154.167,67.5 148.833,67.5 143.5,67.5C 141.36,65.2995 139.86,62.6328 139,59.5C 137.607,62.1251 136.441,62.1251 135.5,59.5C 134.89,58.609 134.557,57.609 134.5,56.5 Z"/></g>
<g><path style="opacity:1" fill="#8c3037" d="M 159.5,56.5 C 172.344,56.1713 185.011,56.5046 197.5,57.5C 191.833,57.5 186.167,57.5 180.5,57.5C 180.5,60.8333 180.5,64.1667 180.5,67.5C 173.5,67.5 166.5,67.5 159.5,67.5C 159.5,63.8333 159.5,60.1667 159.5,56.5 Z"/></g>
<g><path style="opacity:1" fill="#47181b" d="M 197.5,57.5 C 198.822,57.33 199.989,57.6634 201,58.5C 201.978,61.6693 201.478,64.5027 199.5,67C 193.175,67.4995 186.842,67.6662 180.5,67.5C 180.5,64.1667 180.5,60.8333 180.5,57.5C 186.167,57.5 191.833,57.5 197.5,57.5 Z"/></g>
<g><path style="opacity:0.425" fill="#253237" d="M 209.5,58.5 C 210.404,59.209 210.737,60.209 210.5,61.5C 214.5,61.8333 214.5,62.1667 210.5,62.5C 210.167,66.5 209.833,66.5 209.5,62.5C 205.5,62.1667 205.5,61.8333 209.5,61.5C 209.5,60.5 209.5,59.5 209.5,58.5 Z"/></g>
<g><path style="opacity:0.897" fill="#fdbb9b" d="M 120.5,59.5 C 120.852,61.7047 121.852,63.5381 123.5,65C 122.177,65.8159 121.511,66.9826 121.5,68.5C 119.91,76.2896 122.243,82.2896 128.5,86.5C 127.5,89.5 125.5,91.5 122.5,92.5C 120.233,89.7291 117.733,87.0625 115,84.5C 114.905,78.843 115.072,73.1763 115.5,67.5C 116.165,65.6309 116.831,63.6309 117.5,61.5C 118.086,61.7093 118.586,62.0426 119,62.5C 119.232,61.2625 119.732,60.2625 120.5,59.5 Z"/></g>
<g><path style="opacity:0.893" fill="#f6b396" d="M 135.5,59.5 C 136.441,62.1251 137.607,62.1251 139,59.5C 139.86,62.6328 141.36,65.2995 143.5,67.5C 144.441,69.0495 145.107,70.7162 145.5,72.5C 143.412,72.8652 141.079,72.8652 138.5,72.5C 137.855,70.1737 136.522,68.507 134.5,67.5C 134.586,66.5041 134.252,65.6708 133.5,65C 134.308,64.6924 134.975,64.1924 135.5,63.5C 134.193,62.135 134.193,60.8016 135.5,59.5 Z"/></g>
<g><path style="opacity:0.918" fill="#f1b093" d="M 149.5,78.5 C 149.5,79.1667 149.5,79.8333 149.5,80.5C 149.167,81.1667 148.833,81.8333 148.5,82.5C 147.147,80.8716 147.481,79.5383 149.5,78.5 Z"/></g>
<g><path style="opacity:0.745" fill="#df5c64" d="M 149.5,80.5 C 150.79,81.0577 151.623,82.0577 152,83.5C 154.066,88.0417 153.899,92.375 151.5,96.5C 150.21,95.9423 149.377,94.9423 149,93.5C 149.327,89.7606 149.16,86.094 148.5,82.5C 148.833,81.8333 149.167,81.1667 149.5,80.5 Z"/></g>
<g><path style="opacity:0.746" fill="#dfe0df" d="M 59.5,83.5 C 68.1667,83.5 76.8333,83.5 85.5,83.5C 85.5,96.5 85.5,109.5 85.5,122.5C 76.8333,122.5 68.1667,122.5 59.5,122.5C 59.5,109.5 59.5,96.5 59.5,83.5 Z"/></g>
<g><path style="opacity:0.517" fill="#e0e1e1" d="M 206.5,189.5 C 206.5,189.167 206.5,188.833 206.5,188.5C 213.3,189.062 219.8,188.062 226,185.5C 226.667,155.833 226.667,126.167 226,96.5C 218.909,93.0382 211.742,89.7048 204.5,86.5C 204.128,90.4235 204.128,94.2568 204.5,98C 197.08,98.0423 190.914,95.209 186,89.5C 185.316,88.2161 185.483,87.0495 186.5,86C 192.662,85.1201 197.995,82.6201 202.5,78.5C 203.466,80.396 203.799,82.396 203.5,84.5C 214.896,88.6991 225.896,93.6991 236.5,99.5C 233.79,100.262 231.29,99.5955 229,97.5C 228.953,127.148 228.787,156.814 228.5,186.5C 232.167,186.164 235.5,186.997 238.5,189C 227.839,189.5 217.172,189.667 206.5,189.5 Z"/></g>
<g><path style="opacity:1" fill="#f6f6f6" d="M 60.5,84.5 C 68.5,84.5 76.5,84.5 84.5,84.5C 84.5,96.8333 84.5,109.167 84.5,121.5C 76.5,121.5 68.5,121.5 60.5,121.5C 60.5,109.167 60.5,96.8333 60.5,84.5 Z"/></g>
<g><path style="opacity:1" fill="#2f393f" d="M 138.5,72.5 C 141.079,72.8652 143.412,72.8652 145.5,72.5C 149.738,72.7196 151.072,74.7196 149.5,78.5C 147.481,79.5383 147.147,80.8716 148.5,82.5C 149.16,86.094 149.327,89.7606 149,93.5C 149.377,94.9423 150.21,95.9423 151.5,96.5C 151.608,98.5138 150.942,100.18 149.5,101.5C 145.476,101.503 141.476,101.836 137.5,102.5C 135.366,102.485 133.366,101.985 131.5,101C 131.388,96.2081 131.055,91.3748 130.5,86.5C 131.895,82.5996 133.062,78.5996 134,74.5C 135.11,72.9632 136.61,72.2965 138.5,72.5 Z"/></g>
<g><path style="opacity:0.936" fill="#e75e66" d="M 128.5,86.5 C 129.167,86.5 129.833,86.5 130.5,86.5C 131.055,91.3748 131.388,96.2081 131.5,101C 133.366,101.985 135.366,102.485 137.5,102.5C 141.476,101.836 145.476,101.503 149.5,101.5C 149.33,103.848 148.997,106.182 148.5,108.5C 150.122,112.744 151.455,117.077 152.5,121.5C 146.274,121.388 140.274,122.054 134.5,123.5C 132.833,123.5 131.167,123.5 129.5,123.5C 130.03,119.715 131.03,116.048 132.5,112.5C 131.033,108.931 129.866,105.264 129,101.5C 126.615,98.6215 124.448,95.6215 122.5,92.5C 125.5,91.5 127.5,89.5 128.5,86.5 Z"/></g>
<g><path style="opacity:0.975" fill="#e9e9e9" d="M 206.5,188.5 C 206.5,188.833 206.5,189.167 206.5,189.5C 200.833,189.5 195.167,189.5 189.5,189.5C 189.5,189.167 189.5,188.833 189.5,188.5C 188.402,183.908 187.735,179.241 187.5,174.5C 182.833,174.5 178.167,174.5 173.5,174.5C 172.963,179.186 172.296,183.853 171.5,188.5C 170.209,188.737 169.209,188.404 168.5,187.5C 168.5,183.167 168.5,178.833 168.5,174.5C 166.833,174.5 165.167,174.5 163.5,174.5C 160.417,162.708 157.751,150.708 155.5,138.5C 157.5,138.5 159.5,138.5 161.5,138.5C 161.334,129.161 161.5,119.827 162,110.5C 163.167,106.667 165.667,104.167 169.5,103C 178.833,102.333 188.167,102.333 197.5,103C 202.821,105.468 205.821,109.635 206.5,115.5C 206.191,139.786 206.191,164.12 206.5,188.5 Z M 189.5,188.5 C 183.5,188.5 177.5,188.5 171.5,188.5C 172.296,183.853 172.963,179.186 173.5,174.5C 178.167,174.5 182.833,174.5 187.5,174.5C 187.735,179.241 188.402,183.908 189.5,188.5 Z M 192.5,174.5 C 195.167,174.5 197.833,174.5 200.5,174.5C 201.167,179.167 201.833,183.833 202.5,188.5C 199.167,188.5 195.833,188.5 192.5,188.5C 192.5,183.833 192.5,179.167 192.5,174.5 Z"/></g>
<g><path style="opacity:1" fill="#2c3940" d="M 152.5,121.5 C 153.885,127.091 154.885,132.757 155.5,138.5C 157.751,150.708 160.417,162.708 163.5,174.5C 163.341,179.446 164.675,183.78 167.5,187.5C 166.352,188.895 165.352,188.728 164.5,187C 162.19,186.503 159.857,186.337 157.5,186.5C 156.488,183.748 155.488,181.081 154.5,178.5C 153.903,171.117 152.236,164.117 149.5,157.5C 147.185,149.913 145.019,142.246 143,134.5C 142.213,152.016 141.046,169.349 139.5,186.5C 139.158,185.662 138.492,185.328 137.5,185.5C 138.532,164.616 138.532,143.949 137.5,123.5C 136.5,144.156 136.167,164.823 136.5,185.5C 136.167,185.5 135.833,185.5 135.5,185.5C 135.831,164.66 135.497,143.993 134.5,123.5C 140.274,122.054 146.274,121.388 152.5,121.5 Z"/></g>
<g><path style="opacity:0.763" fill="#28343b" d="M 129.5,123.5 C 131.167,123.5 132.833,123.5 134.5,123.5C 135.497,143.993 135.831,164.66 135.5,185.5C 134.5,185.5 133.5,185.5 132.5,185.5C 131.334,164.851 130.334,144.185 129.5,123.5 Z"/></g>
<g><path style="opacity:1" fill="#263238" d="M 137.5,185.5 C 137.167,185.5 136.833,185.5 136.5,185.5C 136.167,164.823 136.5,144.156 137.5,123.5C 138.532,143.949 138.532,164.616 137.5,185.5 Z"/></g>
<g><path style="opacity:0.843" fill="#df4e59" d="M 40.5,132.5 C 39.037,135.203 38.2037,138.203 38,141.5C 37.5774,140.044 36.7441,139.544 35.5,140C 36.1667,141 36.8333,142 37.5,143C 33.2262,142.709 28.8929,142.543 24.5,142.5C 25.9025,141.069 27.5692,139.902 29.5,139C 25.5773,136.909 22.9106,133.742 21.5,129.5C 23.4283,126.732 26.095,125.898 29.5,127C 31.7879,129.743 33.9545,132.577 36,135.5C 36.8343,132.741 38.3343,131.741 40.5,132.5 Z"/></g>
<g><path style="opacity:0.934" fill="#e54f5a" d="M 52.5,141.5 C 54.2798,142.99 54.9465,144.99 54.5,147.5C 54.5,150.167 54.5,152.833 54.5,155.5C 52.9235,158.312 51.0902,160.978 49,163.5C 48.6174,162.944 48.1174,162.611 47.5,162.5C 47.5,160.5 47.5,158.5 47.5,156.5C 48.9238,154.485 49.5905,152.152 49.5,149.5C 50.871,147.064 51.871,144.397 52.5,141.5 Z"/></g>
<g><path style="opacity:1" fill="#9c454d" d="M 51.5,140.5 C 52.1667,140.5 52.5,140.833 52.5,141.5C 51.871,144.397 50.871,147.064 49.5,149.5C 49.7556,146.402 50.4222,143.402 51.5,140.5 Z"/></g>
<g><path style="opacity:0.927" fill="#e44f5a" d="M 40.5,132.5 C 41.9311,132.881 42.7645,133.881 43,135.5C 43.2117,138.758 43.7117,141.924 44.5,145C 45,145.167 45.5,145.333 46,145.5C 47.7289,143.599 49.5623,141.932 51.5,140.5C 50.4222,143.402 49.7556,146.402 49.5,149.5C 48.0762,151.515 47.4095,153.848 47.5,156.5C 46.2502,156.423 45.4169,155.756 45,154.5C 44.3162,155.784 44.4829,156.951 45.5,158C 45,158.167 44.5,158.333 44,158.5C 38.243,156.769 32.4096,155.435 26.5,154.5C 26.4142,153.504 26.7476,152.671 27.5,152C 30.2263,151.818 32.8929,151.318 35.5,150.5C 31.2697,148.894 27.603,146.561 24.5,143.5C 29.2318,143.378 33.8984,143.878 38.5,145C 39.2106,146.255 40.044,147.421 41,148.5C 40.7179,146.384 40.2179,144.217 39.5,142C 40.256,138.875 40.5893,135.709 40.5,132.5 Z"/></g>
<g><path style="opacity:1" fill="#9a444c" d="M 40.5,132.5 C 40.5893,135.709 40.256,138.875 39.5,142C 40.2179,144.217 40.7179,146.384 41,148.5C 40.044,147.421 39.2106,146.255 38.5,145C 33.8984,143.878 29.2318,143.378 24.5,143.5C 24.5,143.167 24.5,142.833 24.5,142.5C 28.8929,142.543 33.2262,142.709 37.5,143C 36.8333,142 36.1667,141 35.5,140C 36.7441,139.544 37.5774,140.044 38,141.5C 38.2037,138.203 39.037,135.203 40.5,132.5 Z"/></g>
<g><path style="opacity:1" fill="#e6dddd" d="M 54.5,147.5 C 55.1667,147.5 55.8333,147.5 56.5,147.5C 55.9216,150.28 55.2549,152.947 54.5,155.5C 54.5,152.833 54.5,150.167 54.5,147.5 Z"/></g>
<g><path style="opacity:1" fill="#9d444d" d="M 49.5,149.5 C 49.5905,152.152 48.9238,154.485 47.5,156.5C 47.4095,153.848 48.0762,151.515 49.5,149.5 Z"/></g>
<g><path style="opacity:0.878" fill="#e74f5a" d="M 26.5,155.5 C 33.1048,157.151 39.7714,158.485 46.5,159.5C 46.2627,160.791 46.596,161.791 47.5,162.5C 47.5,163.167 47.5,163.833 47.5,164.5C 47.5,164.833 47.5,165.167 47.5,165.5C 38.1874,166.675 31.1874,163.341 26.5,155.5 Z"/></g>
<g><path style="opacity:1" fill="#9d444d" d="M 26.5,155.5 C 26.5,155.167 26.5,154.833 26.5,154.5C 32.4096,155.435 38.243,156.769 44,158.5C 44.5,158.333 45,158.167 45.5,158C 44.4829,156.951 44.3162,155.784 45,154.5C 45.4169,155.756 46.2502,156.423 47.5,156.5C 47.5,158.5 47.5,160.5 47.5,162.5C 46.596,161.791 46.2627,160.791 46.5,159.5C 39.7714,158.485 33.1048,157.151 26.5,155.5 Z"/></g>
<g><path style="opacity:0.957" fill="#e3e3e4" d="M 69.5,147.5 C 72.1194,147.232 74.6194,147.565 77,148.5C 77.498,151.482 77.6646,154.482 77.5,157.5C 80.2469,157.813 82.9135,157.48 85.5,156.5C 85.1667,155.833 84.8333,155.167 84.5,154.5C 85.7472,152.677 86.4139,150.677 86.5,148.5C 88.1667,148.5 89.8333,148.5 91.5,148.5C 91.6822,150.675 92.3489,152.675 93.5,154.5C 92.1116,157.165 93.1116,158.165 96.5,157.5C 96.5,167.833 96.5,178.167 96.5,188.5C 96.5,188.833 96.5,189.167 96.5,189.5C 85.1667,189.5 73.8333,189.5 62.5,189.5C 62.5,189.167 62.5,188.833 62.5,188.5C 62.5,185.833 62.5,183.167 62.5,180.5C 61.1667,180.5 59.8333,180.5 58.5,180.5C 57.8761,180.083 57.5427,179.416 57.5,178.5C 58.8936,176.354 59.5603,174.021 59.5,171.5C 56.2869,171.81 53.2869,171.477 50.5,170.5C 50.5,169.5 50.5,168.5 50.5,167.5C 55.9457,169.413 60.7791,168.413 65,164.5C 65.49,163.207 65.6567,161.873 65.5,160.5C 63.712,160.785 62.0453,160.452 60.5,159.5C 62.322,157.99 64.322,156.657 66.5,155.5C 67.4286,153.678 66.7619,152.345 64.5,151.5C 65.9754,149.929 67.642,148.595 69.5,147.5 Z M 66.5,180.5 C 70.1667,180.5 73.8333,180.5 77.5,180.5C 77.5,183.167 77.5,185.833 77.5,188.5C 73.8333,188.5 70.1667,188.5 66.5,188.5C 66.5,185.833 66.5,183.167 66.5,180.5 Z M 80.5,180.5 C 84.8333,180.5 89.1667,180.5 93.5,180.5C 93.5,183.167 93.5,185.833 93.5,188.5C 89.1667,188.5 84.8333,188.5 80.5,188.5C 80.5,185.833 80.5,183.167 80.5,180.5 Z"/></g>
<g><path style="opacity:0.92" fill="#d9d9d9" d="M 149.5,157.5 C 152.236,164.117 153.903,171.117 154.5,178.5C 153.454,181.728 152.788,185.061 152.5,188.5C 152.5,188.833 152.5,189.167 152.5,189.5C 151.5,189.5 150.5,189.5 149.5,189.5C 149.5,189.167 149.5,188.833 149.5,188.5C 149.5,178.167 149.5,167.833 149.5,157.5 Z"/></g>
<g><path style="opacity:1" fill="#87353b" d="M 69.5,147.5 C 67.642,148.595 65.9754,149.929 64.5,151.5C 66.7619,152.345 67.4286,153.678 66.5,155.5C 64.322,156.657 62.322,157.99 60.5,159.5C 62.0453,160.452 63.712,160.785 65.5,160.5C 65.6567,161.873 65.49,163.207 65,164.5C 60.7791,168.413 55.9457,169.413 50.5,167.5C 50.5,166.833 50.1667,166.5 49.5,166.5C 49.1667,165.5 48.5,164.833 47.5,164.5C 47.5,163.833 47.5,163.167 47.5,162.5C 48.1174,162.611 48.6174,162.944 49,163.5C 51.0902,160.978 52.9235,158.312 54.5,155.5C 55.2549,152.947 55.9216,150.28 56.5,147.5C 57.5,146.167 58.5,146.167 59.5,147.5C 59.7856,149.933 60.4523,149.933 61.5,147.5C 63.0162,143.96 65.5162,142.96 69,144.5C 69.4828,145.448 69.6495,146.448 69.5,147.5 Z"/></g>
<g><path style="opacity:1" fill="#ece8e8" d="M 59.5,147.5 C 60.1667,147.5 60.8333,147.5 61.5,147.5C 60.4523,149.933 59.7856,149.933 59.5,147.5 Z"/></g>
<g><path style="opacity:0.858" fill="#273339" d="M 47.5,164.5 C 48.5,164.833 49.1667,165.5 49.5,166.5C 49.2322,168.099 49.5655,169.432 50.5,170.5C 53.2869,171.477 56.2869,171.81 59.5,171.5C 59.5603,174.021 58.8936,176.354 57.5,178.5C 57.5427,179.416 57.8761,180.083 58.5,180.5C 57.612,183.054 57.2786,185.721 57.5,188.5C 59.1667,188.5 60.8333,188.5 62.5,188.5C 62.5,188.833 62.5,189.167 62.5,189.5C 46.4965,189.667 30.4965,189.5 14.5,189C 23.8274,188.5 33.1607,188.334 42.5,188.5C 41.6877,182.856 41.0211,177.19 40.5,171.5C 43.1667,171.5 45.8333,171.5 48.5,171.5C 48.6747,169.379 48.3414,167.379 47.5,165.5C 47.5,165.167 47.5,164.833 47.5,164.5 Z"/></g>
<g><path style="opacity:1" fill="#935358" d="M 132.5,185.5 C 133.5,185.5 134.5,185.5 135.5,185.5C 135.833,185.5 136.167,185.5 136.5,185.5C 136.833,185.5 137.167,185.5 137.5,185.5C 138.492,185.328 139.158,185.662 139.5,186.5C 142.337,188.402 145.671,189.069 149.5,188.5C 149.5,188.833 149.5,189.167 149.5,189.5C 131.833,189.5 114.167,189.5 96.5,189.5C 96.5,189.167 96.5,188.833 96.5,188.5C 108.171,188.667 119.838,188.5 131.5,188C 132.252,187.329 132.586,186.496 132.5,185.5 Z"/></g>
<g><path style="opacity:1" fill="#824c52" d="M 157.5,187.5 C 157.5,187.167 157.5,186.833 157.5,186.5C 159.857,186.337 162.19,186.503 164.5,187C 165.352,188.728 166.352,188.895 167.5,187.5C 167.833,187.5 168.167,187.5 168.5,187.5C 169.209,188.404 170.209,188.737 171.5,188.5C 177.5,188.5 183.5,188.5 189.5,188.5C 189.5,188.833 189.5,189.167 189.5,189.5C 182.5,189.5 175.5,189.5 168.5,189.5C 164.513,189.99 160.846,189.324 157.5,187.5 Z"/></g>
<g><path style="opacity:0.361" fill="#bd7d82" d="M 157.5,187.5 C 160.846,189.324 164.513,189.99 168.5,189.5C 163.325,190.559 157.991,190.559 152.5,189.5C 152.5,189.167 152.5,188.833 152.5,188.5C 154.415,188.784 156.081,188.451 157.5,187.5 Z"/></g>
</svg>
