<?xml version="1.0" encoding="UTF-8"?>
<!DOCTYPE svg PUBLIC "-//W3C//DTD SVG 1.1//EN" "http://www.w3.org/Graphics/SVG/1.1/DTD/svg11.dtd">
<svg xmlns="http://www.w3.org/2000/svg" version="1.1" width="86px" height="186px" style="shape-rendering:geometricPrecision; text-rendering:geometricPrecision; image-rendering:optimizeQuality; fill-rule:evenodd; clip-rule:evenodd" xmlns:xlink="http://www.w3.org/1999/xlink">
<g><path style="opacity:0.971" fill="#445963" d="M 66.5,-0.5 C 68.5,-0.5 70.5,-0.5 72.5,-0.5C 73.1667,0.5 73.8333,1.5 74.5,2.5C 59.173,9.33369 44.5063,17.5004 30.5,27C 28.3111,27.322 26.3111,26.822 24.5,25.5C 24.9528,24.5416 25.6195,23.7083 26.5,23C 40.2628,15.7019 53.5962,7.86859 66.5,-0.5 Z"/></g>
<g><path style="opacity:1" fill="#37454d" d="M 74.5,2.5 C 74.5,10.8333 74.5,19.1667 74.5,27.5C 74.6661,33.1764 74.4994,38.8431 74,44.5C 73.6174,45.056 73.1174,45.3893 72.5,45.5C 72.8278,34.6536 72.4944,23.9869 71.5,13.5C 71.1034,12.475 70.4368,12.3083 69.5,13C 56.5833,20.7078 43.75,28.5411 31,36.5C 30.5003,43.8258 30.3337,51.1591 30.5,58.5C 29.2421,55.6362 27.2421,54.9696 24.5,56.5C 24.5,46.1667 24.5,35.8333 24.5,25.5C 26.3111,26.822 28.3111,27.322 30.5,27C 44.5063,17.5004 59.173,9.33369 74.5,2.5 Z"/></g>
<g><path style="opacity:1" fill="#f8f5f8" d="M 71.5,13.5 C 71.5,38.1667 71.5,62.8333 71.5,87.5C 58.7003,95.4039 45.7003,103.071 32.5,110.5C 31.4336,108.299 30.767,105.965 30.5,103.5C 30.5,90.8333 30.5,78.1667 30.5,65.5C 30.5,63.1667 30.5,60.8333 30.5,58.5C 30.3337,51.1591 30.5003,43.8258 31,36.5C 43.75,28.5411 56.5833,20.7078 69.5,13C 70.4368,12.3083 71.1034,12.475 71.5,13.5 Z"/></g>
<g><path style="opacity:1" fill="#757d83" d="M 71.5,13.5 C 72.4944,23.9869 72.8278,34.6536 72.5,45.5C 72.9488,54.9988 73.6154,64.3321 74.5,73.5C 74.5,73.8333 74.5,74.1667 74.5,74.5C 72.7006,77.5046 72.0339,80.838 72.5,84.5C 72.7373,85.791 72.404,86.791 71.5,87.5C 71.5,62.8333 71.5,38.1667 71.5,13.5 Z"/></g>
<g><path style="opacity:1" fill="#903e8a" d="M 65.5,18.5 C 68.7973,18.3287 69.1306,18.9954 66.5,20.5C 65.7025,20.0431 65.3691,19.3764 65.5,18.5 Z"/></g>
<g><path style="opacity:0.924" fill="#fca5a4" d="M 85.5,30.5 C 85.5,31.5 85.5,32.5 85.5,33.5C 83.8144,36.7028 81.481,39.5361 78.5,42C 81.8126,43.5663 83.4792,46.2329 83.5,50C 83.2971,52.4059 82.2971,54.4059 80.5,56C 84.5331,63.9118 82.5331,69.7452 74.5,73.5C 73.6154,64.3321 72.9488,54.9988 72.5,45.5C 73.1174,45.3893 73.6174,45.056 74,44.5C 74.4994,38.8431 74.6661,33.1764 74.5,27.5C 79.5811,24.1066 83.2478,25.1066 85.5,30.5 Z"/></g>
<g><path style="opacity:1" fill="#a661a0" d="M 50.5,27.5 C 52.337,27.6395 52.6704,28.3061 51.5,29.5C 50.7025,29.0431 50.3691,28.3764 50.5,27.5 Z"/></g>
<g><path style="opacity:1" fill="#a968a4" d="M 58.5,34.5 C 59.209,33.596 60.209,33.2627 61.5,33.5C 62.467,37.8514 60.8004,40.1847 56.5,40.5C 56.0535,37.9899 56.7202,35.9899 58.5,34.5 Z"/></g>
<g><path style="opacity:1" fill="#f2e9f2" d="M 58.5,34.5 C 60.9701,35.3603 61.1368,36.6936 59,38.5C 58.51,37.2068 58.3433,35.8734 58.5,34.5 Z"/></g>
<g><path style="opacity:1" fill="#d5b5d3" d="M 41.5,32.5 C 43.5492,32.7058 43.8825,33.5391 42.5,35C 39.9217,36.6647 37.2551,37.6647 34.5,38C 36.3787,35.4759 38.712,33.6425 41.5,32.5 Z"/></g>
<g><path style="opacity:1" fill="#95468f" d="M 52.5,36.5 C 55.0764,36.7218 55.9098,38.0551 55,40.5C 53.603,37.9324 52.4364,38.0991 51.5,41C 53.5117,42.1516 53.6783,43.3183 52,44.5C 49.9915,41.7051 50.1582,39.0384 52.5,36.5 Z"/></g>
<g><path style="opacity:1" fill="#8b3284" d="M 42.5,43.5 C 43.209,42.596 44.209,42.2627 45.5,42.5C 45.7845,44.4147 45.4511,46.0813 44.5,47.5C 44.8432,45.5168 44.1765,44.1834 42.5,43.5 Z"/></g>
<g><path style="opacity:1" fill="#c99dc5" d="M 42.5,43.5 C 44.1765,44.1834 44.8432,45.5168 44.5,47.5C 44.5654,47.9382 44.3988,48.2716 44,48.5C 40.3887,47.3487 39.8887,45.682 42.5,43.5 Z"/></g>
<g><path style="opacity:0.984" fill="#fea7a6" d="M 30.5,58.5 C 30.5,60.8333 30.5,63.1667 30.5,65.5C 29.3361,69.1172 27.5028,72.4505 25,75.5C 24.3333,81.8333 24.3333,88.1667 25,94.5C 26.6966,97.6717 28.5299,100.672 30.5,103.5C 30.767,105.965 31.4336,108.299 32.5,110.5C 33.1924,113.26 34.1924,115.927 35.5,118.5C 47.2793,111.376 59.2793,104.709 71.5,98.5C 71.452,105.028 70.2853,111.362 68,117.5C 64.6667,122.833 61.3333,128.167 58,133.5C 58.0337,141.511 58.5337,149.511 59.5,157.5C 60.3613,167.81 55.6946,173.977 45.5,176C 34.1837,179.007 23.517,177.673 13.5,172C 8.95167,167.868 7.285,162.701 8.5,156.5C 9.33307,143.507 9.49974,130.507 9,117.5C 3.25635,101.748 3.58968,86.0816 10,70.5C 15.3629,66.3024 20.1962,61.6357 24.5,56.5C 27.2421,54.9696 29.2421,55.6362 30.5,58.5 Z"/></g>
<g><path style="opacity:1" fill="#9e5499" d="M 66.5,44.5 C 67.8095,48.3507 67.8095,52.3507 66.5,56.5C 56.3304,62.7525 45.9971,68.7525 35.5,74.5C 34.3414,70.878 34.1747,67.2113 35,63.5C 45.4805,57.0152 55.9805,50.6818 66.5,44.5 Z"/></g>
<g><path style="opacity:1" fill="#d4bbd2" d="M 53.5,55.5 C 53.3893,56.1174 53.056,56.6174 52.5,57C 54.2555,57.1405 55.9222,56.6405 57.5,55.5C 58.463,55.9698 58.463,56.6365 57.5,57.5C 54.6689,58.0787 52.3356,59.412 50.5,61.5C 48.8297,61.7512 47.3297,62.4178 46,63.5C 45.5439,62.2559 46.0439,61.4226 47.5,61C 46.8333,60.6667 46.1667,60.3333 45.5,60C 47.7357,57.7159 50.4024,56.2159 53.5,55.5 Z"/></g>
<g><path style="opacity:1" fill="#be90ba" d="M 64.5,53.5 C 62.6644,55.588 60.3311,56.9213 57.5,57.5C 58.463,56.6365 58.463,55.9698 57.5,55.5C 55.9222,56.6405 54.2555,57.1405 52.5,57C 53.056,56.6174 53.3893,56.1174 53.5,55.5C 55.0931,52.8027 56.7598,52.4694 58.5,54.5C 60.9176,53.5428 63.0843,52.2095 65,50.5C 65.4696,51.5768 65.3029,52.5768 64.5,53.5 Z"/></g>
<g><path style="opacity:1" fill="#aa6ba6" d="M 57.5,57.5 C 55.6644,59.588 53.3311,60.9213 50.5,61.5C 52.3356,59.412 54.6689,58.0787 57.5,57.5 Z"/></g>
<g><path style="opacity:1" fill="#9e559a" d="M 64.5,59.5 C 65.5,59.5 66.5,59.5 67.5,59.5C 67.7935,63.4367 67.4601,67.27 66.5,71C 56.1667,76.8333 45.8333,82.6667 35.5,88.5C 34.3414,84.878 34.1747,81.2113 35,77.5C 45.1472,71.8511 54.9805,65.8511 64.5,59.5 Z"/></g>
<g><path style="opacity:1" fill="#dac7d9" d="M 64.5,53.5 C 65.7733,54.0768 65.7733,54.7435 64.5,55.5C 58.2479,59.7848 51.9146,63.1181 45.5,65.5C 47.4192,64.3875 49.0858,63.0542 50.5,61.5C 53.3311,60.9213 55.6644,59.588 57.5,57.5C 60.3311,56.9213 62.6644,55.588 64.5,53.5 Z"/></g>
<g><path style="opacity:1" fill="#e8e1e8" d="M 40.5,61.5 C 41.5,61.5 42.5,61.5 43.5,61.5C 44.5817,66.0927 42.915,69.0927 38.5,70.5C 38.1667,69.3333 37.8333,68.1667 37.5,67C 37.6846,64.6241 38.6846,62.7908 40.5,61.5 Z"/></g>
<g><path style="opacity:1" fill="#2e3a40" d="M 30.5,65.5 C 30.5,78.1667 30.5,90.8333 30.5,103.5C 28.5299,100.672 26.6966,97.6717 25,94.5C 24.3333,88.1667 24.3333,81.8333 25,75.5C 27.5028,72.4505 29.3361,69.1172 30.5,65.5 Z"/></g>
<g><path style="opacity:1" fill="#ceaecb" d="M 63.5,65.5 C 64.2389,65.369 64.9056,65.5357 65.5,66C 63.5,67.3333 61.5,68.6667 59.5,70C 61.2555,70.1405 62.9222,69.6405 64.5,68.5C 65.6956,68.8457 65.6956,69.3457 64.5,70C 58.6688,73.0812 53.0021,76.4145 47.5,80C 44.8271,79.9372 44.8271,79.2705 47.5,78C 45.1088,77.3086 45.1088,76.3086 47.5,75C 45.6992,74.6827 45.3659,74.016 46.5,73C 49.0048,71.2467 51.6714,69.7467 54.5,68.5C 54.8333,69.1667 55.1667,69.8333 55.5,70.5C 58.2308,68.8084 60.8975,67.1417 63.5,65.5 Z"/></g>
<g><path style="opacity:0.929" fill="#f7a1a0" d="M 74.5,74.5 C 82.0386,75.2274 84.2053,79.2274 81,86.5C 79.2228,88.7899 77.0562,90.4566 74.5,91.5C 73.8333,89.1667 73.1667,86.8333 72.5,84.5C 72.0339,80.838 72.7006,77.5046 74.5,74.5 Z"/></g>
<g><path style="opacity:1" fill="#e8e1e8" d="M 41.5,75.5 C 44.6375,79.5295 43.6375,82.5295 38.5,84.5C 36.8392,80.4603 37.8392,77.4603 41.5,75.5 Z"/></g>
<g><path style="opacity:1" fill="#3c4a51" d="M 72.5,84.5 C 73.1667,86.8333 73.8333,89.1667 74.5,91.5C 75.0922,94.6305 74.0922,96.9639 71.5,98.5C 59.2793,104.709 47.2793,111.376 35.5,118.5C 34.1924,115.927 33.1924,113.26 32.5,110.5C 45.7003,103.071 58.7003,95.4039 71.5,87.5C 72.404,86.791 72.7373,85.791 72.5,84.5 Z"/></g>
<g><path style="opacity:1" fill="#9e559a" d="M 65.5,73.5 C 66.7868,74.8714 67.4535,76.7047 67.5,79C 67.4644,81.0937 67.1311,83.0937 66.5,85C 56.2168,91.6395 45.5501,97.4729 34.5,102.5C 34.2065,98.5633 34.5399,94.73 35.5,91C 45.727,85.3924 55.727,79.5591 65.5,73.5 Z"/></g>
<g><path style="opacity:1" fill="#ccaac9" d="M 55.5,81.5 C 56.2389,81.369 56.9056,81.5357 57.5,82C 56.3044,82.6543 56.3044,83.1543 57.5,83.5C 58.8333,82.8333 60.1667,82.1667 61.5,81.5C 61.8333,82.1667 62.1667,82.8333 62.5,83.5C 63.451,82.6744 64.451,82.5078 65.5,83C 59.2946,87.7641 52.6279,91.4307 45.5,94C 47.8912,92.6914 47.8912,91.6914 45.5,91C 47.5,89.6667 49.5,88.3333 51.5,87C 49.5,87.3333 47.5,87.6667 45.5,88C 49.0689,86.0583 52.4022,83.8916 55.5,81.5 Z"/></g>
<g><path style="opacity:1" fill="#e3d7e2" d="M 41.5,89.5 C 44.7831,94.1865 43.4498,97.5198 37.5,99.5C 36.359,97.5787 36.1923,95.5787 37,93.5C 38.3968,91.9297 39.8968,90.5964 41.5,89.5 Z"/></g>
<g><path style="opacity:0.948" fill="#ebeaea" d="M 8.5,156.5 C 7.285,162.701 8.95167,167.868 13.5,172C 23.517,177.673 34.1837,179.007 45.5,176C 55.6946,173.977 60.3613,167.81 59.5,157.5C 68.6833,160.954 70.8499,166.954 66,175.5C 57.0693,181.686 47.236,185.019 36.5,185.5C 35.1667,185.5 33.8333,185.5 32.5,185.5C 23.0871,184.975 14.0871,182.475 5.5,178C 3.30393,176.301 1.30393,174.467 -0.5,172.5C -0.5,169.833 -0.5,167.167 -0.5,164.5C 1.85374,161.149 4.85374,158.482 8.5,156.5 Z"/></g>
</svg>
