<?xml version="1.0" encoding="UTF-8"?>
<!DOCTYPE svg PUBLIC "-//W3C//DTD SVG 1.1//EN" "http://www.w3.org/Graphics/SVG/1.1/DTD/svg11.dtd">
<svg xmlns="http://www.w3.org/2000/svg" version="1.1" width="25px" height="27px" style="shape-rendering:geometricPrecision; text-rendering:geometricPrecision; image-rendering:optimizeQuality; fill-rule:evenodd; clip-rule:evenodd" xmlns:xlink="http://www.w3.org/1999/xlink">
<g><path style="opacity:0.591" fill="#fefffe" d="M 10.5,-0.5 C 11.5,-0.5 12.5,-0.5 13.5,-0.5C 16.2624,1.72466 19.2624,3.72466 22.5,5.5C 23.8333,8.16667 23.8333,10.8333 22.5,13.5C 19.0654,15.6334 15.5654,17.6334 12,19.5C 9.00998,17.8498 6.00998,16.1831 3,14.5C 2.1751,16.7008 2.6751,18.5341 4.5,20C 11.9514,24.7291 18.1181,23.2291 23,15.5C 23.6667,17.1667 23.6667,18.8333 23,20.5C 20.0123,22.3991 17.1789,24.3991 14.5,26.5C 12.8333,26.5 11.1667,26.5 9.5,26.5C 6.20409,24.1792 2.87076,21.8458 -0.5,19.5C -0.5,15.5 -0.5,11.5 -0.5,7.5C 2.95159,4.60073 6.61826,1.93406 10.5,-0.5 Z M 14.5,6.5 C 12.8333,6.5 11.1667,6.5 9.5,6.5C 11.0478,4.07764 12.7145,4.07764 14.5,6.5 Z M 9.5,6.5 C 9.5,8.5 9.5,10.5 9.5,12.5C 11.1667,12.5 12.8333,12.5 14.5,12.5C 14.5,10.5 14.5,8.5 14.5,6.5C 19.0276,6.84115 20.3609,9.00781 18.5,13C 16.2379,14.0468 14.0712,15.2135 12,16.5C 9.4192,15.5828 7.08587,14.2495 5,12.5C 3.96675,8.69139 5.46675,6.69139 9.5,6.5 Z"/></g>
<g><path style="opacity:0.751" fill="#fefffe" d="M 9.5,6.5 C 11.1667,6.5 12.8333,6.5 14.5,6.5C 14.5,8.5 14.5,10.5 14.5,12.5C 12.8333,12.5 11.1667,12.5 9.5,12.5C 9.5,10.5 9.5,8.5 9.5,6.5 Z"/></g>
</svg>
