<?xml version="1.0" encoding="UTF-8"?>
<!DOCTYPE svg PUBLIC "-//W3C//DTD SVG 1.1//EN" "http://www.w3.org/Graphics/SVG/1.1/DTD/svg11.dtd">
<svg xmlns="http://www.w3.org/2000/svg" version="1.1" width="250px" height="250px" style="shape-rendering:geometricPrecision; text-rendering:geometricPrecision; image-rendering:optimizeQuality; fill-rule:evenodd; clip-rule:evenodd" xmlns:xlink="http://www.w3.org/1999/xlink">
<g><path style="opacity:0.893" fill="#2b373d" d="M 114.5,91.5 C 113.833,98.3447 113.167,105.345 112.5,112.5C 111.502,104.528 111.169,96.5277 111.5,88.5C 111.666,78.1613 111.5,67.828 111,57.5C 110.215,55.714 109.049,54.214 107.5,53C 103.163,52.2478 98.8294,51.9144 94.5,52C 92.9551,53.6877 91.9551,55.6877 91.5,58C 87.8484,58.4986 84.1817,58.6653 80.5,58.5C 77.8127,58.6641 75.146,58.4974 72.5,58C 71.8333,56 71.1667,54 70.5,52C 65.5,51.3333 60.5,51.3333 55.5,52C 54.0692,52.4652 52.9025,53.2986 52,54.5C 50.5241,74.4077 50.0241,94.4077 50.5,114.5C 50.5,127.833 50.5,141.167 50.5,154.5C 50.5,156.833 50.5,159.167 50.5,161.5C 50.3343,165.846 50.501,170.179 51,174.5C 51.4652,175.931 52.2986,177.097 53.5,178C 71.5,178.667 89.5,178.667 107.5,178C 108.701,177.097 109.535,175.931 110,174.5C 110.498,171.518 110.665,168.518 110.5,165.5C 111.111,163.225 112.445,161.559 114.5,160.5C 115.959,160.433 117.292,160.766 118.5,161.5C 115.203,164.698 114.203,168.365 115.5,172.5C 119.909,180.513 125.576,181.513 132.5,175.5C 134.284,174.28 135.95,174.28 137.5,175.5C 136.386,178.449 134.386,180.615 131.5,182C 154.5,182.667 177.5,182.667 200.5,182C 196.009,179.524 193.676,175.691 193.5,170.5C 193.5,170.167 193.5,169.833 193.5,169.5C 194.492,169.672 195.158,169.338 195.5,168.5C 196.167,168.5 196.833,168.5 197.5,168.5C 198.433,176.27 202.766,179.77 210.5,179C 217.56,175.028 218.894,169.861 214.5,163.5C 215.78,162.069 217.447,161.402 219.5,161.5C 223.288,169.768 221.621,176.601 214.5,182C 221.167,182.333 227.833,182.667 234.5,183C 174.501,183.5 114.501,183.667 54.5,183.5C 54.0269,182.094 53.0269,181.427 51.5,181.5C 50.8333,180.167 49.8333,179.167 48.5,178.5C 48.6716,177.508 48.3382,176.842 47.5,176.5C 47.5,176.167 47.5,175.833 47.5,175.5C 47.5,169.833 47.5,164.167 47.5,158.5C 47.5,150.167 47.5,141.833 47.5,133.5C 47.5,126.5 47.5,119.5 47.5,112.5C 47.3334,92.8305 47.5,73.1638 48,53.5C 48.7845,51.714 49.9512,50.214 51.5,49C 70.0763,47.3597 88.743,47.0264 107.5,48C 113.397,50.9624 115.73,55.7958 114.5,62.5C 125.167,62.8333 125.167,63.1667 114.5,63.5C 114.5,72.8333 114.5,82.1667 114.5,91.5 Z M 193.5,170.5 C 193.676,175.691 196.009,179.524 200.5,182C 177.5,182.667 154.5,182.667 131.5,182C 134.386,180.615 136.386,178.449 137.5,175.5C 140.916,175.472 143.916,174.472 146.5,172.5C 147.683,173.504 149.016,174.338 150.5,175C 161.833,175.667 173.167,175.667 184.5,175C 188.075,174.546 191.075,173.046 193.5,170.5 Z M 112.5,178.5 C 118.883,182.312 117.883,183.479 109.5,182C 110.71,180.961 111.71,179.794 112.5,178.5 Z"/></g>
<g><path style="opacity:1" fill="#f2f0f0" d="M 80.5,58.5 C 80.5,67.1667 80.5,75.8333 80.5,84.5C 78.7085,84.366 77.0418,84.6993 75.5,85.5C 75.787,81.2088 75.787,77.0421 75.5,73C 78.1192,70.7435 78.1192,68.5768 75.5,66.5C 71.9211,68.1601 71.5878,70.3267 74.5,73C 74.0412,76.7273 74.0412,80.5607 74.5,84.5C 71.5,84.5 68.5,84.5 65.5,84.5C 65.5,86.1667 65.5,87.8333 65.5,89.5C 64.5386,87.7354 64.2053,85.7354 64.5,83.5C 60.8455,83.0578 57.1788,82.7244 53.5,82.5C 54.1667,77.5 54.8333,72.5 55.5,67.5C 56.552,67.6495 57.552,67.4828 58.5,67C 57.4844,66.4806 56.8178,65.6473 56.5,64.5C 57.7258,60.5519 58.2258,56.5519 58,52.5C 52.3839,72.6306 49.8839,93.2973 50.5,114.5C 50.0241,94.4077 50.5241,74.4077 52,54.5C 52.9025,53.2986 54.0692,52.4652 55.5,52C 60.5,51.3333 65.5,51.3333 70.5,52C 71.1667,54 71.8333,56 72.5,58C 75.146,58.4974 77.8127,58.6641 80.5,58.5 Z"/></g>
<g><path style="opacity:1" fill="#f5f4f4" d="M 111.5,88.5 C 110.507,96.6499 110.174,104.983 110.5,113.5C 107.544,121.725 106.711,130.392 108,139.5C 110.137,141.321 110.97,143.654 110.5,146.5C 108.957,148.928 107.957,151.594 107.5,154.5C 105.952,154.821 105.285,155.821 105.5,157.5C 105.64,159.124 104.973,160.29 103.5,161C 85.8365,161.5 68.1698,161.667 50.5,161.5C 50.5,159.167 50.5,156.833 50.5,154.5C 52.1379,153.841 53.8045,153.174 55.5,152.5C 56.9867,157.657 57.6534,157.324 57.5,151.5C 70.8333,151.167 70.8333,150.833 57.5,150.5C 57.5,146.5 57.5,142.5 57.5,138.5C 68.1667,138.167 68.1667,137.833 57.5,137.5C 57.3343,133.154 57.501,128.821 58,124.5C 59.6477,123.283 61.481,122.45 63.5,122C 65.0629,121.241 66.0629,120.074 66.5,118.5C 66.8333,118.5 67.1667,118.5 67.5,118.5C 67.189,125.09 67.5223,131.59 68.5,138C 75.1667,141.333 81.8333,144.667 88.5,148C 93.5107,148.388 98.5107,148.222 103.5,147.5C 103.338,149.527 103.505,151.527 104,153.5C 104.497,151.19 104.663,148.857 104.5,146.5C 98.8236,146.666 93.1569,146.499 87.5,146C 81.8333,143.167 76.1667,140.333 70.5,137.5C 69.7022,135.922 69.2022,134.256 69,132.5C 68.5003,124.841 68.3336,117.174 68.5,109.5C 69.1239,109.083 69.4573,108.416 69.5,107.5C 66.9781,100.405 65.9781,93.0721 66.5,85.5C 69.5,85.5 72.5,85.5 75.5,85.5C 77.0418,84.6993 78.7085,84.366 80.5,84.5C 80.5,75.8333 80.5,67.1667 80.5,58.5C 84.1817,58.6653 87.8484,58.4986 91.5,58C 91.9551,55.6877 92.9551,53.6877 94.5,52C 98.8294,51.9144 103.163,52.2478 107.5,53C 109.049,54.214 110.215,55.714 111,57.5C 111.5,67.828 111.666,78.1613 111.5,88.5 Z"/></g>
<g><path style="opacity:0.439" fill="#eaebea" d="M 123.5,63.5 C 123.897,62.475 124.563,62.3083 125.5,63C 124.906,63.4643 124.239,63.631 123.5,63.5 Z"/></g>
<g><path style="opacity:0.293" fill="#eaebea" d="M 126.5,63.5 C 128.288,62.3775 130.288,62.2109 132.5,63C 130.527,63.4955 128.527,63.6621 126.5,63.5 Z"/></g>
<g><path style="opacity:0.502" fill="#eaebea" d="M 133.5,63.5 C 133.897,62.475 134.563,62.3083 135.5,63C 134.906,63.4643 134.239,63.631 133.5,63.5 Z"/></g>
<g><path style="opacity:0.328" fill="#eaebea" d="M 136.5,63.5 C 139.304,62.3622 142.304,62.1955 145.5,63C 142.518,63.498 139.518,63.6646 136.5,63.5 Z"/></g>
<g><path style="opacity:0.439" fill="#eaebea" d="M 146.5,63.5 C 146.897,62.475 147.563,62.3083 148.5,63C 147.906,63.4643 147.239,63.631 146.5,63.5 Z"/></g>
<g><path style="opacity:0.293" fill="#eaebea" d="M 149.5,63.5 C 151.288,62.3775 153.288,62.2109 155.5,63C 153.527,63.4955 151.527,63.6621 149.5,63.5 Z"/></g>
<g><path style="opacity:0.502" fill="#eaebea" d="M 156.5,63.5 C 156.897,62.475 157.563,62.3083 158.5,63C 157.906,63.4643 157.239,63.631 156.5,63.5 Z"/></g>
<g><path style="opacity:0.328" fill="#eaebea" d="M 159.5,63.5 C 162.304,62.3622 165.304,62.1955 168.5,63C 165.518,63.498 162.518,63.6646 159.5,63.5 Z"/></g>
<g><path style="opacity:0.439" fill="#eaebea" d="M 169.5,63.5 C 169.897,62.475 170.563,62.3083 171.5,63C 170.906,63.4643 170.239,63.631 169.5,63.5 Z"/></g>
<g><path style="opacity:0.303" fill="#eaebea" d="M 172.5,63.5 C 174.288,62.3775 176.288,62.2109 178.5,63C 176.527,63.4955 174.527,63.6621 172.5,63.5 Z"/></g>
<g><path style="opacity:0.502" fill="#eaebea" d="M 179.5,63.5 C 179.897,62.475 180.563,62.3083 181.5,63C 180.906,63.4643 180.239,63.631 179.5,63.5 Z"/></g>
<g><path style="opacity:0.335" fill="#eaebea" d="M 188.5,63.5 C 186.473,63.6621 184.473,63.4955 182.5,63C 184.712,62.2109 186.712,62.3775 188.5,63.5 Z"/></g>
<g><path style="opacity:0.376" fill="#eaebea" d="M 188.5,63.5 C 189.525,63.8966 189.692,64.5632 189,65.5C 188.536,64.9056 188.369,64.2389 188.5,63.5 Z"/></g>
<g><path style="opacity:0.345" fill="#eaebea" d="M 188.5,66.5 C 189.525,66.8966 189.692,67.5632 189,68.5C 188.536,67.9056 188.369,67.2389 188.5,66.5 Z"/></g>
<g><path style="opacity:0.901" fill="#eaeaea" d="M 129.5,112.5 C 124.5,112.5 119.5,112.5 114.5,112.5C 114.5,105.5 114.5,98.5 114.5,91.5C 115.583,91.5394 116.583,91.8728 117.5,92.5C 117.833,92 118.167,91.5 118.5,91C 117.618,87.5592 117.284,84.0592 117.5,80.5C 119.722,80.178 121.556,80.8446 123,82.5C 124.853,78.6151 126.52,74.6151 128,70.5C 131.207,66.1947 133.373,66.528 134.5,71.5C 133.532,76.2673 131.865,80.7673 129.5,85C 131.134,85.4935 132.801,85.6602 134.5,85.5C 134.657,86.8734 134.49,88.2068 134,89.5C 131.78,92.021 129.28,94.1877 126.5,96C 130.564,96.418 132.064,98.5847 131,102.5C 129.167,103.667 127.333,104.833 125.5,106C 131.102,106.044 132.435,108.211 129.5,112.5 Z"/></g>
<g><path style="opacity:0.923" fill="#f3f3f3" d="M 188.5,69.5 C 190.114,71.0746 192.114,71.7413 194.5,71.5C 194.5,72.5 194.5,73.5 194.5,74.5C 198.866,74.0228 201.866,75.8561 203.5,80C 211.473,80.8263 211.473,81.3263 203.5,81.5C 203.318,83.5914 203.652,85.5914 204.5,87.5C 202.726,88.1867 201.059,89.0201 199.5,90C 195.827,89.8626 192.16,89.3626 188.5,88.5C 185.768,88.913 183.101,89.5797 180.5,90.5C 177.79,89.6161 175.124,88.6161 172.5,87.5C 173.451,82.2302 173.785,76.8968 173.5,71.5C 178.944,72.1083 183.944,71.4417 188.5,69.5 Z"/></g>
<g><path style="opacity:1" fill="#eb686f" d="M 75.5,85.5 C 72.5,85.5 69.5,85.5 66.5,85.5C 65.9781,93.0721 66.9781,100.405 69.5,107.5C 69.4573,108.416 69.1239,109.083 68.5,109.5C 67.5233,112.287 67.19,115.287 67.5,118.5C 67.1667,118.5 66.8333,118.5 66.5,118.5C 66.8285,114.646 66.1618,110.979 64.5,107.5C 65.4141,101.541 65.7474,95.5405 65.5,89.5C 65.5,87.8333 65.5,86.1667 65.5,84.5C 68.5,84.5 71.5,84.5 74.5,84.5C 74.0412,80.5607 74.0412,76.7273 74.5,73C 71.5878,70.3267 71.9211,68.1601 75.5,66.5C 78.1192,68.5768 78.1192,70.7435 75.5,73C 75.787,77.0421 75.787,81.2088 75.5,85.5 Z"/></g>
<g><path style="opacity:0.688" fill="#e14f59" d="M 159.5,86.5 C 158.833,86.1667 158.167,85.8333 157.5,85.5C 155.653,84.4271 153.653,84.4271 151.5,85.5C 152.984,83.9263 154.651,82.593 156.5,81.5C 162.904,79.9748 163.904,81.6415 159.5,86.5 Z"/></g>
<g><path style="opacity:0.471" fill="#eaebea" d="M 210.5,81.5 C 210.897,80.475 211.563,80.3083 212.5,81C 211.906,81.4643 211.239,81.631 210.5,81.5 Z"/></g>
<g><path style="opacity:0.241" fill="#eaebea" d="M 213.5,81.5 C 214.568,80.5655 215.901,80.2322 217.5,80.5C 217.649,81.552 217.483,82.552 217,83.5C 216.29,82.0267 215.124,81.3601 213.5,81.5 Z"/></g>
<g><path style="opacity:0.999" fill="#95363d" d="M 156.5,81.5 C 154.651,82.593 152.984,83.9263 151.5,85.5C 151.167,86.1667 150.833,86.8333 150.5,87.5C 149.5,87.8333 148.833,88.5 148.5,89.5C 148.167,89.5 147.833,89.5 147.5,89.5C 146.832,82.4944 149.832,79.8278 156.5,81.5 Z"/></g>
<g><path style="opacity:0.314" fill="#eaebea" d="M 216.5,84.5 C 217.525,84.8966 217.692,85.5632 217,86.5C 216.536,85.9056 216.369,85.2389 216.5,84.5 Z"/></g>
<g><path style="opacity:0.866" fill="#f2b495" d="M 157.5,85.5 C 158.167,85.8333 158.833,86.1667 159.5,86.5C 160.193,90.7527 159.193,94.4193 156.5,97.5C 156.22,101.225 154.22,102.392 150.5,101C 149.915,99.6976 149.249,98.531 148.5,97.5C 148.425,94.7938 148.092,92.1272 147.5,89.5C 147.833,89.5 148.167,89.5 148.5,89.5C 149.167,89.5 149.5,89.8333 149.5,90.5C 149.56,91.0431 149.893,91.3764 150.5,91.5C 151.281,90.2713 151.781,88.938 152,87.5C 152.605,89.4812 153.605,89.8146 155,88.5C 155.333,89.5 155.667,90.5 156,91.5C 156.645,90.354 157.478,89.354 158.5,88.5C 157.873,87.5832 157.539,86.5832 157.5,85.5 Z"/></g>
<g><path style="opacity:1" fill="#283238" d="M 150.5,87.5 C 150.737,88.791 150.404,89.791 149.5,90.5C 149.5,89.8333 149.167,89.5 148.5,89.5C 148.833,88.5 149.5,87.8333 150.5,87.5 Z"/></g>
<g><path style="opacity:1" fill="#b48c79" d="M 157.5,85.5 C 157.539,86.5832 157.873,87.5832 158.5,88.5C 157.478,89.354 156.645,90.354 156,91.5C 155.667,90.5 155.333,89.5 155,88.5C 153.605,89.8146 152.605,89.4812 152,87.5C 151.781,88.938 151.281,90.2713 150.5,91.5C 149.893,91.3764 149.56,91.0431 149.5,90.5C 150.404,89.791 150.737,88.791 150.5,87.5C 150.833,86.8333 151.167,86.1667 151.5,85.5C 153.653,84.4271 155.653,84.4271 157.5,85.5 Z"/></g>
<g><path style="opacity:0.209" fill="#eaebea" d="M 216.5,87.5 C 217.622,89.2884 217.789,91.2884 217,93.5C 216.505,91.5273 216.338,89.5273 216.5,87.5 Z"/></g>
<g><path style="opacity:0.251" fill="#eaebea" d="M 216.5,94.5 C 217.525,94.8966 217.692,95.5632 217,96.5C 216.536,95.9056 216.369,95.2389 216.5,94.5 Z"/></g>
<g><path style="opacity:1" fill="#f19ca2" d="M 69.5,96.5 C 73.5138,96.3345 77.5138,96.5012 81.5,97C 82.4231,99.0408 82.7564,101.208 82.5,103.5C 78.2325,103.203 74.0659,103.536 70,104.5C 68.1884,101.954 68.0217,99.2877 69.5,96.5 Z"/></g>
<g><path style="opacity:0.251" fill="#eaebea" d="M 216.5,97.5 C 217.525,97.8966 217.692,98.5632 217,99.5C 216.536,98.9056 216.369,98.2389 216.5,97.5 Z"/></g>
<g><path style="opacity:1" fill="#f8c9cd" d="M 71.5,99.5 C 74.5719,99.1826 77.5719,99.5159 80.5,100.5C 79,100.833 77.5,101.167 76,101.5C 74.0145,101.431 72.5145,100.765 71.5,99.5 Z"/></g>
<g><path style="opacity:0.97" fill="#e24f59" d="M 148.5,97.5 C 149.249,98.531 149.915,99.6976 150.5,101C 154.22,102.392 156.22,101.225 156.5,97.5C 158.5,98.8333 160.167,100.5 161.5,102.5C 160.053,103.134 159.387,104.301 159.5,106C 160.125,107.841 160.292,109.674 160,111.5C 156.793,108.85 156.293,109.016 158.5,112C 163.763,113.815 169.097,115.315 174.5,116.5C 174.5,117.167 174.5,117.833 174.5,118.5C 170.936,119.423 167.269,119.756 163.5,119.5C 160.628,118.675 157.628,117.841 154.5,117C 152.093,114.715 149.593,112.549 147,110.5C 148.548,118.998 153.715,121.998 162.5,119.5C 162.5,121.833 162.5,124.167 162.5,126.5C 160.052,127.473 157.385,127.806 154.5,127.5C 155.263,126.732 156.263,126.232 157.5,126C 154.435,125.185 152.102,126.018 150.5,128.5C 148.833,128.5 147.167,128.5 145.5,128.5C 145.736,120.182 144.736,112.015 142.5,104C 143.307,100.694 145.307,98.5275 148.5,97.5 Z"/></g>
<g><path style="opacity:0.178" fill="#eaebea" d="M 216.5,100.5 C 217.622,102.288 217.789,104.288 217,106.5C 216.505,104.527 216.338,102.527 216.5,100.5 Z"/></g>
<g><path style="opacity:1" fill="#f6f6f6" d="M 65.5,89.5 C 65.7474,95.5405 65.4141,101.541 64.5,107.5C 66.1618,110.979 66.8285,114.646 66.5,118.5C 66.0629,120.074 65.0629,121.241 63.5,122C 61.481,122.45 59.6477,123.283 58,124.5C 57.501,128.821 57.3343,133.154 57.5,137.5C 68.1667,137.833 68.1667,138.167 57.5,138.5C 57.5,142.5 57.5,146.5 57.5,150.5C 70.8333,150.833 70.8333,151.167 57.5,151.5C 57.6534,157.324 56.9867,157.657 55.5,152.5C 53.8045,153.174 52.1379,153.841 50.5,154.5C 50.5,141.167 50.5,127.833 50.5,114.5C 49.8839,93.2973 52.3839,72.6306 58,52.5C 58.2258,56.5519 57.7258,60.5519 56.5,64.5C 56.8178,65.6473 57.4844,66.4806 58.5,67C 57.552,67.4828 56.552,67.6495 55.5,67.5C 54.8333,72.5 54.1667,77.5 53.5,82.5C 57.1788,82.7244 60.8455,83.0578 64.5,83.5C 64.2053,85.7354 64.5386,87.7354 65.5,89.5 Z"/></g>
<g><path style="opacity:0.991" fill="#b04049" d="M 161.5,102.5 C 165.099,109.14 170.766,112.473 178.5,112.5C 178.5,112.833 178.5,113.167 178.5,113.5C 178.5,114.5 178.5,115.5 178.5,116.5C 177.167,116.5 175.833,116.5 174.5,116.5C 169.097,115.315 163.763,113.815 158.5,112C 156.293,109.016 156.793,108.85 160,111.5C 160.292,109.674 160.125,107.841 159.5,106C 159.387,104.301 160.053,103.134 161.5,102.5 Z"/></g>
<g><path style="opacity:0.795" fill="#283238" d="M 182.5,113.5 C 182.754,115.401 182.42,116.067 181.5,115.5C 181.027,114.094 180.027,113.427 178.5,113.5C 178.5,113.167 178.5,112.833 178.5,112.5C 178.338,110.473 178.505,108.473 179,106.5C 181.537,105.493 183.037,106.493 183.5,109.5C 183.154,110.849 182.821,112.183 182.5,113.5 Z"/></g>
<g><path style="opacity:0.314" fill="#eaebea" d="M 216.5,107.5 C 217.525,107.897 217.692,108.563 217,109.5C 216.536,108.906 216.369,108.239 216.5,107.5 Z"/></g>
<g><path style="opacity:0.944" fill="#e44f5a" d="M 191.5,110.5 C 191.185,114.371 191.518,118.038 192.5,121.5C 191.261,122.212 190.761,123.212 191,124.5C 196.347,131.21 201.18,138.21 205.5,145.5C 203.444,154.434 199.11,162.268 192.5,169C 192.728,169.399 193.062,169.565 193.5,169.5C 193.5,169.833 193.5,170.167 193.5,170.5C 191.075,173.046 188.075,174.546 184.5,175C 173.167,175.667 161.833,175.667 150.5,175C 149.016,174.338 147.683,173.504 146.5,172.5C 145.5,169.833 144.5,167.167 143.5,164.5C 147.179,164.724 150.846,165.058 154.5,165.5C 154.741,163.114 154.075,161.114 152.5,159.5C 152.686,150.177 148.019,145.01 138.5,144C 146.51,143.558 154.51,143.058 162.5,142.5C 161.167,146.5 159.833,150.5 158.5,154.5C 157.167,155.5 157.167,156.5 158.5,157.5C 158.167,158.167 157.833,158.833 157.5,159.5C 156.662,159.842 156.328,160.508 156.5,161.5C 156.459,165.585 158.125,168.752 161.5,171C 168.833,171.667 176.167,171.667 183.5,171C 187.072,170.568 189.405,168.735 190.5,165.5C 191.492,165.672 192.158,165.338 192.5,164.5C 196.174,157.614 197.341,150.281 196,142.5C 193.722,136.333 191.055,130.333 188,124.5C 185.627,123.457 183.46,123.79 181.5,125.5C 180.833,124.833 180.167,124.167 179.5,123.5C 179.5,123.167 179.5,122.833 179.5,122.5C 181.027,122.573 182.027,121.906 182.5,120.5C 183.995,120.585 184.995,119.919 185.5,118.5C 184.042,117.218 182.708,117.218 181.5,118.5C 179.015,117.26 179.015,116.26 181.5,115.5C 182.42,116.067 182.754,115.401 182.5,113.5C 184.997,111.129 187.997,110.129 191.5,110.5 Z M 177.5,157.5 C 177.107,160.513 177.774,163.18 179.5,165.5C 175.167,165.5 170.833,165.5 166.5,165.5C 165.503,165.53 164.836,165.03 164.5,164C 163.665,162.869 163.665,162.036 164.5,161.5C 165.376,161.631 166.043,161.298 166.5,160.5C 169.333,155.5 172.167,150.5 175,145.5C 175.528,149.699 176.361,153.699 177.5,157.5 Z"/></g>
<g><path style="opacity:0.768" fill="#ebeaea" d="M 191.5,110.5 C 193.533,111.898 194.533,113.898 194.5,116.5C 194.564,118.557 193.898,120.223 192.5,121.5C 191.518,118.038 191.185,114.371 191.5,110.5 Z"/></g>
<g><path style="opacity:0.88" fill="#f4f4f4" d="M 216.5,110.5 C 226.959,112.743 230.792,119.077 228,129.5C 225.009,134.653 221.176,138.986 216.5,142.5C 211.066,137.239 207.066,131.072 204.5,124C 205.551,116.787 209.551,112.287 216.5,110.5 Z M 214.5,119.5 C 219.459,118.628 221.625,120.628 221,125.5C 218.284,129.476 215.617,129.476 213,125.5C 212.252,123.16 212.752,121.16 214.5,119.5 Z"/></g>
<g><path style="opacity:0.985" fill="#f4f4f4" d="M 47.5,112.5 C 47.5,119.5 47.5,126.5 47.5,133.5C 46.5,133.5 45.5,133.5 44.5,133.5C 44.5,135.5 44.5,137.5 44.5,139.5C 37.5,139.5 30.5,139.5 23.5,139.5C 23.5,130.5 23.5,121.5 23.5,112.5C 31.5,112.5 39.5,112.5 47.5,112.5 Z"/></g>
<g><path style="opacity:1" fill="#888e91" d="M 111.5,88.5 C 111.169,96.5277 111.502,104.528 112.5,112.5C 113.167,105.345 113.833,98.3447 114.5,91.5C 114.5,98.5 114.5,105.5 114.5,112.5C 119.5,112.5 124.5,112.5 129.5,112.5C 132.713,112.19 135.713,112.523 138.5,113.5C 129.026,114.097 119.693,114.097 110.5,113.5C 110.174,104.983 110.507,96.6499 111.5,88.5 Z"/></g>
<g><path style="opacity:1" fill="#f0f0f0" d="M 110.5,113.5 C 119.693,114.097 129.026,114.097 138.5,113.5C 138.5,114.833 138.5,116.167 138.5,117.5C 129.167,117.5 119.833,117.5 110.5,117.5C 110.5,116.167 110.5,114.833 110.5,113.5 Z"/></g>
<g><path style="opacity:1" fill="#973a41" d="M 163.5,119.5 C 163.167,119.5 162.833,119.5 162.5,119.5C 153.715,121.998 148.548,118.998 147,110.5C 149.593,112.549 152.093,114.715 154.5,117C 157.628,117.841 160.628,118.675 163.5,119.5 Z"/></g>
<g><path style="opacity:1" fill="#eba78d" d="M 178.5,113.5 C 180.027,113.427 181.027,114.094 181.5,115.5C 179.015,116.26 179.015,117.26 181.5,118.5C 182.338,118.842 182.672,119.508 182.5,120.5C 182.027,121.906 181.027,122.573 179.5,122.5C 178.817,120.824 177.483,120.157 175.5,120.5C 175.167,120.5 174.833,120.5 174.5,120.5C 174.5,119.833 174.5,119.167 174.5,118.5C 174.5,117.833 174.5,117.167 174.5,116.5C 175.833,116.5 177.167,116.5 178.5,116.5C 178.5,115.5 178.5,114.5 178.5,113.5 Z"/></g>
<g><path style="opacity:1" fill="#3b383d" d="M 181.5,118.5 C 182.708,117.218 184.042,117.218 185.5,118.5C 184.995,119.919 183.995,120.585 182.5,120.5C 182.672,119.508 182.338,118.842 181.5,118.5 Z"/></g>
<g><path style="opacity:0.908" fill="#773f46" d="M 174.5,118.5 C 174.5,119.167 174.5,119.833 174.5,120.5C 174.44,121.043 174.107,121.376 173.5,121.5C 170.029,120.903 166.695,120.236 163.5,119.5C 167.269,119.756 170.936,119.423 174.5,118.5 Z"/></g>
<g><path style="opacity:0.73" fill="#2d373b" d="M 175.5,120.5 C 177.483,120.157 178.817,120.824 179.5,122.5C 179.5,122.833 179.5,123.167 179.5,123.5C 178.167,123.5 176.833,123.5 175.5,123.5C 175.5,122.5 175.5,121.5 175.5,120.5 Z"/></g>
<g><path style="opacity:1" fill="#455861" d="M 110.5,113.5 C 110.5,114.833 110.5,116.167 110.5,117.5C 119.833,117.5 129.167,117.5 138.5,117.5C 139.117,117.611 139.617,117.944 140,118.5C 140.5,125.826 140.666,133.159 140.5,140.5C 133.223,141.43 125.89,141.764 118.5,141.5C 116.517,141.157 115.183,141.824 114.5,143.5C 113.167,144.5 111.833,145.5 110.5,146.5C 110.97,143.654 110.137,141.321 108,139.5C 106.711,130.392 107.544,121.725 110.5,113.5 Z"/></g>
<g><path style="opacity:0.999" fill="#8c3037" d="M 192.5,164.5 C 191.833,164.5 191.167,164.5 190.5,164.5C 189.167,163.833 187.833,163.167 186.5,162.5C 186.5,161.5 186.5,160.5 186.5,159.5C 187.806,153.338 187.139,147.338 184.5,141.5C 184.5,140.833 184.5,140.167 184.5,139.5C 184.672,138.508 184.338,137.842 183.5,137.5C 183.453,134.031 182.787,130.698 181.5,127.5C 181.5,126.833 181.5,126.167 181.5,125.5C 183.46,123.79 185.627,123.457 188,124.5C 191.055,130.333 193.722,136.333 196,142.5C 197.341,150.281 196.174,157.614 192.5,164.5 Z"/></g>
<g><path style="opacity:0.963" fill="#273339" d="M 181.5,127.5 C 182.787,130.698 183.453,134.031 183.5,137.5C 183.328,138.492 183.662,139.158 184.5,139.5C 184.5,140.167 184.5,140.833 184.5,141.5C 184.803,147.558 185.469,153.558 186.5,159.5C 186.5,160.5 186.5,161.5 186.5,162.5C 184.043,162.792 181.376,162.792 178.5,162.5C 178.784,160.585 178.451,158.919 177.5,157.5C 176.361,153.699 175.528,149.699 175,145.5C 172.167,150.5 169.333,155.5 166.5,160.5C 166.043,161.298 165.376,161.631 164.5,161.5C 162.882,159.684 160.882,158.351 158.5,157.5C 158.5,156.5 158.5,155.5 158.5,154.5C 161.663,149.506 164.33,144.173 166.5,138.5C 165.675,137.614 164.675,137.281 163.5,137.5C 160.334,137.766 157.167,138.099 154,138.5C 151.225,138.591 148.725,137.924 146.5,136.5C 145.612,133.946 145.279,131.279 145.5,128.5C 147.167,128.5 148.833,128.5 150.5,128.5C 151.959,128.567 153.292,128.234 154.5,127.5C 157.385,127.806 160.052,127.473 162.5,126.5C 166.707,126.663 170.874,126.329 175,125.5C 177.289,125.875 179.455,126.541 181.5,127.5 Z"/></g>
<g><path style="opacity:1" fill="#96434c" d="M 154.5,127.5 C 153.292,128.234 151.959,128.567 150.5,128.5C 152.102,126.018 154.435,125.185 157.5,126C 156.263,126.232 155.263,126.732 154.5,127.5 Z"/></g>
<g><path style="opacity:0.985" fill="#eae8e8" d="M 47.5,133.5 C 47.5,141.833 47.5,150.167 47.5,158.5C 47.1667,158.5 46.8333,158.5 46.5,158.5C 46.5,157.833 46.1667,157.5 45.5,157.5C 43.7333,156.35 42.5666,157.017 42,159.5C 41.6174,158.944 41.1174,158.611 40.5,158.5C 39.5739,153.366 36.7406,151.366 32,152.5C 31.3333,153.5 31.3333,154.5 32,155.5C 33.5,157.667 35.3333,159.5 37.5,161C 35.8333,162 34.1667,163 32.5,164C 34.707,166.705 37.3737,168.871 40.5,170.5C 38.2573,171.474 35.924,171.808 33.5,171.5C 34.7163,177.051 38.0496,180.718 43.5,182.5C 38.3054,182.179 33.3054,182.513 28.5,183.5C 23.8333,183.5 19.1667,183.5 14.5,183.5C 14.5,168.833 14.5,154.167 14.5,139.5C 17.5,139.5 20.5,139.5 23.5,139.5C 30.5,139.5 37.5,139.5 44.5,139.5C 44.5,137.5 44.5,135.5 44.5,133.5C 45.5,133.5 46.5,133.5 47.5,133.5 Z"/></g>
<g><path style="opacity:0.914" fill="#445963" d="M 146.5,136.5 C 148.725,137.924 151.225,138.591 154,138.5C 157.167,138.099 160.334,137.766 163.5,137.5C 163.737,138.791 163.404,139.791 162.5,140.5C 155.5,140.5 148.5,140.5 141.5,140.5C 141.787,137.516 143.454,136.183 146.5,136.5 Z"/></g>
<g><path style="opacity:1" fill="#a5444d" d="M 140.5,140.5 C 140.833,140.5 141.167,140.5 141.5,140.5C 148.5,140.5 155.5,140.5 162.5,140.5C 162.5,141.167 162.5,141.833 162.5,142.5C 154.51,143.058 146.51,143.558 138.5,144C 148.019,145.01 152.686,150.177 152.5,159.5C 149.941,159.802 147.607,159.468 145.5,158.5C 146.833,158.5 148.167,158.5 149.5,158.5C 148.966,148.949 143.799,144.282 134,144.5C 129.845,145.5 125.679,146 121.5,146C 124.424,145.012 127.424,144.346 130.5,144C 126.56,142.985 122.56,142.485 118.5,142.5C 118.5,142.167 118.5,141.833 118.5,141.5C 125.89,141.764 133.223,141.43 140.5,140.5 Z"/></g>
<g><path style="opacity:0.996" fill="#e3515b" d="M 118.5,142.5 C 122.56,142.485 126.56,142.985 130.5,144C 127.424,144.346 124.424,145.012 121.5,146C 125.679,146 129.845,145.5 134,144.5C 143.799,144.282 148.966,148.949 149.5,158.5C 148.167,158.5 146.833,158.5 145.5,158.5C 132.788,157.532 120.122,156.199 107.5,154.5C 107.957,151.594 108.957,148.928 110.5,146.5C 111.833,145.5 113.167,144.5 114.5,143.5C 115.708,142.766 117.041,142.433 118.5,142.5 Z"/></g>
<g><path style="opacity:1" fill="#ec7b82" d="M 68.5,109.5 C 68.3336,117.174 68.5003,124.841 69,132.5C 69.2022,134.256 69.7022,135.922 70.5,137.5C 76.1667,140.333 81.8333,143.167 87.5,146C 93.1569,146.499 98.8236,146.666 104.5,146.5C 104.663,148.857 104.497,151.19 104,153.5C 103.505,151.527 103.338,149.527 103.5,147.5C 98.5107,148.222 93.5107,148.388 88.5,148C 81.8333,144.667 75.1667,141.333 68.5,138C 67.5223,131.59 67.189,125.09 67.5,118.5C 67.19,115.287 67.5233,112.287 68.5,109.5 Z"/></g>
<g><path style="opacity:0.944" fill="#e54f5a" d="M 208.5,149.5 C 215.165,150.663 219.498,154.497 221.5,161C 220.906,161.464 220.239,161.631 219.5,161.5C 217.447,161.402 215.78,162.069 214.5,163.5C 212.901,163.232 211.568,163.566 210.5,164.5C 207.733,164.858 205.067,165.525 202.5,166.5C 200.597,166.796 198.93,167.463 197.5,168.5C 196.833,168.5 196.167,168.5 195.5,168.5C 197.75,165.748 200.25,163.081 203,160.5C 204.847,156.807 206.68,153.14 208.5,149.5 Z"/></g>
<g><path style="opacity:1" fill="#612327" d="M 107.5,154.5 C 120.122,156.199 132.788,157.532 145.5,158.5C 147.607,159.468 149.941,159.802 152.5,159.5C 154.075,161.114 154.741,163.114 154.5,165.5C 150.846,165.058 147.179,164.724 143.5,164.5C 139.865,163.886 136.198,163.552 132.5,163.5C 127.964,162.189 123.297,161.523 118.5,161.5C 117.292,160.766 115.959,160.433 114.5,160.5C 112.435,160.483 110.435,160.15 108.5,159.5C 107.5,158.833 106.5,158.167 105.5,157.5C 105.285,155.821 105.952,154.821 107.5,154.5 Z"/></g>
<g><path style="opacity:1" fill="#e6505b" d="M 45.5,157.5 C 46.1667,157.5 46.5,157.833 46.5,158.5C 46.6653,162.182 46.4986,165.848 46,169.5C 45.7216,168.584 45.2216,167.918 44.5,167.5C 44.4595,164.119 44.7929,160.786 45.5,157.5 Z"/></g>
<g><path style="opacity:1" fill="#b64c55" d="M 40.5,158.5 C 41.1174,158.611 41.6174,158.944 42,159.5C 42.5666,157.017 43.7333,156.35 45.5,157.5C 44.7929,160.786 44.4595,164.119 44.5,167.5C 42.6406,166.406 40.6406,165.573 38.5,165C 39.8333,164.667 41.1667,164.333 42.5,164C 40.5,161.333 38.5,158.667 36.5,156C 38.0824,156.193 39.4157,157.026 40.5,158.5 Z"/></g>
<g><path style="opacity:1" fill="#4c6069" d="M 108.5,159.5 C 110.435,160.15 112.435,160.483 114.5,160.5C 112.445,161.559 111.111,163.225 110.5,165.5C 109.115,166.614 107.615,167.614 106,168.5C 105.308,167.975 104.808,167.308 104.5,166.5C 106.11,164.275 107.443,161.941 108.5,159.5 Z"/></g>
<g><path style="opacity:1" fill="#b2b3b6" d="M 157.5,159.5 C 160.598,159.413 160.932,159.913 158.5,161C 159.252,161.671 159.586,162.504 159.5,163.5C 158.5,162.833 157.5,162.167 156.5,161.5C 156.328,160.508 156.662,159.842 157.5,159.5 Z"/></g>
<g><path style="opacity:1" fill="#953a41" d="M 205.5,145.5 C 205.5,146.833 205.5,148.167 205.5,149.5C 206.5,149.5 207.5,149.5 208.5,149.5C 206.68,153.14 204.847,156.807 203,160.5C 200.25,163.081 197.75,165.748 195.5,168.5C 195.158,169.338 194.492,169.672 193.5,169.5C 193.062,169.565 192.728,169.399 192.5,169C 199.11,162.268 203.444,154.434 205.5,145.5 Z"/></g>
<g><path style="opacity:1" fill="#e6e4e4" d="M 105.5,157.5 C 106.5,158.167 107.5,158.833 108.5,159.5C 107.443,161.941 106.11,164.275 104.5,166.5C 104.808,167.308 105.308,167.975 106,168.5C 107.615,167.614 109.115,166.614 110.5,165.5C 110.665,168.518 110.498,171.518 110,174.5C 109.535,175.931 108.701,177.097 107.5,178C 89.5,178.667 71.5,178.667 53.5,178C 52.2986,177.097 51.4652,175.931 51,174.5C 50.501,170.179 50.3343,165.846 50.5,161.5C 68.1698,161.667 85.8365,161.5 103.5,161C 104.973,160.29 105.64,159.124 105.5,157.5 Z"/></g>
<g><path style="opacity:1" fill="#c9cacb" d="M 118.5,161.5 C 123.297,161.523 127.964,162.189 132.5,163.5C 132.38,164.586 131.713,165.253 130.5,165.5C 127.536,164.528 124.536,164.362 121.5,165C 119.859,166.129 118.859,167.629 118.5,169.5C 117.5,169.5 116.5,169.5 115.5,169.5C 115.5,170.5 115.5,171.5 115.5,172.5C 114.203,168.365 115.203,164.698 118.5,161.5 Z"/></g>
<g><path style="opacity:1" fill="#45565f" d="M 158.5,157.5 C 160.882,158.351 162.882,159.684 164.5,161.5C 163.665,162.036 163.665,162.869 164.5,164C 164.836,165.03 165.503,165.53 166.5,165.5C 166.5,165.833 166.5,166.167 166.5,166.5C 163.547,166.85 161.213,165.85 159.5,163.5C 159.586,162.504 159.252,161.671 158.5,161C 160.932,159.913 160.598,159.413 157.5,159.5C 157.833,158.833 158.167,158.167 158.5,157.5 Z"/></g>
<g><path style="opacity:0.93" fill="#455760" d="M 177.5,157.5 C 178.451,158.919 178.784,160.585 178.5,162.5C 181.376,162.792 184.043,162.792 186.5,162.5C 187.833,163.167 189.167,163.833 190.5,164.5C 186.821,164.724 183.154,165.058 179.5,165.5C 177.774,163.18 177.107,160.513 177.5,157.5 Z"/></g>
<g><path style="opacity:1" fill="#e3545d" d="M 40.5,158.5 C 39.4157,157.026 38.0824,156.193 36.5,156C 38.5,158.667 40.5,161.333 42.5,164C 41.1667,164.333 39.8333,164.667 38.5,165C 40.6406,165.573 42.6406,166.406 44.5,167.5C 44.9802,170.443 45.9802,173.11 47.5,175.5C 47.5,175.833 47.5,176.167 47.5,176.5C 47.5654,176.938 47.3988,177.272 47,177.5C 43.9978,175.829 40.8312,174.996 37.5,175C 41.0207,176.674 44.6873,177.84 48.5,178.5C 49.8333,179.167 50.8333,180.167 51.5,181.5C 48.8728,182.092 46.2062,182.425 43.5,182.5C 38.0496,180.718 34.7163,177.051 33.5,171.5C 35.924,171.808 38.2573,171.474 40.5,170.5C 37.3737,168.871 34.707,166.705 32.5,164C 34.1667,163 35.8333,162 37.5,161C 35.3333,159.5 33.5,157.667 32,155.5C 31.3333,154.5 31.3333,153.5 32,152.5C 36.7406,151.366 39.5739,153.366 40.5,158.5 Z"/></g>
<g><path style="opacity:1" fill="#e95c65" d="M 92.5,163.5 C 95.5184,163.335 98.5184,163.502 101.5,164C 102.451,167.057 102.784,170.223 102.5,173.5C 92.8944,176.561 89.5611,173.228 92.5,163.5 Z"/></g>
<g><path style="opacity:1" fill="#b0a8ab" d="M 190.5,164.5 C 191.167,164.5 191.833,164.5 192.5,164.5C 192.158,165.338 191.492,165.672 190.5,165.5C 187.519,166.163 184.519,166.83 181.5,167.5C 180.287,167.253 179.62,166.586 179.5,165.5C 183.154,165.058 186.821,164.724 190.5,164.5 Z"/></g>
<g><path style="opacity:1" fill="#2f383e" d="M 210.5,164.5 C 214.42,167.958 214.42,171.458 210.5,175C 203.49,176.158 200.823,173.325 202.5,166.5C 205.067,165.525 207.733,164.858 210.5,164.5 Z"/></g>
<g><path style="opacity:0.99" fill="#42555e" d="M 132.5,163.5 C 136.198,163.552 139.865,163.886 143.5,164.5C 144.5,167.167 145.5,169.833 146.5,172.5C 143.916,174.472 140.916,175.472 137.5,175.5C 135.95,174.28 134.284,174.28 132.5,175.5C 129.015,175.045 125.348,174.879 121.5,175C 119.84,173.512 118.84,171.679 118.5,169.5C 118.859,167.629 119.859,166.129 121.5,165C 124.536,164.362 127.536,164.528 130.5,165.5C 131.713,165.253 132.38,164.586 132.5,163.5 Z"/></g>
<g><path style="opacity:1" fill="#b25a61" d="M 46.5,158.5 C 46.8333,158.5 47.1667,158.5 47.5,158.5C 47.5,164.167 47.5,169.833 47.5,175.5C 45.9802,173.11 44.9802,170.443 44.5,167.5C 45.2216,167.918 45.7216,168.584 46,169.5C 46.4986,165.848 46.6653,162.182 46.5,158.5 Z"/></g>
<g><path style="opacity:1" fill="#cccdce" d="M 159.5,163.5 C 161.213,165.85 163.547,166.85 166.5,166.5C 163.022,168.33 160.689,167.33 159.5,163.5 Z"/></g>
<g><path style="opacity:1" fill="#8d343a" d="M 156.5,161.5 C 157.5,162.167 158.5,162.833 159.5,163.5C 160.689,167.33 163.022,168.33 166.5,166.5C 166.5,166.167 166.5,165.833 166.5,165.5C 170.833,165.5 175.167,165.5 179.5,165.5C 179.62,166.586 180.287,167.253 181.5,167.5C 184.519,166.83 187.519,166.163 190.5,165.5C 189.405,168.735 187.072,170.568 183.5,171C 176.167,171.667 168.833,171.667 161.5,171C 158.125,168.752 156.459,165.585 156.5,161.5 Z"/></g>
<g><path style="opacity:1" fill="#f8e1e3" d="M 93.5,166.5 C 95.1667,166.5 96.8333,166.5 98.5,166.5C 98.3505,167.552 98.5172,168.552 99,169.5C 99.8928,168.289 100.726,168.289 101.5,169.5C 98.9135,170.48 96.2469,170.813 93.5,170.5C 93.5,169.167 93.5,167.833 93.5,166.5 Z"/></g>
<g><path style="opacity:1" fill="#eb6b72" d="M 55.5,165.5 C 59.35,165.701 60.35,167.534 58.5,171C 54.5369,171.118 53.5369,169.284 55.5,165.5 Z"/></g>
<g><path style="opacity:1" fill="#666e72" d="M 61.5,168.5 C 62.9311,168.881 63.7645,169.881 64,171.5C 64.4828,170.552 64.6495,169.552 64.5,168.5C 66.674,168.92 68.674,168.92 70.5,168.5C 72.1013,169.035 72.6013,170.035 72,171.5C 68.7979,172.112 65.2979,172.445 61.5,172.5C 61.5,171.167 61.5,169.833 61.5,168.5 Z"/></g>
<g><path style="opacity:1" fill="#414b50" d="M 73.5,169.5 C 77.1954,168.874 78.0288,169.874 76,172.5C 75.3333,169.833 74.6667,169.833 74,172.5C 73.5172,171.552 73.3505,170.552 73.5,169.5 Z"/></g>
<g><path style="opacity:1" fill="#eeefef" d="M 118.5,169.5 C 118.84,171.679 119.84,173.512 121.5,175C 125.348,174.879 129.015,175.045 132.5,175.5C 125.576,181.513 119.909,180.513 115.5,172.5C 115.5,171.5 115.5,170.5 115.5,169.5C 116.5,169.5 117.5,169.5 118.5,169.5 Z"/></g>
<g><path style="opacity:1" fill="#e5e4e4" d="M 214.5,163.5 C 218.894,169.861 217.56,175.028 210.5,179C 202.766,179.77 198.433,176.27 197.5,168.5C 198.93,167.463 200.597,166.796 202.5,166.5C 200.823,173.325 203.49,176.158 210.5,175C 214.42,171.458 214.42,167.958 210.5,164.5C 211.568,163.566 212.901,163.232 214.5,163.5 Z"/></g>
<g><path style="opacity:1" fill="#9f454d" d="M 47.5,176.5 C 48.3382,176.842 48.6716,177.508 48.5,178.5C 44.6873,177.84 41.0207,176.674 37.5,175C 40.8312,174.996 43.9978,175.829 47,177.5C 47.3988,177.272 47.5654,176.938 47.5,176.5 Z"/></g>
<g><path style="opacity:0.818" fill="#afafb1" d="M 51.5,181.5 C 53.0269,181.427 54.0269,182.094 54.5,183.5C 45.8333,183.5 37.1667,183.5 28.5,183.5C 33.3054,182.513 38.3054,182.179 43.5,182.5C 46.2062,182.425 48.8728,182.092 51.5,181.5 Z"/></g>
</svg>
