<?xml version="1.0" encoding="UTF-8"?>
<!DOCTYPE svg PUBLIC "-//W3C//DTD SVG 1.1//EN" "http://www.w3.org/Graphics/SVG/1.1/DTD/svg11.dtd">
<svg xmlns="http://www.w3.org/2000/svg" version="1.1" width="250px" height="250px" style="shape-rendering:geometricPrecision; text-rendering:geometricPrecision; image-rendering:optimizeQuality; fill-rule:evenodd; clip-rule:evenodd" xmlns:xlink="http://www.w3.org/1999/xlink">
<g><path style="opacity:0.915" fill="#dfe0df" d="M 157.5,32.5 C 160.688,32.6178 163.688,33.4511 166.5,35C 168.353,39.1077 170.353,43.1077 172.5,47C 174.568,47.6869 176.568,47.5202 178.5,46.5C 179.5,47 180.5,47.5 181.5,48C 183.021,51.6442 183.855,55.4775 184,59.5C 192.935,63.3773 195.935,70.044 193,79.5C 191.92,81.9962 190.586,84.3295 189,86.5C 186.667,80.8333 184.333,75.1667 182,69.5C 178.306,63.4693 173.139,59.3026 166.5,57C 158.978,55.4039 151.478,53.9039 144,52.5C 144.287,42.9106 148.787,36.2439 157.5,32.5 Z"/></g>
<g><path style="opacity:0.636" fill="#dfe0df" d="M 90.5,42.5 C 94.0131,43.0282 95.0131,44.8615 93.5,48C 89.5369,48.1177 88.5369,46.2843 90.5,42.5 Z"/></g>
<g><path style="opacity:0.872" fill="#eaeaea" d="M 68.5,62.5 C 68.1961,63.1499 67.8627,63.8165 67.5,64.5C 68.9649,70.7533 69.9649,77.0867 70.5,83.5C 68.5,83.5 66.5,83.5 64.5,83.5C 64.5,82.8333 64.1667,82.5 63.5,82.5C 61.8333,81.5 60.5,80.1667 59.5,78.5C 60.6002,77.4415 61.9336,76.6082 63.5,76C 60.4826,75.4954 58.1492,73.9954 56.5,71.5C 57.5,69.8333 58.8333,68.5 60.5,67.5C 58.2065,65.7701 55.7065,64.4367 53,63.5C 52.8333,62.8333 52.6667,62.1667 52.5,61.5C 53.2485,59.9644 54.2485,58.6311 55.5,57.5C 51.2999,53.7674 49.2999,49.1008 49.5,43.5C 51.3084,43.4914 52.9751,43.9914 54.5,45C 57.0373,47.9063 59.204,51.073 61,54.5C 62.4443,52.8446 64.2776,52.178 66.5,52.5C 66.8994,56.0109 67.5661,59.3443 68.5,62.5 Z"/></g>
<g><path style="opacity:0.447" fill="#dfe0df" d="M 101.5,46.5 C 102.5,46.5 103.5,46.5 104.5,46.5C 103.754,50.31 102.754,50.31 101.5,46.5 Z"/></g>
<g><path style="opacity:0.843" fill="#26373d" d="M 126.5,54.5 C 123.659,52.1565 120.493,51.4899 117,52.5C 117.05,57.0234 115.55,58.0234 112.5,55.5C 111.389,50.1131 113.556,47.1131 119,46.5C 122.436,46.8492 125.769,47.5158 129,48.5C 129.667,50.1667 129.667,51.8333 129,53.5C 128.329,54.2524 127.496,54.5858 126.5,54.5 Z"/></g>
<g><path style="opacity:0.961" fill="#f2b193" d="M 126.5,54.5 C 126.763,58.6002 126.43,62.6002 125.5,66.5C 124.761,66.369 124.094,66.5357 123.5,67C 124.423,69.0408 124.756,71.2075 124.5,73.5C 120.395,73.2288 116.728,71.8955 113.5,69.5C 113.768,67.901 113.434,66.5676 112.5,65.5C 111.988,61.9651 111.988,58.6318 112.5,55.5C 115.55,58.0234 117.05,57.0234 117,52.5C 120.493,51.4899 123.659,52.1565 126.5,54.5 Z"/></g>
<g><path style="opacity:1" fill="#ffcccf" d="M 159.5,85.5 C 160.179,83.1861 161.512,82.8528 163.5,84.5C 164.251,83.624 164.751,82.624 165,81.5C 165.333,81.8333 165.667,82.1667 166,82.5C 166.684,81.2161 166.517,80.0495 165.5,79C 166.308,78.6924 166.975,78.1924 167.5,77.5C 165.284,76.1942 162.951,75.6942 160.5,76C 163.063,76.763 163.063,77.263 160.5,77.5C 157.868,76.5601 155.202,76.3934 152.5,77C 154.382,77.1981 156.048,77.6981 157.5,78.5C 153.466,78.5045 149.466,78.8379 145.5,79.5C 145.737,80.791 145.404,81.791 144.5,82.5C 142.522,78.5216 139.522,75.5216 135.5,73.5C 136.127,68.8592 136.46,64.1925 136.5,59.5C 141.894,59.7325 147.227,60.3992 152.5,61.5C 152.196,64.5219 151.696,67.5219 151,70.5C 150.79,68.9419 150.29,67.6085 149.5,66.5C 148.292,63.9558 146.292,62.6225 143.5,62.5C 139.427,62.9464 137.427,65.2798 137.5,69.5C 137.263,70.791 137.596,71.791 138.5,72.5C 140.814,75.6142 143.814,76.2809 147.5,74.5C 148.298,74.0431 148.631,73.3764 148.5,72.5C 149.167,72.5 149.5,72.1667 149.5,71.5C 150.302,72.9516 150.802,74.6183 151,76.5C 152.376,71.2449 153.209,65.9116 153.5,60.5C 147.599,59.0431 141.599,58.3764 135.5,58.5C 135.695,62.9152 135.195,67.2486 134,71.5C 133.283,70.9558 132.783,70.2891 132.5,69.5C 132.833,64.8333 133.167,60.1667 133.5,55.5C 147.76,55.7183 161.427,58.5517 174.5,64C 172.081,72.1727 169.581,80.3393 167,88.5C 164.528,87.3989 162.028,86.3989 159.5,85.5 Z"/></g>
<g><path style="opacity:1" fill="#ffd2d4" d="M 109.5,68.5 C 108.251,70.1361 106.584,71.3028 104.5,72C 106.207,72.1953 107.874,72.1953 109.5,72C 107.377,73.1937 105.043,73.8603 102.5,74C 101.915,75.3024 101.249,76.469 100.5,77.5C 95.2062,77.6253 90.2062,78.6253 85.5,80.5C 82.4467,80.1107 79.78,80.7773 77.5,82.5C 76.5041,82.5858 75.6708,82.2524 75,81.5C 74.7305,78.7759 74.2305,76.1092 73.5,73.5C 73.9767,72.5224 74.6433,71.6891 75.5,71C 73.2344,69.486 72.0677,67.3193 72,64.5C 71.6905,65.7659 71.1905,66.9326 70.5,68C 72.8058,72.4932 73.4725,77.1599 72.5,82C 74.0249,83.0086 75.6916,83.5086 77.5,83.5C 78.3382,83.8417 78.6716,84.5084 78.5,85.5C 76.4496,85.9612 74.4496,86.6279 72.5,87.5C 71.2949,86.4231 70.6282,85.0898 70.5,83.5C 69.9649,77.0867 68.9649,70.7533 67.5,64.5C 67.8627,63.8165 68.1961,63.1499 68.5,62.5C 70.0654,60.2812 72.0654,59.9479 74.5,61.5C 85.6094,58.3764 96.9427,56.7097 108.5,56.5C 108.395,60.5483 108.728,64.5483 109.5,68.5 Z"/></g>
<g><path style="opacity:1" fill="#fea3a8" d="M 149.5,71.5 C 149.5,69.8333 149.5,68.1667 149.5,66.5C 150.29,67.6085 150.79,68.9419 151,70.5C 151.696,67.5219 152.196,64.5219 152.5,61.5C 147.227,60.3992 141.894,59.7325 136.5,59.5C 136.46,64.1925 136.127,68.8592 135.5,73.5C 134.272,74.3065 133.272,75.3065 132.5,76.5C 132.167,76.5 131.833,76.5 131.5,76.5C 132.301,74.9582 132.634,73.2915 132.5,71.5C 131.127,71.6567 129.793,71.49 128.5,71C 129.056,70.6174 129.389,70.1174 129.5,69.5C 130.5,69.5 131.5,69.5 132.5,69.5C 132.783,70.2891 133.283,70.9558 134,71.5C 135.195,67.2486 135.695,62.9152 135.5,58.5C 141.599,58.3764 147.599,59.0431 153.5,60.5C 153.209,65.9116 152.376,71.2449 151,76.5C 150.802,74.6183 150.302,72.9516 149.5,71.5 Z"/></g>
<g><path style="opacity:1" fill="#ff5660" d="M 143.5,62.5 C 143.5,64.5 143.5,66.5 143.5,68.5C 141.5,68.8333 139.5,69.1667 137.5,69.5C 137.427,65.2798 139.427,62.9464 143.5,62.5 Z"/></g>
<g><path style="opacity:1" fill="#ca5259" d="M 143.5,62.5 C 146.292,62.6225 148.292,63.9558 149.5,66.5C 149.5,68.1667 149.5,69.8333 149.5,71.5C 149.5,72.1667 149.167,72.5 148.5,72.5C 145.084,68.5657 141.75,68.5657 138.5,72.5C 137.596,71.791 137.263,70.791 137.5,69.5C 139.5,69.1667 141.5,68.8333 143.5,68.5C 143.5,66.5 143.5,64.5 143.5,62.5 Z"/></g>
<g><path style="opacity:1" fill="#ffafb3" d="M 77.5,82.5 C 77.5,82.8333 77.5,83.1667 77.5,83.5C 75.6916,83.5086 74.0249,83.0086 72.5,82C 73.4725,77.1599 72.8058,72.4932 70.5,68C 71.1905,66.9326 71.6905,65.7659 72,64.5C 72.0677,67.3193 73.2344,69.486 75.5,71C 74.6433,71.6891 73.9767,72.5224 73.5,73.5C 74.2305,76.1092 74.7305,78.7759 75,81.5C 75.6708,82.2524 76.5041,82.5858 77.5,82.5 Z"/></g>
<g><path style="opacity:1" fill="#ff515d" d="M 148.5,72.5 C 148.631,73.3764 148.298,74.0431 147.5,74.5C 143.814,76.2809 140.814,75.6142 138.5,72.5C 141.75,68.5657 145.084,68.5657 148.5,72.5 Z"/></g>
<g><path style="opacity:1" fill="#fc555f" d="M 112.5,65.5 C 113.434,66.5676 113.768,67.901 113.5,69.5C 112.427,70.2506 112.26,71.2506 113,72.5C 114.315,74.3159 115.815,75.9825 117.5,77.5C 118.883,74.9244 119.717,75.2577 120,78.5C 120.483,77.552 120.649,76.552 120.5,75.5C 122.483,75.8432 123.817,75.1765 124.5,73.5C 125.451,72.0813 125.784,70.4147 125.5,68.5C 127.099,68.2322 128.432,68.5655 129.5,69.5C 129.389,70.1174 129.056,70.6174 128.5,71C 129.793,71.49 131.127,71.6567 132.5,71.5C 132.634,73.2915 132.301,74.9582 131.5,76.5C 131.5,78.5 131.5,80.5 131.5,82.5C 129.897,82.3118 128.563,82.8118 127.5,84C 128.449,84.6172 129.282,84.4506 130,83.5C 130.722,86.2605 130.555,88.9272 129.5,91.5C 128.5,91.5 127.5,91.5 126.5,91.5C 126.357,89.7376 126.691,88.0709 127.5,86.5C 127.03,85.537 126.363,85.537 125.5,86.5C 123.907,89.3561 122.573,92.3561 121.5,95.5C 120.71,94.3915 120.21,93.0581 120,91.5C 117.22,94.0153 114.386,94.0153 111.5,91.5C 112.278,93.2247 112.611,94.8914 112.5,96.5C 114.599,94.4658 116.932,94.1324 119.5,95.5C 116.912,96.5841 114.745,98.2507 113,100.5C 111.993,98.2584 111.159,98.5918 110.5,101.5C 109.126,101.208 107.793,100.875 106.5,100.5C 106.214,98.0673 105.548,98.0673 104.5,100.5C 103.167,100.5 101.833,100.5 100.5,100.5C 100.5,101.5 100.5,102.5 100.5,103.5C 99.6618,103.158 99.3284,102.492 99.5,101.5C 98.1667,98.5 98.1667,95.5 99.5,92.5C 98.8826,92.6107 98.3826,92.944 98,93.5C 97.5034,95.8098 97.3367,98.1432 97.5,100.5C 94.3094,98.3687 90.9761,98.3687 87.5,100.5C 87.5,99.8333 87.5,99.1667 87.5,98.5C 89.4286,98.7692 91.0953,98.2692 92.5,97C 88.9295,94.9322 86.2629,92.0988 84.5,88.5C 86.8333,88.1667 88.1667,86.8333 88.5,84.5C 90.0012,83.5573 91.3346,83.8906 92.5,85.5C 91.8953,87.0257 90.7286,88.0257 89,88.5C 88.786,91.3135 89.9527,91.9802 92.5,90.5C 93.4287,89.3112 93.762,87.9778 93.5,86.5C 95.0443,86.7031 96.3777,87.3698 97.5,88.5C 98.4207,86.2235 99.0874,83.8901 99.5,81.5C 99.4346,81.0618 99.6012,80.7284 100,80.5C 100.333,81.5 100.667,82.5 101,83.5C 101.654,84.6956 102.154,84.6956 102.5,83.5C 101.289,82.2798 101.289,81.1131 102.5,80C 101.244,79.5831 100.577,78.7498 100.5,77.5C 101.249,76.469 101.915,75.3024 102.5,74C 105.043,73.8603 107.377,73.1937 109.5,72C 107.874,72.1953 106.207,72.1953 104.5,72C 106.584,71.3028 108.251,70.1361 109.5,68.5C 111.144,68.1898 112.144,67.1898 112.5,65.5 Z M 106.5,100.5 C 105.833,100.5 105.167,100.5 104.5,100.5C 105.548,98.0673 106.214,98.0673 106.5,100.5 Z"/></g>
<g><path style="opacity:1" fill="#753940" d="M 125.5,66.5 C 125.5,67.1667 125.5,67.8333 125.5,68.5C 125.784,70.4147 125.451,72.0813 124.5,73.5C 124.756,71.2075 124.423,69.0408 123.5,67C 124.094,66.5357 124.761,66.369 125.5,66.5 Z"/></g>
<g><path style="opacity:1" fill="#ac4148" d="M 113.5,69.5 C 116.728,71.8955 120.395,73.2288 124.5,73.5C 123.817,75.1765 122.483,75.8432 120.5,75.5C 120.649,76.552 120.483,77.552 120,78.5C 119.717,75.2577 118.883,74.9244 117.5,77.5C 115.815,75.9825 114.315,74.3159 113,72.5C 112.26,71.2506 112.427,70.2506 113.5,69.5 Z"/></g>
<g><path style="opacity:0.816" fill="#ff515d" d="M 181.5,85.5 C 181.565,85.0618 181.399,84.7284 181,84.5C 178.914,87.0939 176.414,89.0939 173.5,90.5C 173.914,85.9255 174.581,81.4255 175.5,77C 177.163,76.7351 178.663,77.2351 180,78.5C 181.554,80.8962 182.054,83.2295 181.5,85.5 Z"/></g>
<g><path style="opacity:1" fill="#ffbec1" d="M 100.5,77.5 C 100.577,78.7498 101.244,79.5831 102.5,80C 101.289,81.1131 101.289,82.2798 102.5,83.5C 102.154,84.6956 101.654,84.6956 101,83.5C 100.667,82.5 100.333,81.5 100,80.5C 99.6012,80.7284 99.4346,81.0618 99.5,81.5C 96.8559,81.1601 94.5225,81.8267 92.5,83.5C 91.2638,82.7542 89.9305,82.4208 88.5,82.5C 86.9731,82.573 85.9731,81.9063 85.5,80.5C 90.2062,78.6253 95.2062,77.6253 100.5,77.5 Z"/></g>
<g><path style="opacity:1" fill="#ffb294" d="M 159.5,85.5 C 159.167,85.5 158.833,85.5 158.5,85.5C 158.802,82.9407 158.468,80.6074 157.5,78.5C 156.048,77.6981 154.382,77.1981 152.5,77C 155.202,76.3934 157.868,76.5601 160.5,77.5C 163.063,77.263 163.063,76.763 160.5,76C 162.951,75.6942 165.284,76.1942 167.5,77.5C 166.975,78.1924 166.308,78.6924 165.5,79C 166.517,80.0495 166.684,81.2161 166,82.5C 165.667,82.1667 165.333,81.8333 165,81.5C 164.751,82.624 164.251,83.624 163.5,84.5C 161.512,82.8528 160.179,83.1861 159.5,85.5 Z"/></g>
<g><path style="opacity:0.897" fill="#fe5b64" d="M 135.5,73.5 C 139.522,75.5216 142.522,78.5216 144.5,82.5C 145.404,81.791 145.737,80.791 145.5,79.5C 149.466,78.8379 153.466,78.5045 157.5,78.5C 158.468,80.6074 158.802,82.9407 158.5,85.5C 153.037,86.9074 147.537,88.2407 142,89.5C 139.317,88.907 136.817,87.907 134.5,86.5C 133.518,83.2365 132.851,79.9032 132.5,76.5C 133.272,75.3065 134.272,74.3065 135.5,73.5 Z"/></g>
<g><path style="opacity:1" fill="#c45f67" d="M 125.5,86.5 C 124.167,86.5 122.833,86.5 121.5,86.5C 120.16,88.2333 119.993,85.8999 121,79.5C 121.718,78.5494 122.551,78.3828 123.5,79C 120.745,82.3394 121.411,84.8394 125.5,86.5 Z"/></g>
<g><path style="opacity:1" fill="#ffd1d4" d="M 59.5,78.5 C 60.5,80.1667 61.8333,81.5 63.5,82.5C 64.1667,82.5 64.5,82.8333 64.5,83.5C 70.9341,90.2281 78.6008,95.2281 87.5,98.5C 87.5,99.1667 87.5,99.8333 87.5,100.5C 88.249,108.159 88.9157,115.826 89.5,123.5C 87.5853,123.784 85.9187,123.451 84.5,122.5C 85.2625,121.732 86.2625,121.232 87.5,121C 78.7984,118.902 71.6317,114.402 66,107.5C 64.4641,103.618 63.7974,99.618 64,95.5C 64.5556,97.5951 65.0556,97.7618 65.5,96C 65.1377,94.7753 64.6377,93.6086 64,92.5C 63.6667,92.8333 63.3333,93.1667 63,93.5C 63.0872,89.8776 61.9205,86.8776 59.5,84.5C 58.2584,82.3888 58.2584,80.3888 59.5,78.5 Z"/></g>
<g><path style="opacity:1" fill="#fd8e94" d="M 106.5,81.5 C 106.5,81.1667 106.5,80.8333 106.5,80.5C 108.549,80.2942 108.883,79.4609 107.5,78C 110.162,74.9132 111.662,75.4132 112,79.5C 111.257,77.3553 110.424,77.1886 109.5,79C 109.903,80.4728 110.57,81.8061 111.5,83C 113.204,82.0279 115.038,80.8612 117,79.5C 120.431,82.0862 119.931,84.0862 115.5,85.5C 114.719,86.7287 114.219,88.062 114,89.5C 112.865,85.3893 110.365,82.7226 106.5,81.5 Z"/></g>
<g><path style="opacity:1" fill="#ae4b51" d="M 131.5,76.5 C 131.833,76.5 132.167,76.5 132.5,76.5C 132.851,79.9032 133.518,83.2365 134.5,86.5C 133.175,85.0474 132.342,85.3808 132,87.5C 131.505,89.4727 131.338,91.4727 131.5,93.5C 130.833,92.8333 130.167,92.1667 129.5,91.5C 130.555,88.9272 130.722,86.2605 130,83.5C 129.282,84.4506 128.449,84.6172 127.5,84C 128.563,82.8118 129.897,82.3118 131.5,82.5C 131.5,80.5 131.5,78.5 131.5,76.5 Z"/></g>
<g><path style="opacity:1" fill="#fc9ba1" d="M 144.5,82.5 C 144.586,83.4959 144.252,84.3292 143.5,85C 140.854,85.4974 138.187,85.6641 135.5,85.5C 135.351,84.448 135.517,83.448 136,82.5C 138.907,85.1148 141.74,85.1148 144.5,82.5 Z"/></g>
<g><path style="opacity:1" fill="#ffb594" d="M 85.5,80.5 C 85.9731,81.9063 86.9731,82.573 88.5,82.5C 88.5,83.1667 88.5,83.8333 88.5,84.5C 88.1667,86.8333 86.8333,88.1667 84.5,88.5C 82.9256,88.0629 81.7589,87.0629 81,85.5C 80.2303,86.5981 79.397,86.5981 78.5,85.5C 78.6716,84.5084 78.3382,83.8417 77.5,83.5C 77.5,83.1667 77.5,82.8333 77.5,82.5C 79.78,80.7773 82.4467,80.1107 85.5,80.5 Z"/></g>
<g><path style="opacity:1" fill="#ffd2d4" d="M 181.5,85.5 C 181.5,86.8333 181.5,88.1667 181.5,89.5C 181.5,90.1667 181.5,90.8333 181.5,91.5C 179.417,94.5268 177.417,97.6934 175.5,101C 178.044,102.099 178.044,103.265 175.5,104.5C 174.131,102.876 172.464,102.376 170.5,103C 168.965,105.624 167.798,108.457 167,111.5C 162.16,111.514 159.327,113.847 158.5,118.5C 167.917,117.788 175.25,113.455 180.5,105.5C 181.289,105.783 181.956,106.283 182.5,107C 180.054,109.233 178.72,112.067 178.5,115.5C 173.594,120.62 167.594,123.62 160.5,124.5C 158.5,124.5 156.5,124.5 154.5,124.5C 154.5,121.5 154.5,118.5 154.5,115.5C 154.447,109.804 154.78,104.138 155.5,98.5C 155.5,98.1667 155.5,97.8333 155.5,97.5C 161.413,95.4959 167.413,93.1626 173.5,90.5C 176.414,89.0939 178.914,87.0939 181,84.5C 181.399,84.7284 181.565,85.0618 181.5,85.5 Z"/></g>
<g><path style="opacity:1" fill="#af4b51" d="M 106.5,80.5 C 106.5,80.8333 106.5,81.1667 106.5,81.5C 106.963,84.4824 107.296,87.4824 107.5,90.5C 109.099,90.2322 110.432,90.5655 111.5,91.5C 109.517,91.1568 108.183,91.8235 107.5,93.5C 106.566,94.5676 106.232,95.901 106.5,97.5C 104.846,95.4403 103.846,92.9403 103.5,90C 104.684,88.8197 105.351,87.3197 105.5,85.5C 104.862,82.4972 104.695,79.4972 105,76.5C 105.21,78.0581 105.71,79.3915 106.5,80.5 Z"/></g>
<g><path style="opacity:1" fill="#fd858d" d="M 92.5,85.5 C 93.1667,85.5 93.5,85.8333 93.5,86.5C 93.762,87.9778 93.4287,89.3112 92.5,90.5C 89.9527,91.9802 88.786,91.3135 89,88.5C 90.7286,88.0257 91.8953,87.0257 92.5,85.5 Z"/></g>
<g><path style="opacity:1" fill="#b05258" d="M 129.5,91.5 C 126.398,91.9846 123.731,93.3179 121.5,95.5C 122.573,92.3561 123.907,89.3561 125.5,86.5C 126.363,85.537 127.03,85.537 127.5,86.5C 126.691,88.0709 126.357,89.7376 126.5,91.5C 127.5,91.5 128.5,91.5 129.5,91.5 Z"/></g>
<g><path style="opacity:1" fill="#a14750" d="M 99.5,92.5 C 98.3113,89.0109 99.1446,88.6776 102,91.5C 102.831,96.4832 101.998,96.8165 99.5,92.5 Z"/></g>
<g><path style="opacity:1" fill="#ff5963" d="M 181.5,91.5 C 181.002,96.1522 180.669,100.819 180.5,105.5C 175.25,113.455 167.917,117.788 158.5,118.5C 159.327,113.847 162.16,111.514 167,111.5C 167.798,108.457 168.965,105.624 170.5,103C 172.464,102.376 174.131,102.876 175.5,104.5C 178.044,103.265 178.044,102.099 175.5,101C 177.417,97.6934 179.417,94.5268 181.5,91.5 Z"/></g>
<g><path style="opacity:1" fill="#fd949a" d="M 99.5,92.5 C 98.1667,95.5 98.1667,98.5 99.5,101.5C 98.5084,101.672 97.8417,101.338 97.5,100.5C 97.3367,98.1432 97.5034,95.8098 98,93.5C 98.3826,92.944 98.8826,92.6107 99.5,92.5 Z"/></g>
<g><path style="opacity:0.537" fill="#fa535d" d="M 129.5,91.5 C 130.167,92.1667 130.833,92.8333 131.5,93.5C 139.17,95.237 147.17,96.5703 155.5,97.5C 155.5,97.8333 155.5,98.1667 155.5,98.5C 149.864,97.6475 144.198,96.9809 138.5,96.5C 136.048,96.5391 134.048,97.2057 132.5,98.5C 130.459,100.935 128.126,101.102 125.5,99C 126.299,94.5038 125.466,94.3371 123,98.5C 121.961,97.7562 121.461,96.7562 121.5,95.5C 123.731,93.3179 126.398,91.9846 129.5,91.5 Z"/></g>
<g><path style="opacity:0.67" fill="#dfe0df" d="M 51.5,97.5 C 52.8333,97.5 54.1667,97.5 55.5,97.5C 55.5,99.1667 55.5,100.833 55.5,102.5C 51.065,103.078 49.7317,101.411 51.5,97.5 Z"/></g>
<g><path style="opacity:1" fill="#cb6a70" d="M 111.5,91.5 C 114.386,94.0153 117.22,94.0153 120,91.5C 120.21,93.0581 120.71,94.3915 121.5,95.5C 121.461,96.7562 121.961,97.7562 123,98.5C 125.466,94.3371 126.299,94.5038 125.5,99C 128.126,101.102 130.459,100.935 132.5,98.5C 133.5,99.1667 134.5,99.8333 135.5,100.5C 131.119,102.211 126.453,102.877 121.5,102.5C 122.091,101.849 122.757,101.182 123.5,100.5C 122.24,99.6184 121.074,98.6184 120,97.5C 117.736,98.8505 115.902,100.517 114.5,102.5C 113.041,102.567 111.708,102.234 110.5,101.5C 111.159,98.5918 111.993,98.2584 113,100.5C 114.745,98.2507 116.912,96.5841 119.5,95.5C 116.932,94.1324 114.599,94.4658 112.5,96.5C 112.611,94.8914 112.278,93.2247 111.5,91.5 Z"/></g>
<g><path style="opacity:1" fill="#fa5963" d="M 121.5,102.5 C 119.167,101.167 116.833,101.167 114.5,102.5C 115.902,100.517 117.736,98.8505 120,97.5C 121.074,98.6184 122.24,99.6184 123.5,100.5C 122.757,101.182 122.091,101.849 121.5,102.5 Z"/></g>
<g><path style="opacity:0.875" fill="#f2f2f2" d="M 187.5,114.5 C 187.167,114.5 186.833,114.5 186.5,114.5C 183.946,115.388 181.279,115.721 178.5,115.5C 178.72,112.067 180.054,109.233 182.5,107C 181.956,106.283 181.289,105.783 180.5,105.5C 180.669,100.819 181.002,96.1522 181.5,91.5C 181.5,90.8333 181.5,90.1667 181.5,89.5C 183.806,88.2154 185.639,88.8821 187,91.5C 188.723,88.275 191.223,85.9416 194.5,84.5C 196.397,84.7282 197.73,85.7282 198.5,87.5C 197.028,90.8054 194.695,93.3054 191.5,95C 194.284,95.4362 195.45,96.9362 195,99.5C 192.707,101.372 190.207,102.872 187.5,104C 193.421,103.855 194.921,106.355 192,111.5C 190.385,112.386 188.885,113.386 187.5,114.5 Z"/></g>
<g><path style="opacity:1" fill="#fed5d7" d="M 104.5,100.5 C 105.167,100.5 105.833,100.5 106.5,100.5C 107.793,100.875 109.126,101.208 110.5,101.5C 111.708,102.234 113.041,102.567 114.5,102.5C 116.833,101.167 119.167,101.167 121.5,102.5C 126.453,102.877 131.119,102.211 135.5,100.5C 137.5,100.5 139.5,100.5 141.5,100.5C 142.5,100.5 143.5,100.5 144.5,100.5C 144.5,109.5 144.5,118.5 144.5,127.5C 140.404,129.023 136.071,130.023 131.5,130.5C 128.5,130.5 125.5,130.5 122.5,130.5C 117.138,130.528 111.805,130.194 106.5,129.5C 104.958,128.699 103.292,128.366 101.5,128.5C 101.5,127.833 101.5,127.167 101.5,126.5C 100.857,118.85 100.523,111.183 100.5,103.5C 100.5,102.5 100.5,101.5 100.5,100.5C 101.833,100.5 103.167,100.5 104.5,100.5 Z"/></g>
<g><path style="opacity:0.6" fill="#f2838b" d="M 141.5,100.5 C 142.568,99.5655 143.901,99.2322 145.5,99.5C 144.903,109.097 145.569,118.43 147.5,127.5C 147.5,127.833 147.5,128.167 147.5,128.5C 146.609,127.89 145.609,127.557 144.5,127.5C 144.5,118.5 144.5,109.5 144.5,100.5C 143.5,100.5 142.5,100.5 141.5,100.5 Z"/></g>
<g><path style="opacity:0.448" fill="#dfe0df" d="M 148.5,102.5 C 150.465,102.948 150.798,103.948 149.5,105.5C 147.481,104.867 147.147,103.867 148.5,102.5 Z"/></g>
<g><path style="opacity:1" fill="#ffb5b9" d="M 106.5,106.5 C 110.154,106.942 113.821,107.276 117.5,107.5C 117.662,109.527 117.495,111.527 117,113.5C 113.606,112.544 110.106,112.211 106.5,112.5C 106.5,110.5 106.5,108.5 106.5,106.5 Z"/></g>
<g><path style="opacity:1" fill="#ff545f" d="M 133.5,107.5 C 135.5,107.5 137.5,107.5 139.5,107.5C 139.5,112.833 139.5,118.167 139.5,123.5C 137.5,123.5 135.5,123.5 133.5,123.5C 133.5,118.167 133.5,112.833 133.5,107.5 Z"/></g>
<g><path style="opacity:1" fill="#ffb5b9" d="M 129.5,125.5 C 127.833,125.5 126.167,125.5 124.5,125.5C 124.5,119.833 124.5,114.167 124.5,108.5C 130.947,107.605 133.28,110.438 131.5,117C 131.389,120.105 130.722,122.938 129.5,125.5 Z"/></g>
<g><path style="opacity:1" fill="#ffdbdd" d="M 126.5,109.5 C 127.496,109.414 128.329,109.748 129,110.5C 129.453,113.84 129.953,117.174 130.5,120.5C 130.22,123.711 128.72,124.711 126,123.5C 125.227,118.748 125.393,114.081 126.5,109.5 Z"/></g>
<g><path style="opacity:0.348" fill="#fc4f5b" d="M 64.5,109.5 C 65.3382,109.842 65.6716,110.508 65.5,111.5C 63.0397,114.425 63.2063,117.425 66,120.5C 72.2877,125.143 79.2877,128.143 87,129.5C 91.8653,128.575 96.6986,127.575 101.5,126.5C 101.5,127.167 101.5,127.833 101.5,128.5C 97.9872,128.307 94.6538,128.974 91.5,130.5C 96.4575,131.779 101.458,132.779 106.5,133.5C 106.5,133.833 106.5,134.167 106.5,134.5C 99.1692,133.332 91.8358,132.499 84.5,132C 78.5392,133.627 74.2059,137.127 71.5,142.5C 75.1577,148.51 80.491,152.344 87.5,154C 89.5,154.5 91.5,155 93.5,155.5C 97.8229,154.369 102.156,153.369 106.5,152.5C 106.5,153.167 106.5,153.833 106.5,154.5C 93.177,155.497 93.177,156.497 106.5,157.5C 106.5,157.833 106.5,158.167 106.5,158.5C 98.7698,156.351 91.4364,157.185 84.5,161C 80.5,164.333 80.5,167.667 84.5,171C 90.9773,174.869 97.9773,177.036 105.5,177.5C 105.833,178.833 106.167,178.833 106.5,177.5C 109.237,177.401 111.904,177.735 114.5,178.5C 120.987,179.654 127.654,179.821 134.5,179C 128.621,177.59 122.621,177.09 116.5,177.5C 116.5,176.833 116.833,176.5 117.5,176.5C 125.757,176.193 133.923,176.86 142,178.5C 142.902,178.257 143.735,177.923 144.5,177.5C 146.099,177.232 147.432,177.566 148.5,178.5C 147.448,178.351 146.448,178.517 145.5,179C 148.267,180.083 150.933,181.25 153.5,182.5C 153.5,183.167 153.833,183.5 154.5,183.5C 154.5,183.833 154.5,184.167 154.5,184.5C 155.041,187.652 154.041,190.152 151.5,192C 147.019,193.954 142.352,195.287 137.5,196C 128.167,196.667 118.833,196.667 109.5,196C 105.324,195.329 101.324,194.162 97.5,192.5C 96.1667,191.833 94.8333,191.167 93.5,190.5C 92.6765,188.545 92.5099,186.545 93,184.5C 95.6259,181.769 98.7926,179.936 102.5,179C 94.3638,177.845 87.1972,174.678 81,169.5C 80.3333,167.167 80.3333,164.833 81,162.5C 83.5702,160.131 86.4036,158.131 89.5,156.5C 83.8435,154.671 78.5101,152.171 73.5,149C 69.5,144.667 69.5,140.333 73.5,136C 76.5544,133.806 79.8878,132.139 83.5,131C 76.1867,128.928 69.6867,125.428 64,120.5C 61.8664,116.647 62.033,112.98 64.5,109.5 Z M 116.5,177.5 C 122.621,177.09 128.621,177.59 134.5,179C 127.654,179.821 120.987,179.654 114.5,178.5C 115.492,178.672 116.158,178.338 116.5,177.5 Z M 106.5,189.5 C 108.01,188.164 109.677,186.997 111.5,186C 112.823,185.184 113.489,184.017 113.5,182.5C 123.132,180.504 133.132,179.671 143.5,180C 147.062,180.739 150.228,182.239 153,184.5C 153.92,187.308 153.087,189.475 150.5,191C 135.804,195.776 120.804,196.776 105.5,194C 89.6122,189.072 89.6122,184.239 105.5,179.5C 105.833,179.833 106.167,180.167 106.5,180.5C 104.688,183.603 103.688,186.936 103.5,190.5C 104.791,190.737 105.791,190.404 106.5,189.5 Z"/></g>
<g><path style="opacity:1" fill="#fe4f5a" d="M 121.5,124.5 C 119.833,124.5 118.167,124.5 116.5,124.5C 116.5,121.167 116.5,117.833 116.5,114.5C 118.167,114.5 119.833,114.5 121.5,114.5C 121.5,117.833 121.5,121.167 121.5,124.5 Z"/></g>
<g><path style="opacity:0.333" fill="#fe4f5b" d="M 186.5,114.5 C 186.833,114.5 187.167,114.5 187.5,114.5C 187.559,118.548 185.892,121.715 182.5,124C 176.883,127.317 170.883,129.65 164.5,131C 168.663,133.248 172.663,135.748 176.5,138.5C 178.197,143.293 176.864,147.126 172.5,150C 167.828,152.837 162.828,154.837 157.5,156C 162.239,157.119 166.072,159.619 169,163.5C 169.525,169.093 167.025,172.759 161.5,174.5C 160.833,174.5 160.5,174.167 160.5,173.5C 168.85,170.099 169.85,165.599 163.5,160C 161.167,159 158.833,158 156.5,157C 144.312,158.986 131.978,159.82 119.5,159.5C 119.5,159.167 119.5,158.833 119.5,158.5C 130.257,158.81 140.924,157.976 151.5,156C 141.34,153.408 131.007,152.241 120.5,152.5C 120.5,152.167 120.5,151.833 120.5,151.5C 132.369,151.226 144.035,152.559 155.5,155.5C 161.034,153.822 166.367,151.655 171.5,149C 175.902,145.992 176.569,142.325 173.5,138C 169.538,135.436 165.371,133.269 161,131.5C 157.951,132.61 154.784,133.277 151.5,133.5C 151.167,133.5 150.833,133.5 150.5,133.5C 150.5,133.167 150.5,132.833 150.5,132.5C 153.166,132.067 155.832,131.567 158.5,131C 154.93,129.69 151.263,128.857 147.5,128.5C 147.5,128.167 147.5,127.833 147.5,127.5C 161.374,131.832 173.874,129.165 185,119.5C 186.009,117.975 186.509,116.308 186.5,114.5 Z"/></g>
<g><path style="opacity:0.965" fill="#ffb7bb" d="M 59.5,84.5 C 61.9205,86.8776 63.0872,89.8776 63,93.5C 63.3333,93.1667 63.6667,92.8333 64,92.5C 64.6377,93.6086 65.1377,94.7753 65.5,96C 65.0556,97.7618 64.5556,97.5951 64,95.5C 63.7974,99.618 64.4641,103.618 66,107.5C 71.6317,114.402 78.7984,118.902 87.5,121C 86.2625,121.232 85.2625,121.732 84.5,122.5C 77.1248,120.645 70.7915,116.979 65.5,111.5C 65.6716,110.508 65.3382,109.842 64.5,109.5C 63.7784,109.082 63.2784,108.416 63,107.5C 61.6148,99.8562 60.4481,92.1896 59.5,84.5 Z"/></g>
<g><path style="opacity:0.242" fill="#dfe0df" d="M 48.5,124.5 C 50.0481,124.821 50.7148,125.821 50.5,127.5C 54.5,128.167 54.5,128.833 50.5,129.5C 49.8333,133.5 49.1667,133.5 48.5,129.5C 44.5,128.833 44.5,128.167 48.5,127.5C 48.5,126.5 48.5,125.5 48.5,124.5 Z"/></g>
<g><path style="opacity:0.867" fill="#ffa2a8" d="M 154.5,115.5 C 154.5,118.5 154.5,121.5 154.5,124.5C 156.5,124.5 158.5,124.5 160.5,124.5C 158.393,125.468 156.059,125.802 153.5,125.5C 153.187,121.958 153.521,118.625 154.5,115.5 Z"/></g>
<g><path style="opacity:1" fill="#ff9ea4" d="M 116.5,124.5 C 118.167,124.5 119.833,124.5 121.5,124.5C 121.082,125.222 120.416,125.722 119.5,126C 123.027,126.808 126.36,126.641 129.5,125.5C 131.857,125.337 134.19,125.503 136.5,126C 128.173,127.953 119.84,127.953 111.5,126C 113.382,125.802 115.048,125.302 116.5,124.5 Z"/></g>
<g><path style="opacity:0.893" fill="#dfe0df" d="M 61.5,127.5 C 64.617,127.642 67.117,128.976 69,131.5C 67.7188,136.371 67.0521,141.371 67,146.5C 68.9739,152.474 72.9739,156.474 79,158.5C 79.8513,161.053 79.518,163.386 78,165.5C 77.2545,164.01 76.0879,163.01 74.5,162.5C 65.1746,161.663 58.0079,157.33 53,149.5C 51.4494,144.383 52.7827,140.383 57,137.5C 56.5617,133.098 58.0617,129.765 61.5,127.5 Z"/></g>
<g><path style="opacity:0.956" fill="#1f3138" d="M 144.5,127.5 C 145.609,127.557 146.609,127.89 147.5,128.5C 148.5,129.833 149.5,131.167 150.5,132.5C 145.203,133.275 139.87,133.608 134.5,133.5C 134.167,133.5 133.833,133.5 133.5,133.5C 132.833,132.5 132.167,131.5 131.5,130.5C 136.071,130.023 140.404,129.023 144.5,127.5 Z"/></g>
<g><path style="opacity:0.47" fill="#fe4f5a" d="M 71.5,128.5 C 74.6741,128.952 75.0075,129.952 72.5,131.5C 70.4807,130.867 70.1474,129.867 71.5,128.5 Z"/></g>
<g><path style="opacity:0.949" fill="#1c3037" d="M 106.5,129.5 C 111.805,130.194 117.138,130.528 122.5,130.5C 122.5,131.833 122.5,133.167 122.5,134.5C 117.187,133.902 111.854,133.569 106.5,133.5C 106.5,132.167 106.5,130.833 106.5,129.5 Z"/></g>
<g><path style="opacity:0.595" fill="#fe505c" d="M 179.5,131.5 C 178.833,131.833 178.167,132.167 177.5,132.5C 176.15,131.176 176.317,130.176 178,129.5C 179.03,129.836 179.53,130.503 179.5,131.5 Z"/></g>
<g><path style="opacity:0.854" fill="#e0dfdf" d="M 179.5,131.5 C 182.321,131.316 183.988,132.649 184.5,135.5C 188.254,136.891 189.421,139.557 188,143.5C 185.943,145.234 185.443,147.234 186.5,149.5C 185.968,151.741 184.635,153.241 182.5,154C 179.5,154.667 176.5,154.667 173.5,154C 179.979,149.605 180.979,144.439 176.5,138.5C 176.325,136.379 176.659,134.379 177.5,132.5C 178.167,132.167 178.833,131.833 179.5,131.5 Z"/></g>
<g><path style="opacity:1" fill="#6a3a43" d="M 106.5,134.5 C 106.5,134.167 106.5,133.833 106.5,133.5C 111.854,133.569 117.187,133.902 122.5,134.5C 122.5,134.833 122.5,135.167 122.5,135.5C 117.155,135.313 111.822,134.98 106.5,134.5 Z"/></g>
<g><path style="opacity:0.408" fill="#fe4f5a" d="M 133.5,133.5 C 133.833,133.5 134.167,133.5 134.5,133.5C 134.5,134.167 134.5,134.833 134.5,135.5C 133.167,135.5 131.833,135.5 130.5,135.5C 127.833,135.5 125.167,135.5 122.5,135.5C 122.5,135.167 122.5,134.833 122.5,134.5C 126.269,134.756 129.936,134.423 133.5,133.5 Z"/></g>
<g><path style="opacity:1" fill="#7b3d46" d="M 150.5,132.5 C 150.5,132.833 150.5,133.167 150.5,133.5C 145.167,134.167 139.833,134.833 134.5,135.5C 134.5,134.833 134.5,134.167 134.5,133.5C 139.87,133.608 145.203,133.275 150.5,132.5 Z"/></g>
<g><path style="opacity:0.978" fill="#1a2f36" d="M 150.5,133.5 C 150.833,133.5 151.167,133.5 151.5,133.5C 151.665,136.518 151.498,139.518 151,142.5C 150.167,143.333 149.333,144.167 148.5,145C 140.614,146.82 132.614,148.154 124.5,149C 122.563,149.122 121.23,149.955 120.5,151.5C 120.5,151.833 120.5,152.167 120.5,152.5C 119.85,154.435 119.517,156.435 119.5,158.5C 115.119,158.628 110.785,158.295 106.5,157.5C 106.5,156.5 106.5,155.5 106.5,154.5C 106.5,153.833 106.5,153.167 106.5,152.5C 106.5,146.5 106.5,140.5 106.5,134.5C 111.822,134.98 117.155,135.313 122.5,135.5C 122.62,136.586 123.287,137.253 124.5,137.5C 126.717,137.122 128.717,136.455 130.5,135.5C 131.833,135.5 133.167,135.5 134.5,135.5C 139.833,134.833 145.167,134.167 150.5,133.5 Z M 122.5,135.5 C 125.167,135.5 127.833,135.5 130.5,135.5C 128.717,136.455 126.717,137.122 124.5,137.5C 123.287,137.253 122.62,136.586 122.5,135.5 Z"/></g>
<g><path style="opacity:0.329" fill="#fe4f5a" d="M 94.5,142.5 C 96.337,142.639 96.6704,143.306 95.5,144.5C 94.7025,144.043 94.3691,143.376 94.5,142.5 Z"/></g>
<g><path style="opacity:0.723" fill="#dfe0df" d="M 152.5,146.5 C 156.161,146.35 157.161,147.85 155.5,151C 154.207,151.49 152.873,151.657 151.5,151.5C 151.366,149.708 151.699,148.042 152.5,146.5 Z"/></g>
<g><path style="opacity:0.376" fill="#fe4f5a" d="M 167.5,156.5 C 169.76,157.238 169.927,158.238 168,159.5C 167.517,158.552 167.351,157.552 167.5,156.5 Z"/></g>
<g><path style="opacity:0.938" fill="#1d3038" d="M 106.5,158.5 C 110.735,159.436 115.069,159.769 119.5,159.5C 118.588,165.131 117.921,170.798 117.5,176.5C 116.833,176.5 116.5,176.833 116.5,177.5C 116.158,178.338 115.492,178.672 114.5,178.5C 111.904,177.735 109.237,177.401 106.5,177.5C 106.167,177.5 105.833,177.5 105.5,177.5C 105.295,171.122 105.628,164.789 106.5,158.5 Z"/></g>
<g><path style="opacity:1" fill="#793e47" d="M 106.5,158.5 C 106.5,158.167 106.5,157.833 106.5,157.5C 110.785,158.295 115.119,158.628 119.5,158.5C 119.5,158.833 119.5,159.167 119.5,159.5C 115.069,159.769 110.735,159.436 106.5,158.5 Z"/></g>
<g><path style="opacity:0.234" fill="#dfe0df" d="M 184.5,159.5 C 185.404,160.209 185.737,161.209 185.5,162.5C 190.833,163.167 190.833,163.833 185.5,164.5C 185.167,168.5 184.833,168.5 184.5,164.5C 180.5,163.833 180.5,163.167 184.5,162.5C 184.5,161.5 184.5,160.5 184.5,159.5 Z"/></g>
<g><path style="opacity:0.475" fill="#dfe0df" d="M 101.5,167.5 C 104.548,167.494 105.048,168.494 103,170.5C 101.961,169.756 101.461,168.756 101.5,167.5 Z"/></g>
<g><path style="opacity:0.509" fill="#fe4f5a" d="M 129.5,172.5 C 132.674,172.952 133.007,173.952 130.5,175.5C 128.481,174.867 128.147,173.867 129.5,172.5 Z"/></g>
<g><path style="opacity:0.877" fill="#e0dddd" d="M 160.5,173.5 C 160.5,174.167 160.833,174.5 161.5,174.5C 162.185,176.414 162.685,178.414 163,180.5C 167.309,185.655 166.476,190.155 160.5,194C 157.626,195.919 154.626,196.419 151.5,195.5C 155.346,192.517 156.346,188.85 154.5,184.5C 154.5,184.167 154.5,183.833 154.5,183.5C 153.833,183.5 153.5,183.167 153.5,182.5C 152.421,180.457 150.754,179.124 148.5,178.5C 147.432,177.566 146.099,177.232 144.5,177.5C 142.611,176.678 140.611,175.845 138.5,175C 141.343,173.483 144.177,171.983 147,170.5C 148.626,171.289 150.126,172.289 151.5,173.5C 154.531,172.175 157.531,172.175 160.5,173.5 Z"/></g>
<g><path style="opacity:0.282" fill="#fe4f5a" d="M 121.5,183.5 C 123.76,184.238 123.927,185.238 122,186.5C 121.517,185.552 121.351,184.552 121.5,183.5 Z"/></g>
<g><path style="opacity:0.906" fill="#ff9fa6" d="M 113.5,182.5 C 113.489,184.017 112.823,185.184 111.5,186C 109.677,186.997 108.01,188.164 106.5,189.5C 106.062,189.565 105.728,189.399 105.5,189C 107.771,186.218 110.437,184.051 113.5,182.5 Z"/></g>
<g><path style="opacity:0.719" fill="#dfe0df" d="M 133.5,185.5 C 135.484,185.484 136.484,186.484 136.5,188.5C 135.137,192.362 133.471,192.362 131.5,188.5C 132.193,187.482 132.859,186.482 133.5,185.5 Z"/></g>
<g><path style="opacity:0.815" fill="#dfe0df" d="M 93.5,190.5 C 94.8333,191.167 96.1667,191.833 97.5,192.5C 97.5,194.167 97.5,195.833 97.5,197.5C 98.9305,197.579 100.264,197.246 101.5,196.5C 103.818,197.949 105.818,199.782 107.5,202C 109.5,202.333 111.5,202.667 113.5,203C 112.541,204.464 111.208,205.297 109.5,205.5C 100.592,204.482 92.0919,202.149 84,198.5C 83.2888,196.633 83.7888,195.133 85.5,194C 87.8175,192.007 90.4842,190.841 93.5,190.5 Z"/></g>
</svg>
