<?xml version="1.0" encoding="UTF-8"?>
<!DOCTYPE svg PUBLIC "-//W3C//DTD SVG 1.1//EN" "http://www.w3.org/Graphics/SVG/1.1/DTD/svg11.dtd">
<svg xmlns="http://www.w3.org/2000/svg" version="1.1" width="250px" height="250px" style="shape-rendering:geometricPrecision; text-rendering:geometricPrecision; image-rendering:optimizeQuality; fill-rule:evenodd; clip-rule:evenodd" xmlns:xlink="http://www.w3.org/1999/xlink">
<g><path style="opacity:0.359" fill="#253237" d="M 122.5,42.5 C 123.117,42.6107 123.617,42.944 124,43.5C 124.667,49.5 124.667,55.5 124,61.5C 123.654,55.143 123.154,48.8097 122.5,42.5 Z"/></g>
<g><path style="opacity:0.173" fill="#253237" d="M 112.5,43.5 C 114.337,43.6395 114.67,44.3061 113.5,45.5C 112.702,45.0431 112.369,44.3764 112.5,43.5 Z"/></g>
<g><path style="opacity:0.897" fill="#e4e4e4" d="M 35.5,45.5 C 53.5,45.5 71.5,45.5 89.5,45.5C 89.5,57.8333 89.5,70.1667 89.5,82.5C 71.5,82.5 53.5,82.5 35.5,82.5C 35.5,70.1667 35.5,57.8333 35.5,45.5 Z"/></g>
<g><path style="opacity:0.306" fill="#253237" d="M 112.5,47.5 C 115.526,50.4142 116.692,54.0809 116,58.5C 114.726,54.8463 113.56,51.1796 112.5,47.5 Z"/></g>
<g><path style="opacity:0.272" fill="#253237" d="M 141.5,47.5 C 144.001,47.5109 144.168,48.1776 142,49.5C 141.536,48.9056 141.369,48.2389 141.5,47.5 Z"/></g>
<g><path style="opacity:0.316" fill="#253237" d="M 138.5,50.5 C 140.646,50.6964 140.812,51.6964 139,53.5C 136.333,56.1667 133.667,58.8333 131,61.5C 130.333,60.8333 130.333,60.1667 131,59.5C 133.985,56.8384 136.485,53.8384 138.5,50.5 Z"/></g>
<g><path style="opacity:1" fill="#fdfdfd" d="M 37.5,46.5 C 53.5035,46.3334 69.5035,46.5001 85.5,47C 86.6533,58.0902 86.82,69.2569 86,80.5C 69.9075,81.6575 53.7408,81.8242 37.5,81C 36.1768,69.5001 36.1768,58.0001 37.5,46.5 Z"/></g>
<g><path style="opacity:0.308" fill="#253237" d="M 100.5,53.5 C 104.625,56.4526 108.625,59.6193 112.5,63C 111.092,63.3152 109.759,62.9819 108.5,62C 105.551,59.2243 102.884,56.391 100.5,53.5 Z"/></g>
<g><path style="opacity:0.328" fill="#253237" d="M 149.5,58.5 C 150.773,59.0768 150.773,59.7435 149.5,60.5C 144.37,63.2647 139.036,65.0981 133.5,66C 139.014,63.7413 144.347,61.2413 149.5,58.5 Z"/></g>
<g><path style="opacity:1" fill="#e3e3e3" d="M 49.5,58.5 C 57.84,58.3336 66.1733,58.5003 74.5,59C 75.8333,62 75.8333,65 74.5,68C 66.1733,68.4997 57.84,68.6664 49.5,68.5C 49.5,65.1667 49.5,61.8333 49.5,58.5 Z"/></g>
<g><path style="opacity:0.163" fill="#253237" d="M 95.5,62.5 C 96.3864,61.2241 97.3864,61.2241 98.5,62.5C 97.5754,63.5624 96.5754,63.5624 95.5,62.5 Z"/></g>
<g><path style="opacity:0.345" fill="#253237" d="M 102.5,65.5 C 105.029,64.5511 107.362,65.2178 109.5,67.5C 109.333,67.8333 109.167,68.1667 109,68.5C 107.007,67.086 104.84,66.086 102.5,65.5 Z"/></g>
<g><path style="opacity:0.933" fill="#b58674" d="M 125.5,82.5 C 124.322,85.5227 124.322,88.5227 125.5,91.5C 125.5,92.5 125.5,93.5 125.5,94.5C 125.5,102.167 125.5,109.833 125.5,117.5C 119.899,124.439 113.899,131.106 107.5,137.5C 104.236,139.094 101.569,141.427 99.5,144.5C 97.39,143.547 96.2233,141.881 96,139.5C 95.5007,134.511 95.3341,129.511 95.5,124.5C 100.735,120.773 105.568,116.44 110,111.5C 112.156,102.222 113.989,92.8891 115.5,83.5C 115.313,79.5439 114.646,75.7106 113.5,72C 114.624,71.1612 115.291,69.9945 115.5,68.5C 115.16,66.4878 114.827,64.4878 114.5,62.5C 118.806,62.3029 120.806,64.3029 120.5,68.5C 123.205,68.3802 123.872,69.3802 122.5,71.5C 123.97,75.0485 124.97,78.7151 125.5,82.5 Z"/></g>
<g><path style="opacity:0.933" fill="#febc9a" d="M 138.5,113.5 C 138.66,118.566 138.16,123.566 137,128.5C 136.777,130.881 135.61,132.547 133.5,133.5C 132.833,133.167 132.167,132.833 131.5,132.5C 127.017,128.528 125.017,123.528 125.5,117.5C 125.5,109.833 125.5,102.167 125.5,94.5C 126.833,93.5 126.833,92.5 125.5,91.5C 124.322,88.5227 124.322,85.5227 125.5,82.5C 126.625,78.2402 127.958,73.9069 129.5,69.5C 130.425,68.3595 131.259,68.3595 132,69.5C 133.844,84.2267 136.01,98.8934 138.5,113.5 Z"/></g>
<g><path style="opacity:0.314" fill="#253237" d="M 146.5,69.5 C 147.601,68.4017 148.934,68.235 150.5,69C 149.207,69.49 147.873,69.6567 146.5,69.5 Z"/></g>
<g><path style="opacity:0.308" fill="#253237" d="M 139.5,69.5 C 145.899,69.7562 145.732,70.4229 139,71.5C 137.833,71.3333 136.667,71.1667 135.5,71C 137.058,70.79 138.391,70.29 139.5,69.5 Z"/></g>
<g><path style="opacity:1" fill="#f2f2f2" d="M 178.5,37.5 C 188.167,37.5 197.833,37.5 207.5,37.5C 207.5,51.1667 207.5,64.8333 207.5,78.5C 197.833,78.5 188.167,78.5 178.5,78.5C 178.5,64.8333 178.5,51.1667 178.5,37.5 Z"/></g>
<g><path style="opacity:1" fill="#fefefe" d="M 182.5,42.5 C 188.833,42.5 195.167,42.5 201.5,42.5C 201.5,52.5 201.5,62.5 201.5,72.5C 195.167,72.5 188.833,72.5 182.5,72.5C 182.5,62.5 182.5,52.5 182.5,42.5 Z"/></g>
<g><path style="opacity:1" fill="#e2e2e2" d="M 188.5,48.5 C 191.167,48.5 193.833,48.5 196.5,48.5C 196.5,55.1667 196.5,61.8333 196.5,68.5C 193.833,68.5 191.167,68.5 188.5,68.5C 188.5,61.8333 188.5,55.1667 188.5,48.5 Z"/></g>
<g><path style="opacity:0.981" fill="#f0f0f0" d="M 171.5,95.5 C 169.883,96.038 168.216,96.3713 166.5,96.5C 166.5,89.5 166.5,82.5 166.5,75.5C 161.5,75.5 156.5,75.5 151.5,75.5C 151.5,83.5 151.5,91.5 151.5,99.5C 154.833,99.5 158.167,99.5 161.5,99.5C 160.974,101.23 159.974,102.564 158.5,103.5C 154.833,103.5 151.167,103.5 147.5,103.5C 147.5,92.8333 147.5,82.1667 147.5,71.5C 155.5,71.5 163.5,71.5 171.5,71.5C 171.5,79.5 171.5,87.5 171.5,95.5 Z"/></g>
<g><path style="opacity:1" fill="#fdfdfd" d="M 166.5,96.5 C 164.999,97.7515 163.332,98.7515 161.5,99.5C 158.167,99.5 154.833,99.5 151.5,99.5C 151.5,91.5 151.5,83.5 151.5,75.5C 156.5,75.5 161.5,75.5 166.5,75.5C 166.5,82.5 166.5,89.5 166.5,96.5 Z"/></g>
<g><path style="opacity:1" fill="#e1e1e1" d="M 156.5,80.5 C 158.5,80.5 160.5,80.5 162.5,80.5C 162.5,85.8333 162.5,91.1667 162.5,96.5C 160.5,96.5 158.5,96.5 156.5,96.5C 156.5,91.1667 156.5,85.8333 156.5,80.5 Z"/></g>
<g><path style="opacity:0.918" fill="#f3f2f3" d="M 207.5,163.5 C 205.412,161.664 204.079,159.331 203.5,156.5C 204.952,149.129 202.952,142.962 197.5,138C 191.262,136.605 188.262,132.772 188.5,126.5C 191.562,127.47 194.562,128.304 197.5,129C 195.872,125.948 194.539,122.782 193.5,119.5C 193.717,116.579 193.051,113.913 191.5,111.5C 191.085,109.052 192.085,107.719 194.5,107.5C 196.697,107.848 198.53,108.848 200,110.5C 200.333,110.167 200.667,109.833 201,109.5C 201.651,101.263 203.318,93.263 206,85.5C 209.488,82.5385 212.155,83.2052 214,87.5C 214.138,95.3404 212.971,103.007 210.5,110.5C 210.808,111.308 211.308,111.975 212,112.5C 215.484,110.784 218.318,111.451 220.5,114.5C 217.367,120.585 213.367,126.085 208.5,131C 212.089,131.207 215.589,131.707 219,132.5C 218.941,138.764 216.108,143.597 210.5,147C 222.695,144.925 224.695,148.592 216.5,158C 213.472,159.844 210.472,161.678 207.5,163.5 Z"/></g>
<g><path style="opacity:1" fill="#29353b" d="M 77.5,129.5 C 70.5779,130.966 65.0779,128.633 61,122.5C 59.8436,118.582 59.3436,114.582 59.5,110.5C 56.7395,109.915 55.0728,110.915 54.5,113.5C 54.7282,115.397 55.7282,116.73 57.5,117.5C 58.4742,119.743 58.8076,122.076 58.5,124.5C 57.391,124.443 56.391,124.11 55.5,123.5C 53.8333,122.833 52.1667,122.167 50.5,121.5C 50.5,120.5 50.5,119.5 50.5,118.5C 49.5,118.5 48.5,118.5 47.5,118.5C 47.2148,116.712 47.5481,115.045 48.5,113.5C 49.8139,112.687 50.9805,111.687 52,110.5C 52.2599,106.75 52.9266,103.084 54,99.5C 56.4656,97.3283 58.6323,94.8283 60.5,92C 64.6455,90.5495 68.8122,90.7162 73,92.5C 75.7296,91.1386 78.5629,90.6386 81.5,91C 82.9362,93.6433 85.1028,95.4766 88,96.5C 88.7429,98.4406 88.5762,100.274 87.5,102C 91.6804,106.039 91.0137,109.206 85.5,111.5C 86.5437,116.786 85.7104,121.786 83,126.5C 81.7365,128.607 79.9032,129.607 77.5,129.5 Z"/></g>
<g><path style="opacity:0.982" fill="#2a353a" d="M 171.5,95.5 C 176.022,96.6921 180.355,98.3588 184.5,100.5C 186.704,103.447 187.704,106.78 187.5,110.5C 188.959,110.433 190.292,110.766 191.5,111.5C 193.051,113.913 193.717,116.579 193.5,119.5C 192.18,120.942 190.514,121.608 188.5,121.5C 188.5,123.167 188.5,124.833 188.5,126.5C 188.262,132.772 191.262,136.605 197.5,138C 202.952,142.962 204.952,149.129 203.5,156.5C 198.36,162.883 191.693,165.05 183.5,163C 182,162.167 180.833,161 180,159.5C 179.24,155.775 179.407,152.108 180.5,148.5C 179.645,147.707 178.811,148.04 178,149.5C 177.82,147.512 177.986,145.512 178.5,143.5C 180.062,138.571 180.395,133.571 179.5,128.5C 178.105,129.815 177.105,129.481 176.5,127.5C 178.042,125.121 178.709,122.454 178.5,119.5C 178.302,115.355 177.635,111.355 176.5,107.5C 174.253,107.915 172.086,108.582 170,109.5C 168.774,109.355 167.607,109.022 166.5,108.5C 165.784,109.311 164.95,109.978 164,110.5C 162.56,109.852 161.06,109.519 159.5,109.5C 158.539,107.735 158.205,105.735 158.5,103.5C 159.974,102.564 160.974,101.23 161.5,99.5C 163.332,98.7515 164.999,97.7515 166.5,96.5C 168.216,96.3713 169.883,96.038 171.5,95.5 Z"/></g>
<g><path style="opacity:1" fill="#a67e6f" d="M 63.5,99.5 C 69.1083,100.699 74.775,101.699 80.5,102.5C 80.8503,105.722 81.5169,108.888 82.5,112C 81.5145,114.815 79.5145,116.315 76.5,116.5C 72.9939,115.231 69.4939,115.231 66,116.5C 64.2894,116.561 62.956,115.894 62,114.5C 60.9548,109.215 61.4548,104.215 63.5,99.5 Z"/></g>
<g><path style="opacity:0.98" fill="#f6b797" d="M 178.5,143.5 C 171.377,145.938 166.71,143.605 164.5,136.5C 165.782,135.292 165.782,133.958 164.5,132.5C 162.814,131.143 161.148,129.81 159.5,128.5C 158.518,122.232 158.518,115.899 159.5,109.5C 161.06,109.519 162.56,109.852 164,110.5C 164.95,109.978 165.784,109.311 166.5,108.5C 167.607,109.022 168.774,109.355 170,109.5C 172.086,108.582 174.253,107.915 176.5,107.5C 177.635,111.355 178.302,115.355 178.5,119.5C 178.709,122.454 178.042,125.121 176.5,127.5C 177.105,129.481 178.105,129.815 179.5,128.5C 180.395,133.571 180.062,138.571 178.5,143.5 Z"/></g>
<g><path style="opacity:0.911" fill="#f3f3f3" d="M 50.5,121.5 C 52.1667,122.167 53.8333,122.833 55.5,123.5C 56.3242,126.764 56.6576,130.098 56.5,133.5C 52.5889,136.465 48.2555,138.965 43.5,141C 41.6859,143.479 40.0192,145.979 38.5,148.5C 33.2282,146.274 28.7282,142.94 25,138.5C 24.2025,136.741 24.3691,135.074 25.5,133.5C 28.1092,132.77 30.7759,132.27 33.5,132C 33.9574,131.586 34.2907,131.086 34.5,130.5C 31.4791,127.314 28.6458,123.98 26,120.5C 21.8021,110.364 24.9687,106.864 35.5,110C 39.3723,115.626 42.8723,121.46 46,127.5C 46.7911,124.896 48.2911,122.896 50.5,121.5 Z"/></g>
<g><path style="opacity:1" fill="#6d5f59" d="M 171.5,112.5 C 172.849,111.203 174.182,111.37 175.5,113C 174.072,113.579 172.738,113.412 171.5,112.5 Z"/></g>
<g><path style="opacity:1" fill="#826d63" d="M 166.5,114.5 C 167.043,114.56 167.376,114.893 167.5,115.5C 166.342,117.4 165.675,119.067 165.5,120.5C 164.531,118.383 164.864,116.383 166.5,114.5 Z"/></g>
<g><path style="opacity:1" fill="#eeb192" d="M 181.5,116.5 C 182.833,116.5 184.167,116.5 185.5,116.5C 186.595,121.386 184.928,123.052 180.5,121.5C 181.309,119.929 181.643,118.262 181.5,116.5 Z"/></g>
<g><path style="opacity:1" fill="#a7acaf" d="M 71.5,116.5 C 72.6828,117.504 74.0161,118.338 75.5,119C 73.0551,119.91 71.7218,119.076 71.5,116.5 Z"/></g>
<g><path style="opacity:0.969" fill="#e5545e" d="M 138.5,113.5 C 139.5,113.5 140.5,113.5 141.5,113.5C 141.5,114.5 141.5,115.5 141.5,116.5C 146.369,121.711 151.369,127.044 156.5,132.5C 157.913,133.935 159.58,134.935 161.5,135.5C 161.539,136.583 161.873,137.583 162.5,138.5C 162.167,138.833 161.833,139.167 161.5,139.5C 160.749,138.624 160.249,137.624 160,136.5C 159.262,139.212 159.929,141.545 162,143.5C 162.333,142.5 162.667,141.5 163,140.5C 163.654,141.696 164.154,141.696 164.5,140.5C 163.754,139.264 163.421,137.93 163.5,136.5C 163.833,136.5 164.167,136.5 164.5,136.5C 166.71,143.605 171.377,145.938 178.5,143.5C 177.986,145.512 177.82,147.512 178,149.5C 178.811,148.04 179.645,147.707 180.5,148.5C 179.407,152.108 179.24,155.775 180,159.5C 180.833,161 182,162.167 183.5,163C 191.693,165.05 198.36,162.883 203.5,156.5C 204.079,159.331 205.412,161.664 207.5,163.5C 210.833,171.167 214.167,178.833 217.5,186.5C 216.833,186.5 216.167,186.5 215.5,186.5C 213.05,186.298 210.717,186.631 208.5,187.5C 206.856,187.714 205.356,187.38 204,186.5C 203.967,188.281 203.133,189.948 201.5,191.5C 197.997,186.498 194.997,181.165 192.5,175.5C 190.945,172.06 189.112,168.727 187,165.5C 186.242,167.769 186.409,169.936 187.5,172C 185.068,173.087 185.402,173.587 188.5,173.5C 188.335,176.85 188.502,180.183 189,183.5C 189.41,182.099 189.91,180.766 190.5,179.5C 194.011,185.861 197.011,192.528 199.5,199.5C 199.5,199.833 199.5,200.167 199.5,200.5C 184.5,200.5 169.5,200.5 154.5,200.5C 154.5,199.833 154.167,199.5 153.5,199.5C 153.679,188.81 153.345,178.143 152.5,167.5C 151.284,164.129 150.284,160.795 149.5,157.5C 143.273,150.726 137.273,143.726 131.5,136.5C 132.401,135.71 133.068,134.71 133.5,133.5C 135.61,132.547 136.777,130.881 137,128.5C 138.16,123.566 138.66,118.566 138.5,113.5 Z"/></g>
<g><path style="opacity:0.979" fill="#b28373" d="M 77.5,129.5 C 77.5,130.167 77.5,130.833 77.5,131.5C 76.2027,139.985 71.536,142.485 63.5,139C 62.086,137.007 61.086,134.84 60.5,132.5C 59.8333,129.833 59.1667,127.167 58.5,124.5C 58.8076,122.076 58.4742,119.743 57.5,117.5C 55.7282,116.73 54.7282,115.397 54.5,113.5C 55.0728,110.915 56.7395,109.915 59.5,110.5C 59.3436,114.582 59.8436,118.582 61,122.5C 65.0779,128.633 70.5779,130.966 77.5,129.5 Z"/></g>
<g><path style="opacity:1" fill="#b85058" d="M 141.5,116.5 C 141.967,119.04 142.967,121.373 144.5,123.5C 143.954,125.135 143.62,126.801 143.5,128.5C 142.5,128.5 141.5,128.5 140.5,128.5C 141.056,124.264 141.39,120.264 141.5,116.5 Z"/></g>
<g><path style="opacity:0.929" fill="#393b3f" d="M 159.5,128.5 C 161.148,129.81 162.814,131.143 164.5,132.5C 165.782,133.958 165.782,135.292 164.5,136.5C 164.167,136.5 163.833,136.5 163.5,136.5C 162.833,136.167 162.167,135.833 161.5,135.5C 159.58,134.935 157.913,133.935 156.5,132.5C 157.974,131.564 158.974,130.23 159.5,128.5 Z"/></g>
<g><path style="opacity:0.987" fill="#d04e57" d="M 77.5,131.5 C 78.5,131.5 79.5,131.5 80.5,131.5C 79.7383,144.547 73.405,148.381 61.5,143C 58.924,140.349 57.5907,137.182 57.5,133.5C 58.391,132.89 59.391,132.557 60.5,132.5C 61.086,134.84 62.086,137.007 63.5,139C 71.536,142.485 76.2027,139.985 77.5,131.5 Z"/></g>
<g><path style="opacity:1" fill="#ee878e" d="M 91.5,127.5 C 91.464,133.893 91.6307,140.227 92,146.5C 89.6342,140.644 89.1342,134.644 90.5,128.5C 90.5,127.833 90.8333,127.5 91.5,127.5 Z"/></g>
<g><path style="opacity:0.659" fill="#423c40" d="M 131.5,132.5 C 132.167,132.833 132.833,133.167 133.5,133.5C 133.068,134.71 132.401,135.71 131.5,136.5C 131.5,135.167 131.5,133.833 131.5,132.5 Z"/></g>
<g><path style="opacity:0.874" fill="#2c3339" d="M 107.5,137.5 C 107.663,139.857 107.497,142.19 107,144.5C 106.292,145.381 105.458,146.047 104.5,146.5C 102.302,146.88 100.635,146.213 99.5,144.5C 101.569,141.427 104.236,139.094 107.5,137.5 Z"/></g>
<g><path style="opacity:1" fill="#bb5e65" d="M 161.5,135.5 C 162.167,135.833 162.833,136.167 163.5,136.5C 163.421,137.93 163.754,139.264 164.5,140.5C 164.154,141.696 163.654,141.696 163,140.5C 162.667,141.5 162.333,142.5 162,143.5C 159.929,141.545 159.262,139.212 160,136.5C 160.249,137.624 160.749,138.624 161.5,139.5C 161.833,139.167 162.167,138.833 162.5,138.5C 161.873,137.583 161.539,136.583 161.5,135.5 Z"/></g>
<g><path style="opacity:0.888" fill="#f4f3f3" d="M 37.5,153.5 C 36.2967,157.11 35.2967,160.777 34.5,164.5C 33.6618,164.842 33.3284,165.508 33.5,166.5C 33.4431,167.609 33.1098,168.609 32.5,169.5C 27.0254,165.551 24.5254,160.218 25,153.5C 29.0256,149.973 33.1923,149.973 37.5,153.5 Z"/></g>
<g><path style="opacity:0.85" fill="#f3f3f3" d="M 126.5,185.5 C 125.833,185.833 125.167,186.167 124.5,186.5C 123.969,180.929 122.969,175.429 121.5,170C 121.36,166.615 122.36,163.615 124.5,161C 126.044,159.813 127.711,159.48 129.5,160C 133.744,167.643 132.911,174.809 127,181.5C 126.51,182.793 126.343,184.127 126.5,185.5 Z"/></g>
<g><path style="opacity:1" fill="#f09ba1" d="M 34.5,164.5 C 39.2244,165.63 43.8911,166.964 48.5,168.5C 48.5,168.833 48.5,169.167 48.5,169.5C 44.0587,168.576 39.7254,167.242 35.5,165.5C 34.8165,165.863 34.1499,166.196 33.5,166.5C 33.3284,165.508 33.6618,164.842 34.5,164.5 Z"/></g>
<g><path style="opacity:0.886" fill="#6f3d45" d="M 149.5,157.5 C 150.284,160.795 151.284,164.129 152.5,167.5C 151.21,166.942 150.377,165.942 150,164.5C 149.503,162.19 149.337,159.857 149.5,157.5 Z"/></g>
<g><path style="opacity:0.983" fill="#e6535d" d="M 48.5,169.5 C 49.355,170.531 50.0217,171.697 50.5,173C 50.1639,174.03 49.4972,174.53 48.5,174.5C 43.8333,173.5 39.1667,172.5 34.5,171.5C 33.5,171.167 32.8333,170.5 32.5,169.5C 33.1098,168.609 33.4431,167.609 33.5,166.5C 34.1499,166.196 34.8165,165.863 35.5,165.5C 39.7254,167.242 44.0587,168.576 48.5,169.5 Z"/></g>
<g><path style="opacity:1" fill="#db7b81" d="M 50.5,177.5 C 50.2178,176.222 49.5511,175.222 48.5,174.5C 49.4972,174.53 50.1639,174.03 50.5,173C 50.0217,171.697 49.355,170.531 48.5,169.5C 48.5,169.167 48.5,168.833 48.5,168.5C 49.339,167.359 50.0057,166.026 50.5,164.5C 64.4881,163.334 78.4881,163.167 92.5,164C 78.8374,164.5 65.1707,164.667 51.5,164.5C 51.5,165.5 51.5,166.5 51.5,167.5C 98.1667,167.833 98.1667,168.167 51.5,168.5C 51.6658,173.179 51.4992,177.845 51,182.5C 50.5065,180.866 50.3398,179.199 50.5,177.5 Z"/></g>
<g><path style="opacity:0.973" fill="#e6505b" d="M 95.5,124.5 C 95.3341,129.511 95.5007,134.511 96,139.5C 96.2233,141.881 97.39,143.547 99.5,144.5C 100.635,146.213 102.302,146.88 104.5,146.5C 101.501,150.332 98.0011,153.665 94,156.5C 93.8633,170.831 94.03,185.164 94.5,199.5C 93.8333,199.5 93.5,199.833 93.5,200.5C 78.8333,200.5 64.1667,200.5 49.5,200.5C 49.5,200.167 49.5,199.833 49.5,199.5C 49.5,192.5 49.5,185.5 49.5,178.5C 49.5,177.833 49.8333,177.5 50.5,177.5C 50.3398,179.199 50.5065,180.866 51,182.5C 51.4992,177.845 51.6658,173.179 51.5,168.5C 98.1667,168.167 98.1667,167.833 51.5,167.5C 51.5,166.5 51.5,165.5 51.5,164.5C 65.1707,164.667 78.8374,164.5 92.5,164C 78.4881,163.167 64.4881,163.334 50.5,164.5C 50.0057,166.026 49.339,167.359 48.5,168.5C 43.8911,166.964 39.2244,165.63 34.5,164.5C 35.2967,160.777 36.2967,157.11 37.5,153.5C 38.038,151.883 38.3713,150.216 38.5,148.5C 40.0192,145.979 41.6859,143.479 43.5,141C 48.2555,138.965 52.5889,136.465 56.5,133.5C 56.8333,133.5 57.1667,133.5 57.5,133.5C 57.5907,137.182 58.924,140.349 61.5,143C 73.405,148.381 79.7383,144.547 80.5,131.5C 84.3375,131.978 87.6709,130.978 90.5,128.5C 89.1342,134.644 89.6342,140.644 92,146.5C 91.6307,140.227 91.464,133.893 91.5,127.5C 92.795,126.512 94.1283,125.512 95.5,124.5 Z"/></g>
<g><path style="opacity:1" fill="#914046" d="M 192.5,175.5 C 190.896,176.287 190.229,177.62 190.5,179.5C 189.91,180.766 189.41,182.099 189,183.5C 188.502,180.183 188.335,176.85 188.5,173.5C 185.402,173.587 185.068,173.087 187.5,172C 186.409,169.936 186.242,167.769 187,165.5C 189.112,168.727 190.945,172.06 192.5,175.5 Z"/></g>
<g><path style="opacity:0.943" fill="#b28574" d="M 34.5,171.5 C 39.1667,172.5 43.8333,173.5 48.5,174.5C 49.5511,175.222 50.2178,176.222 50.5,177.5C 49.8333,177.5 49.5,177.833 49.5,178.5C 47.441,185.221 45.441,192.055 43.5,199C 45.4727,199.495 47.4727,199.662 49.5,199.5C 49.5,199.833 49.5,200.167 49.5,200.5C 39.7783,200.884 32.7783,200.551 28.5,199.5C 30.5,190.167 32.5,180.833 34.5,171.5 Z"/></g>
<g><path style="opacity:1" fill="#983e45" d="M 166.5,166.5 C 167.831,169.127 169.664,171.46 172,173.5C 173.043,169.774 173.543,170.107 173.5,174.5C 181.226,175.118 181.393,176.451 174,178.5C 168.956,176.254 166.456,172.254 166.5,166.5 Z"/></g>
<g><path style="opacity:0.788" fill="#de535d" d="M 121.5,187.5 C 120.662,187.842 120.328,188.508 120.5,189.5C 119.833,189.5 119.5,189.167 119.5,188.5C 116.742,185.74 115.408,182.407 115.5,178.5C 115.5,177.5 115.5,176.5 115.5,175.5C 120.35,175.519 122.683,178.019 122.5,183C 122.395,184.592 122.061,186.092 121.5,187.5 Z"/></g>
<g><path style="opacity:1" fill="#943f47" d="M 83.5,179.5 C 84.1283,176.91 85.295,174.577 87,172.5C 86.9154,175.336 85.7487,177.669 83.5,179.5 Z"/></g>
<g><path style="opacity:0.778" fill="#f4f2f2" d="M 115.5,178.5 C 115.408,182.407 116.742,185.74 119.5,188.5C 118.5,188.5 117.5,188.5 116.5,188.5C 113.187,187.187 110.854,184.854 109.5,181.5C 110.516,178.325 112.516,177.325 115.5,178.5 Z"/></g>
<g><path style="opacity:0.768" fill="#f4f3f3" d="M 127.5,191.5 C 129.475,189.638 129.808,187.638 128.5,185.5C 131.589,181.746 135.589,180.246 140.5,181C 141.555,184.258 140.555,186.924 137.5,189C 134.392,190.759 131.059,191.592 127.5,191.5 Z"/></g>
<g><path style="opacity:1" fill="#99383f" d="M 83.5,179.5 C 79.8182,186.846 74.1515,192.179 66.5,195.5C 63.9252,192.955 63.9252,190.288 66.5,187.5C 72.1912,184.828 77.8579,182.162 83.5,179.5 Z"/></g>
<g><path style="opacity:1" fill="#a96a70" d="M 157.5,180.5 C 158.793,179.355 159.959,179.689 161,181.5C 161.667,182.5 161.667,183.5 161,184.5C 160.34,182.676 159.173,181.343 157.5,180.5 Z"/></g>
<g><path style="opacity:0.963" fill="#db565f" d="M 126.5,185.5 C 127.167,185.5 127.833,185.5 128.5,185.5C 129.808,187.638 129.475,189.638 127.5,191.5C 126.833,191.833 126.167,192.167 125.5,192.5C 124.094,192.027 123.427,191.027 123.5,189.5C 123.263,188.209 123.596,187.209 124.5,186.5C 125.167,186.167 125.833,185.833 126.5,185.5 Z"/></g>
<g><path style="opacity:0.955" fill="#f5b798" d="M 215.5,186.5 C 215.167,189.167 214.833,191.833 214.5,194.5C 214.167,196.5 213.833,198.5 213.5,200.5C 208.833,200.5 204.167,200.5 199.5,200.5C 199.5,200.167 199.5,199.833 199.5,199.5C 201.344,197.721 202.01,195.388 201.5,192.5C 204.047,191.066 206.381,189.4 208.5,187.5C 210.717,186.631 213.05,186.298 215.5,186.5 Z"/></g>
<g><path style="opacity:0.785" fill="#2a3339" d="M 215.5,186.5 C 216.167,186.5 216.833,186.5 217.5,186.5C 219.429,190.245 218.429,192.912 214.5,194.5C 214.833,191.833 215.167,189.167 215.5,186.5 Z"/></g>
<g><path style="opacity:0.7" fill="#db4e58" d="M 116.5,188.5 C 117.795,189.488 119.128,190.488 120.5,191.5C 121.405,192.702 121.405,194.036 120.5,195.5C 116.008,195.677 113.008,193.677 111.5,189.5C 113.045,188.548 114.712,188.215 116.5,188.5 Z"/></g>
<g><path style="opacity:1" fill="#9e5058" d="M 169.5,191.5 C 167.063,191.114 165.063,189.947 163.5,188C 164.996,187.493 166.163,187.993 167,189.5C 168.308,188.849 169.141,189.515 169.5,191.5 Z"/></g>
<g><path style="opacity:1" fill="#bf5e60" d="M 208.5,187.5 C 206.381,189.4 204.047,191.066 201.5,192.5C 201.5,192.167 201.5,191.833 201.5,191.5C 203.133,189.948 203.967,188.281 204,186.5C 205.356,187.38 206.856,187.714 208.5,187.5 Z"/></g>
<g><path style="opacity:1" fill="#94434b" d="M 169.5,191.5 C 173.472,192.108 177.472,192.608 181.5,193C 178.167,193.667 174.833,193.667 171.5,193C 170.584,192.722 169.918,192.222 169.5,191.5 Z"/></g>
<g><path style="opacity:0.918" fill="#aeb0b2" d="M 121.5,187.5 C 122.167,188.167 122.833,188.833 123.5,189.5C 123.427,191.027 124.094,192.027 125.5,192.5C 124.781,194.764 124.448,197.097 124.5,199.5C 123.132,195.702 122.132,191.702 121.5,187.5 Z"/></g>
<g><path style="opacity:0.502" fill="#283339" d="M 121.5,187.5 C 122.132,191.702 123.132,195.702 124.5,199.5C 134.167,199.5 143.833,199.5 153.5,199.5C 154.167,199.5 154.5,199.833 154.5,200.5C 134.167,200.5 113.833,200.5 93.5,200.5C 93.5,199.833 93.8333,199.5 94.5,199.5C 103.857,199.832 113.19,199.498 122.5,198.5C 122.058,197.261 121.391,196.261 120.5,195.5C 121.405,194.036 121.405,192.702 120.5,191.5C 120.5,190.833 120.5,190.167 120.5,189.5C 120.328,188.508 120.662,187.842 121.5,187.5 Z"/></g>
</svg>
